<svg width="818" height="112" viewBox="0 0 818 112" fill="none" xmlns="http://www.w3.org/2000/svg">
<path d="M233.296 30.8396C230.172 28.9503 226.39 28 221.944 28C218.071 28 214.68 28.7863 211.771 30.3531C208.857 31.92 206.464 34.0808 204.587 36.8299H204.355V29.318H187.689V88.4291H204.355V54.7725C204.355 52.442 204.825 50.3491 205.761 48.4937C206.702 46.6384 208.029 45.1903 209.753 44.1382C211.476 43.0861 213.529 42.56 215.905 42.56C219.126 42.56 221.632 43.5725 223.435 45.5976C225.238 47.6226 226.134 50.4735 226.134 54.139V88.4234H242.743V51.7915C242.743 46.7855 241.949 42.5147 240.356 38.9794C238.768 35.444 236.409 32.7289 233.285 30.8396H233.296Z" fill="#2D0F37"/>
<path d="M93.5668 28.0566H94.1678C105.667 28.0566 114.984 37.356 114.989 48.8218V88.2933H98.6077V47.764C98.6077 44.9075 96.2885 42.5883 93.4193 42.5883H93.2662C90.8677 42.5883 88.7866 44.223 88.2196 46.5422L80.678 77.5176C78.9599 84.577 72.6261 89.5491 65.3453 89.5548C56.613 89.5604 49.5307 82.5067 49.5307 73.7956V47.7471C49.5307 44.8962 47.2115 42.5826 44.3536 42.5826C41.9664 42.5826 39.8854 44.2174 39.324 46.5309L31.8448 77.2461C30.087 84.4638 23.6114 89.5491 16.1662 89.5548C7.24106 89.5661 0 82.3483 0 73.4448V29.2727H16.5461V76.2505H16.6936L24.3542 44.3135C26.4636 34.8162 34.9068 28.0566 44.6542 28.0566C56.1367 28.0566 65.4474 37.3446 65.4417 48.7935V76.2505H65.5892L73.2442 44.3305C75.3592 34.8218 83.8081 28.0566 93.5668 28.0566Z" fill="#2D0F37"/>
<path fill-rule="evenodd" clip-rule="evenodd" d="M164.673 36.661H165.019L165.013 36.6554V29.3754H181.679V88.4356H165.07V81.1556H164.668C163.25 82.9883 161.554 84.5495 159.581 85.8279C157.608 87.1119 155.448 88.0849 153.089 88.7523C150.73 89.4198 148.229 89.7535 145.587 89.7535C140.529 89.7535 135.998 88.4978 131.995 85.9976C127.992 83.4974 124.862 79.9224 122.599 75.2784C120.337 70.6343 119.208 64.9834 119.208 59.0214C119.208 53.0594 120.308 47.7196 122.514 42.9964C124.714 38.2788 127.821 34.6077 131.825 31.9887C135.828 29.3754 140.478 28.063 145.763 28.063C148.484 28.063 151.025 28.4024 153.378 29.0925C155.731 29.7826 157.869 30.7669 159.785 32.0452C161.702 33.3293 163.329 34.8622 164.673 36.661ZM158.322 73.3552C160.522 72.0145 162.241 70.1139 163.465 67.6477V67.6364C164.69 65.1758 165.303 62.257 165.303 59.0101C165.303 55.7632 164.702 52.8897 163.494 50.3838C162.286 47.878 160.574 45.9378 158.351 44.5632C156.128 43.1887 153.452 42.4986 150.65 42.4986C147.849 42.4986 145.343 43.1717 143.12 44.5067C140.897 45.8473 139.174 47.7592 137.949 50.2424C136.724 52.7313 136.112 55.6671 136.112 58.9592C136.112 62.2513 136.741 65.1362 138.005 67.6194C139.27 70.1083 140.999 72.0202 143.205 73.3552C145.411 74.6958 147.832 75.3632 150.707 75.3632C153.582 75.3632 156.117 74.6958 158.322 73.3552Z" fill="#2D0F37"/>
<path fill-rule="evenodd" clip-rule="evenodd" d="M292.79 36.943H293.141V29.318H309.806V86.257C309.806 91.6081 308.542 96.2238 306.013 100.104C303.484 103.985 299.923 106.937 295.324 108.962C290.726 110.987 285.327 112 279.118 112C273.561 112 268.639 111.265 264.347 109.794C260.055 108.318 256.579 106.112 253.914 103.17C251.254 100.229 249.632 96.5576 249.06 92.1624H265.668C266.394 94.6853 268.004 96.5463 270.494 97.7511C272.983 98.956 276.011 99.5556 279.572 99.5556C282.481 99.5556 284.942 99.0352 286.955 98.0057C288.968 96.9705 290.499 95.4546 291.553 93.4465C292.608 91.4384 293.135 89.04 293.135 86.2513V78.055H292.79C290.68 80.7701 287.97 82.9196 284.658 84.5034C281.341 86.0929 277.576 86.8849 273.363 86.8849C268.345 86.8849 263.82 85.6913 259.799 83.3042C255.779 80.9172 252.638 77.5119 250.375 73.0998C248.113 68.682 246.984 63.461 246.984 57.6461C246.984 51.8311 248.096 46.6949 250.319 42.2206C252.541 37.7463 255.654 34.2675 259.658 31.7842C263.661 29.301 268.271 28.0566 273.482 28.0566C277.616 28.0566 281.324 28.8428 284.602 30.4097C287.873 31.9766 290.606 34.1543 292.79 36.943ZM286.184 70.7976C288.406 69.5588 290.119 67.7996 291.327 65.5257V65.5143C292.534 63.2404 293.135 60.5931 293.135 57.5725C293.135 54.5519 292.534 51.8764 291.327 49.5459C290.119 47.2154 288.395 45.4166 286.155 44.1552C283.915 42.8994 281.398 42.2659 278.483 42.2659C275.569 42.2659 273.023 42.9107 270.84 44.1891C268.657 45.4731 266.95 47.2606 265.725 49.5515C264.5 51.8481 263.888 54.501 263.888 57.5216C263.888 60.5422 264.5 63.1895 265.725 65.4634C266.95 67.743 268.673 69.5079 270.896 70.7693C273.119 72.0251 275.665 72.6586 278.54 72.6586C281.415 72.6586 283.961 72.042 286.184 70.7976Z" fill="#2D0F37"/>
<path fill-rule="evenodd" clip-rule="evenodd" d="M362.155 31.9822C357.364 29.3236 351.982 28 346.006 28C340.029 28 334.625 29.3293 329.8 31.9822C324.975 34.6408 321.187 38.3176 318.448 43.0182C315.709 47.7188 314.337 53.0303 314.337 58.9584C314.337 64.8865 315.726 70.2545 318.505 74.9552C321.283 79.6558 325.077 83.2986 329.885 85.878C334.694 88.4574 340.029 89.7471 345.892 89.7471C351.756 89.7471 357.205 88.4461 362.013 85.8497C366.822 83.2533 370.604 79.6105 373.365 74.9269C376.127 70.2432 377.505 64.9204 377.505 58.9584C377.505 52.9964 376.144 47.6283 373.422 42.9616C370.7 38.3006 366.947 34.6408 362.155 31.9822ZM358.679 67.7883C357.358 70.3111 355.577 72.2626 353.332 73.6372C351.092 75.0117 348.609 75.7018 345.887 75.7018C343.165 75.7018 340.687 75.0061 338.447 73.6089C336.207 72.2117 334.433 70.2659 333.128 67.76C331.824 65.2541 331.172 62.341 331.172 59.015C331.172 55.6889 331.824 52.6966 333.128 50.1568C334.433 47.617 336.196 45.6485 338.419 44.2513C340.642 42.8541 343.131 42.1584 345.892 42.1584C348.654 42.1584 351.2 42.8541 353.423 44.2513C355.646 45.6485 357.409 47.617 358.713 50.1568C360.017 52.6966 360.669 55.6323 360.669 58.9584C360.669 62.2845 360.006 65.2655 358.685 67.7883H358.679Z" fill="#2D0F37"/>
<path fill-rule="evenodd" clip-rule="evenodd" d="M418.048 28.0566C423.299 28.0566 427.926 29.3632 431.929 31.9822C435.932 34.6012 439.034 38.2723 441.24 42.9899C443.446 47.7131 444.546 52.821 444.546 59.015C444.546 65.2089 443.417 70.6279 441.155 75.2719C438.892 79.916 435.762 83.4853 431.759 85.9911C427.756 88.497 423.225 89.7471 418.167 89.7471C415.525 89.7471 413.001 89.4077 410.608 88.7176C408.21 88.0275 406.016 87.0376 404.025 85.7366C402.035 84.4412 400.328 82.8687 398.911 81.036H398.797V110.733H382.132V29.3745H398.797V36.8242H398.911C400.254 34.9915 401.899 33.4133 403.855 32.0954C405.806 30.7774 407.983 29.7762 410.376 29.0861C412.769 28.4016 415.326 28.0566 418.048 28.0566ZM420.611 73.3487C422.811 72.0081 424.535 70.0962 425.782 67.6129V67.6242C427.024 65.1354 427.648 62.2901 427.648 58.964C427.648 55.638 427.036 52.7305 425.811 50.2473C424.586 47.7584 422.862 45.8521 420.639 44.5115C418.417 43.1709 416.018 42.5034 413.109 42.5034C410.2 42.5034 407.637 43.1935 405.437 44.5681C403.231 45.9426 401.53 47.8885 400.322 50.3887C399.115 52.8889 398.514 55.7285 398.514 59.015C398.514 62.3014 399.126 65.175 400.351 67.6412C401.576 70.1075 403.282 72.0137 405.465 73.3487C407.649 74.6893 410.217 75.3568 413.052 75.3568C415.888 75.3568 418.405 74.6893 420.611 73.3487Z" fill="#2D0F37"/>
<path fill-rule="evenodd" clip-rule="evenodd" d="M493.73 36.661H493.385C492.041 34.8622 490.413 33.3293 488.497 32.0452C486.58 30.7669 484.442 29.7826 482.089 29.0925C479.73 28.4024 477.196 28.063 474.474 28.063C469.183 28.063 464.539 29.3754 460.536 31.9887C456.533 34.6077 453.426 38.2788 451.225 42.9964C449.02 47.7196 447.92 53.0594 447.92 59.0214C447.92 64.9834 449.048 70.6343 451.31 75.2784C453.573 79.9224 456.703 83.4974 460.706 85.9976C464.71 88.4978 469.24 89.7535 474.298 89.7535C476.941 89.7535 479.441 89.4198 481.8 88.7523C484.159 88.0849 486.319 87.1119 488.293 85.8279C490.266 84.5495 491.961 82.9883 493.379 81.1556H493.782V88.4356H510.39V29.3754H493.725V36.6554L493.73 36.661ZM492.177 67.6477C490.952 70.1139 489.234 72.0145 487.034 73.3552C484.828 74.6958 482.293 75.3632 479.418 75.3632C476.544 75.3632 474.122 74.6958 471.917 73.3552C469.711 72.0202 467.981 70.1083 466.717 67.6194C465.452 65.1362 464.817 62.2513 464.817 58.9592C464.817 55.6671 465.43 52.7313 466.654 50.2424C467.879 47.7592 469.603 45.8473 471.826 44.5067C474.049 43.1717 476.555 42.4986 479.356 42.4986C482.157 42.4986 484.834 43.1887 487.056 44.5632C489.279 45.9378 490.992 47.878 492.2 50.3838C493.407 52.8897 494.008 55.7632 494.008 59.0101C494.008 62.257 493.396 65.1758 492.171 67.6364L492.177 67.6477Z" fill="#2D0F37"/>
<path d="M546.703 59.8174L556.875 29.3171H574L548.086 96.4606C546.283 101.195 543.516 104.764 539.779 107.151C536.043 109.539 530.86 110.732 524.231 110.732H517.965V97.3147H524.231C526.794 97.3147 528.807 96.9414 530.264 96.1947C531.722 95.4537 532.867 94.1414 533.712 92.2691L535.266 88.5414L512.046 29.3171H529.113L539.575 59.8174C540.568 62.8776 541.736 66.526 543.079 70.7685H543.369C544.633 66.5656 545.745 62.9115 546.703 59.8174Z" fill="#2D0F37"/>
<rect x="598" width="220" height="112" rx="56" fill="#FCB069"/>
<path d="M645.36 75V34.624H658.968C670.056 34.624 679.912 41.008 679.912 54.784C679.912 68.616 670.056 75 658.968 75H645.36ZM658.128 67.384C664.624 67.384 671.008 64.248 671.008 54.784C671.008 45.376 664.624 42.24 658.128 42.24H654.04V67.384H658.128ZM698.003 75.448C689.211 75.448 682.939 69.064 682.939 60.44C682.939 51.872 689.211 45.488 698.003 45.488C706.739 45.488 713.123 51.816 713.123 60.44C713.123 69.12 706.739 75.448 698.003 75.448ZM698.003 68.448C702.035 68.448 704.779 65.144 704.779 60.44C704.779 55.736 701.979 52.488 698.003 52.488C693.859 52.488 691.227 55.792 691.227 60.44C691.227 65.144 693.859 68.448 698.003 68.448ZM730.644 75.448C722.076 75.448 715.972 69.288 715.972 60.44C715.972 51.648 722.076 45.488 730.644 45.488C738.204 45.488 743.636 49.352 744.644 56.968H736.58C736.132 54.392 733.78 52.488 730.868 52.488C726.892 52.488 724.26 55.624 724.26 60.44C724.26 65.312 726.948 68.448 730.868 68.448C733.836 68.448 735.964 66.6 736.524 63.856H744.532C743.468 71.696 738.092 75.448 730.644 75.448ZM759.632 75.448C752.072 75.448 746.976 71.192 746.696 64.752H754.144C754.312 66.768 756.496 68.952 759.632 68.952C762.096 68.952 763.888 67.944 763.888 66.32C763.888 65.088 762.88 64.248 761.088 63.856L756.832 63.016C752.464 62.12 748.04 59.992 748.04 53.888C748.04 49.408 752.128 45.488 758.96 45.488C765.288 45.488 770.384 48.904 771.112 54.896H763.664C763.328 52.656 760.976 51.592 758.96 51.592C757.056 51.592 755.6 52.432 755.6 53.888C755.6 55.176 756.776 55.96 758.512 56.296L762.768 57.136C767.584 58.032 771.672 59.936 771.672 66.152C771.672 71.136 766.856 75.448 759.632 75.448Z" fill="#2D0F37"/>
</svg>
