<svg width="182" height="24" viewBox="0 0 182 24" fill="none" xmlns="http://www.w3.org/2000/svg">
<path d="M50.1297 6.60849C49.4584 6.20364 48.6458 6 47.6904 6C46.8582 6 46.1296 6.16849 45.5045 6.50424C44.8784 6.84 44.3642 7.30303 43.9608 7.89212H43.911V6.28243H40.3299V18.9491H43.911V11.737C43.911 11.2376 44.012 10.7891 44.2131 10.3915C44.4153 9.99394 44.7004 9.68363 45.0709 9.45819C45.4411 9.23274 45.8823 9.12 46.3928 9.12C47.0849 9.12 47.6234 9.33696 48.0108 9.77091C48.3982 10.2048 48.5908 10.8158 48.5908 11.6012V18.9479H52.1596V11.0982C52.1596 10.0255 51.989 9.11029 51.6467 8.35273C51.3055 7.59514 50.7986 7.01334 50.1273 6.60849H50.1297Z" fill="#00000E"/>
<path d="M20.1053 6.01213H20.2344C22.7053 6.01213 24.7073 8.00486 24.7084 10.4618V18.92H21.1884V10.2351C21.1884 9.62303 20.6901 9.12606 20.0736 9.12606H20.0407C19.5253 9.12606 19.0781 9.47636 18.9563 9.97333L17.3358 16.6109C16.9666 18.1236 15.6056 19.1891 14.0411 19.1903C12.1648 19.1915 10.643 17.68 10.643 15.8133V10.2315C10.643 9.62061 10.1446 9.12484 9.53053 9.12484C9.01757 9.12484 8.57042 9.47515 8.44979 9.97091L6.84268 16.5527C6.46497 18.0994 5.07352 19.1891 3.47373 19.1903C1.55593 19.1927 0 17.6461 0 15.7382V6.27272H3.55536V16.3394H3.58705L5.23313 9.49575C5.68639 7.46061 7.50064 6.01213 9.59512 6.01213C12.0624 6.01213 14.0631 8.00241 14.0619 10.4557V16.3394H14.0935L15.7384 9.49939C16.1929 7.46181 18.0084 6.01213 20.1053 6.01213Z" fill="#00000E"/>
<path fill-rule="evenodd" clip-rule="evenodd" d="M35.3843 7.85593H35.4586L35.4573 7.85473V6.29473H39.0385V18.9505H35.4696V17.3905H35.3832C35.0785 17.7832 34.7141 18.1178 34.2901 18.3917C33.8662 18.6668 33.4021 18.8753 32.8952 19.0184C32.3883 19.1614 31.8509 19.2329 31.2832 19.2329C30.1963 19.2329 29.2227 18.9638 28.3626 18.4281C27.5024 17.8923 26.8299 17.1262 26.3436 16.1311C25.8575 15.1359 25.6149 13.925 25.6149 12.6474C25.6149 11.3699 25.8513 10.2256 26.3253 9.21352C26.798 8.2026 27.4657 7.41594 28.326 6.85472C29.1862 6.29473 30.1854 6.0135 31.321 6.0135C31.9057 6.0135 32.4517 6.08623 32.9573 6.23411C33.4629 6.38199 33.9223 6.59291 34.334 6.86683C34.7459 7.14199 35.0955 7.47047 35.3843 7.85593ZM34.0196 15.719C34.4923 15.4317 34.8617 15.0244 35.1247 14.4959V14.4935C35.3879 13.9662 35.5197 13.3408 35.5197 12.645C35.5197 11.9493 35.3905 11.3335 35.1309 10.7965C34.8714 10.2596 34.5035 9.84382 34.0258 9.54926C33.5482 9.25472 32.9732 9.10684 32.3711 9.10684C31.7692 9.10684 31.2307 9.25108 30.7531 9.53715C30.2754 9.82442 29.9052 10.2341 29.6419 10.7662C29.3787 11.2996 29.2472 11.9287 29.2472 12.6341C29.2472 13.3396 29.3824 13.9578 29.654 14.4899C29.9258 15.0232 30.2973 15.4329 30.7713 15.719C31.2453 16.0062 31.7656 16.1493 32.3833 16.1493C33.0011 16.1493 33.5458 16.0062 34.0196 15.719Z" fill="#00000E"/>
<path fill-rule="evenodd" clip-rule="evenodd" d="M62.9135 7.91636H62.9889V6.28243H66.5699V18.4836C66.5699 19.6303 66.2982 20.6194 65.7548 21.4509C65.2114 22.2825 64.4462 22.9151 63.458 23.349C62.47 23.7829 61.3099 24 59.9757 24C58.7817 24 57.7241 23.8425 56.8018 23.5273C55.8796 23.211 55.1327 22.7383 54.56 22.1079C53.9884 21.4776 53.6399 20.6909 53.517 19.7491H57.0857C57.2417 20.2897 57.5876 20.6885 58.1227 20.9467C58.6575 21.2049 59.3081 21.3333 60.0733 21.3333C60.6984 21.3333 61.2272 21.2218 61.6597 21.0012C62.0923 20.7794 62.4213 20.4546 62.6477 20.0243C62.8744 19.5939 62.9877 19.08 62.9877 18.4824V16.7261H62.9135C62.4601 17.3079 61.8778 17.7685 61.1662 18.1079C60.4534 18.4485 59.6444 18.6182 58.7391 18.6182C57.6609 18.6182 56.6886 18.3624 55.8246 17.8509C54.9608 17.3394 54.2858 16.6097 53.7996 15.6642C53.3135 14.7176 53.0709 13.5988 53.0709 12.3527C53.0709 11.1067 53.3099 10.006 53.7875 9.04727C54.265 8.08849 54.9339 7.34303 55.7943 6.8109C56.6544 6.27878 57.645 6.01213 58.7647 6.01213C59.653 6.01213 60.4498 6.1806 61.1541 6.51636C61.857 6.85213 62.4442 7.31878 62.9135 7.91636ZM61.4941 15.1709C61.9715 14.9055 62.3396 14.5285 62.5992 14.0412V14.0388C62.8585 13.5515 62.9877 12.9842 62.9877 12.337C62.9877 11.6897 62.8585 11.1164 62.5992 10.617C62.3396 10.1176 61.9692 9.73213 61.4878 9.46183C61.0065 9.19273 60.4657 9.05698 59.8393 9.05698C59.2132 9.05698 58.6661 9.19515 58.197 9.46909C57.7279 9.74423 57.3611 10.1273 57.0979 10.6182C56.8347 11.1103 56.7032 11.6788 56.7032 12.3261C56.7032 12.9733 56.8347 13.5406 57.0979 14.0279C57.3611 14.5164 57.7314 14.8945 58.209 15.1648C58.6867 15.4339 59.2338 15.5697 59.8516 15.5697C60.4693 15.5697 61.0164 15.4376 61.4941 15.1709Z" fill="#00000E"/>
<path fill-rule="evenodd" clip-rule="evenodd" d="M77.8184 6.85333C76.7889 6.28363 75.6325 6 74.3484 6C73.0641 6 71.9029 6.28485 70.8661 6.85333C69.8293 7.42303 69.0154 8.21091 68.4268 9.21819C67.8383 10.2255 67.5435 11.3636 67.5435 12.6339C67.5435 13.9043 67.8419 15.0545 68.4391 16.0618C69.036 17.0691 69.8512 17.8497 70.8844 18.4024C71.9177 18.9552 73.0641 19.2315 74.3239 19.2315C75.5839 19.2315 76.7548 18.9527 77.7879 18.3964C78.8212 17.84 79.6339 17.0594 80.2272 16.0558C80.8207 15.0521 81.1168 13.9115 81.1168 12.6339C81.1168 11.3564 80.8243 10.2061 80.2394 9.20606C79.6545 8.20727 78.8481 7.42303 77.8184 6.85333ZM77.0715 14.5261C76.7876 15.0667 76.405 15.4848 75.9226 15.7794C75.4412 16.0739 74.9077 16.2218 74.3228 16.2218C73.7379 16.2218 73.2054 16.0727 72.7241 15.7733C72.2428 15.4739 71.8616 15.057 71.5812 14.52C71.301 13.983 71.1609 13.3588 71.1609 12.6461C71.1609 11.9333 71.301 11.2921 71.5812 10.7479C71.8616 10.2036 72.2404 9.78182 72.7181 9.48242C73.1958 9.18302 73.7306 9.03394 74.3239 9.03394C74.9174 9.03394 75.4644 9.18302 75.9421 9.48242C76.4198 9.78182 76.7986 10.2036 77.0788 10.7479C77.359 11.2921 77.4991 11.9212 77.4991 12.6339C77.4991 13.3467 77.3566 13.9855 77.0728 14.5261H77.0715Z" fill="#00000E"/>
<path fill-rule="evenodd" clip-rule="evenodd" d="M89.8285 6.01213C90.9568 6.01213 91.951 6.29211 92.8111 6.85333C93.6713 7.41454 94.3378 8.20121 94.8119 9.21212C95.2859 10.2242 95.5222 11.3188 95.5222 12.6461C95.5222 13.9733 95.2796 15.1345 94.7936 16.1297C94.3073 17.1249 93.6348 17.8897 92.7746 18.4267C91.9145 18.9636 90.9409 19.2315 89.854 19.2315C89.2863 19.2315 88.744 19.1588 88.2298 19.0109C87.7145 18.863 87.2431 18.6509 86.8153 18.3721C86.3876 18.0945 86.0209 17.7576 85.7164 17.3649H85.6919V23.7285H82.111V6.29453H85.6919V7.8909H85.7164C86.005 7.49818 86.3584 7.15999 86.7787 6.87759C87.1979 6.59516 87.6657 6.38061 88.1799 6.23273C88.6941 6.08606 89.2436 6.01213 89.8285 6.01213ZM90.3792 15.7176C90.8519 15.4303 91.2224 15.0206 91.4903 14.4885V14.4909C91.7572 13.9576 91.8913 13.3479 91.8913 12.6351C91.8913 11.9224 91.7598 11.2994 91.4965 10.7673C91.2333 10.2339 90.8629 9.82545 90.3852 9.53818C89.9078 9.25091 89.3923 9.10787 88.7672 9.10787C88.1421 9.10787 87.5914 9.25575 87.1187 9.55031C86.6446 9.84484 86.2791 10.2618 86.0196 10.7976C85.7602 11.3333 85.6311 11.9418 85.6311 12.6461C85.6311 13.3503 85.7626 13.9661 86.0258 14.4945C86.289 15.023 86.6556 15.4315 87.1247 15.7176C87.594 16.0048 88.1458 16.1479 88.7549 16.1479C89.3643 16.1479 89.9052 16.0048 90.3792 15.7176Z" fill="#00000E"/>
<path fill-rule="evenodd" clip-rule="evenodd" d="M106.091 7.85593H106.017C105.728 7.47047 105.378 7.14199 104.966 6.86683C104.554 6.59291 104.095 6.38199 103.589 6.23411C103.082 6.08623 102.538 6.0135 101.953 6.0135C100.816 6.0135 99.8183 6.29473 98.9581 6.85472C98.098 7.41594 97.4304 8.2026 96.9574 9.21352C96.4836 10.2256 96.2473 11.3699 96.2473 12.6474C96.2473 13.925 96.4896 15.1359 96.9757 16.1311C97.4619 17.1262 98.1345 17.8923 98.9947 18.4281C99.855 18.9638 100.828 19.2329 101.915 19.2329C102.483 19.2329 103.02 19.1614 103.527 19.0184C104.034 18.8753 104.498 18.6668 104.922 18.3917C105.346 18.1178 105.711 17.7832 106.015 17.3905H106.102V18.9505H109.671V6.29473H106.09V7.85473L106.091 7.85593ZM105.757 14.4959C105.494 15.0244 105.125 15.4317 104.652 15.719C104.178 16.0062 103.633 16.1493 103.015 16.1493C102.398 16.1493 101.877 16.0062 101.404 15.719C100.93 15.4329 100.558 15.0232 100.286 14.4899C100.014 13.9578 99.878 13.3396 99.878 12.6341C99.878 11.9287 100.01 11.2996 100.273 10.7662C100.536 10.2341 100.906 9.82442 101.384 9.53715C101.862 9.25108 102.4 9.10684 103.002 9.10684C103.604 9.10684 104.179 9.25472 104.657 9.54926C105.134 9.84382 105.502 10.2596 105.762 10.7965C106.021 11.3335 106.15 11.9493 106.15 12.645C106.15 13.3408 106.019 13.9662 105.756 14.4935L105.757 14.4959Z" fill="#00000E"/>
<path d="M117.473 12.818L119.659 6.28224H123.339L117.771 20.6701C117.383 21.6846 116.789 22.4494 115.986 22.9609C115.183 23.4726 114.069 23.7283 112.645 23.7283H111.298V20.8532H112.645C113.195 20.8532 113.628 20.7732 113.941 20.6132C114.254 20.4544 114.5 20.1732 114.682 19.772L115.016 18.9732L110.026 6.28224H113.694L115.942 12.818C116.155 13.4738 116.406 14.2556 116.695 15.1647H116.757C117.029 14.2641 117.267 13.481 117.473 12.818Z" fill="#00000E"/>
<path d="M169.967 0H140.529C133.883 0 128.496 5.37258 128.496 12C128.496 18.6274 133.883 24 140.529 24H169.967C176.613 24 182 18.6274 182 12C182 5.37258 176.613 0 169.967 0Z" fill="#E7E5FF"/>
<path d="M138.624 16.0714V7.41943H141.657C144.015 7.41943 146.193 8.72743 146.193 11.7394C146.193 14.7634 144.015 16.0714 141.657 16.0714H138.624ZM141.416 14.2354C142.74 14.2354 144.051 13.6594 144.051 11.7394C144.051 9.83143 142.74 9.25543 141.416 9.25543H140.718V14.2354H141.416ZM151.342 16.1674C148.743 16.1674 146.83 14.2834 146.83 11.7394C146.83 9.20743 148.743 7.32343 151.342 7.32343C153.905 7.32343 155.806 9.19543 155.806 11.7394C155.806 14.2954 153.905 16.1674 151.342 16.1674ZM151.33 14.3434C152.69 14.3434 153.664 13.2274 153.664 11.7394C153.664 10.2634 152.69 9.14743 151.33 9.14743C149.946 9.14743 148.972 10.2634 148.972 11.7394C148.972 13.2274 149.946 14.3434 151.33 14.3434ZM160.834 16.1674C158.44 16.1674 156.442 14.6434 156.442 11.7394C156.442 8.84743 158.488 7.32343 160.834 7.32343C163.061 7.32343 164.697 8.51143 164.914 10.6114H162.663C162.483 9.78343 161.737 9.14743 160.822 9.14743C159.607 9.14743 158.584 10.0474 158.584 11.7394C158.584 13.4434 159.595 14.3434 160.822 14.3434C161.761 14.3434 162.483 13.7794 162.651 12.8314H164.938C164.625 15.1234 162.904 16.1674 160.834 16.1674ZM168.885 16.1554C166.815 16.1554 165.419 14.9074 165.347 12.9874H167.404C167.465 13.7314 168.09 14.3314 168.885 14.3314C169.558 14.3314 170.028 14.0194 170.028 13.5514C170.028 13.1434 169.679 12.9034 169.209 12.7714L168.006 12.4474C166.731 12.0994 165.672 11.4514 165.672 9.78343C165.672 8.35543 166.983 7.31143 168.776 7.31143C170.75 7.31143 172.073 8.39143 172.146 10.0594H170.1C170.016 9.62743 169.546 9.13543 168.776 9.13543C168.187 9.13543 167.814 9.36343 167.814 9.77143C167.814 10.1314 168.102 10.3114 168.548 10.4314L169.751 10.7674C171.038 11.1274 172.17 11.6794 172.17 13.4914C172.17 15.0994 170.87 16.1554 168.885 16.1554Z" fill="#00000E"/>
</svg>
