<svg width="182" height="25" viewBox="0 0 182 25" fill="none" xmlns="http://www.w3.org/2000/svg">
<path d="M50.1297 7.10849C49.4584 6.70364 48.6458 6.5 47.6904 6.5C46.8582 6.5 46.1296 6.66849 45.5045 7.00424C44.8784 7.34 44.3642 7.80303 43.9608 8.39212H43.911V6.78243H40.3299V19.4491H43.911V12.237C43.911 11.7376 44.012 11.2891 44.2131 10.8915C44.4153 10.4939 44.7004 10.1836 45.0709 9.95819C45.4411 9.73274 45.8823 9.62 46.3928 9.62C47.0849 9.62 47.6234 9.83696 48.0108 10.2709C48.3982 10.7048 48.5908 11.3158 48.5908 12.1012V19.4479H52.1596V11.5982C52.1596 10.5255 51.989 9.61029 51.6467 8.85273C51.3055 8.09514 50.7986 7.51334 50.1273 7.10849H50.1297Z" fill="white"/>
<path d="M20.1053 6.51213H20.2344C22.7053 6.51213 24.7073 8.50486 24.7084 10.9618V19.42H21.1884V10.7351C21.1884 10.123 20.6901 9.62606 20.0736 9.62606H20.0407C19.5253 9.62606 19.0781 9.97636 18.9563 10.4733L17.3358 17.1109C16.9666 18.6236 15.6056 19.6891 14.0411 19.6903C12.1648 19.6915 10.643 18.18 10.643 16.3133V10.7315C10.643 10.1206 10.1446 9.62484 9.53053 9.62484C9.01757 9.62484 8.57042 9.97516 8.44979 10.4709L6.84268 17.0527C6.46497 18.5994 5.07352 19.6891 3.47373 19.6903C1.55593 19.6927 0 18.1461 0 16.2382V6.77272H3.55536V16.8394H3.58705L5.23313 9.99575C5.68639 7.96061 7.50063 6.51213 9.59512 6.51213C12.0624 6.51213 14.0631 8.50241 14.0619 10.9557V16.8394H14.0935L15.7384 9.99939C16.1929 7.96181 18.0084 6.51213 20.1053 6.51213Z" fill="white"/>
<path fill-rule="evenodd" clip-rule="evenodd" d="M35.3843 8.35593H35.4586L35.4573 8.35473V6.79473H39.0385V19.4505H35.4696V17.8905H35.3832C35.0785 18.2832 34.7141 18.6178 34.2901 18.8917C33.8662 19.1668 33.4021 19.3753 32.8952 19.5184C32.3883 19.6614 31.8509 19.7329 31.2832 19.7329C30.1963 19.7329 29.2227 19.4638 28.3626 18.9281C27.5024 18.3923 26.8299 17.6262 26.3436 16.6311C25.8575 15.6359 25.6149 14.425 25.6149 13.1474C25.6149 11.8699 25.8513 10.7256 26.3253 9.71352C26.798 8.7026 27.4657 7.91594 28.326 7.35472C29.1862 6.79473 30.1854 6.5135 31.321 6.5135C31.9057 6.5135 32.4517 6.58623 32.9573 6.73411C33.4629 6.88199 33.9223 7.09291 34.334 7.36683C34.7459 7.64199 35.0955 7.97047 35.3843 8.35593ZM34.0196 16.219C34.4923 15.9317 34.8617 15.5244 35.1247 14.9959V14.9935C35.3879 14.4662 35.5197 13.8408 35.5197 13.145C35.5197 12.4493 35.3905 11.8335 35.1309 11.2965C34.8714 10.7596 34.5035 10.3438 34.0258 10.0493C33.5482 9.75472 32.9732 9.60684 32.3711 9.60684C31.7692 9.60684 31.2307 9.75108 30.7531 10.0372C30.2754 10.3244 29.9052 10.7341 29.6419 11.2662C29.3787 11.7996 29.2472 12.4287 29.2472 13.1341C29.2472 13.8396 29.3824 14.4578 29.654 14.9899C29.9258 15.5232 30.2973 15.9329 30.7713 16.219C31.2453 16.5062 31.7656 16.6493 32.3833 16.6493C33.0011 16.6493 33.5458 16.5062 34.0196 16.219Z" fill="white"/>
<path fill-rule="evenodd" clip-rule="evenodd" d="M62.9135 8.41636H62.9889V6.78243H66.5699V18.9836C66.5699 20.1303 66.2983 21.1194 65.7548 21.9509C65.2114 22.7825 64.4462 23.4151 63.458 23.849C62.47 24.2829 61.3099 24.5 59.9757 24.5C58.7817 24.5 57.7241 24.3425 56.8018 24.0273C55.8796 23.711 55.1327 23.2383 54.56 22.6079C53.9884 21.9776 53.6399 21.1909 53.517 20.2491H57.0857C57.2417 20.7897 57.5876 21.1885 58.1227 21.4467C58.6575 21.7049 59.3081 21.8333 60.0733 21.8333C60.6984 21.8333 61.2272 21.7218 61.6597 21.5012C62.0923 21.2794 62.4213 20.9546 62.6477 20.5243C62.8744 20.0939 62.9877 19.58 62.9877 18.9824V17.2261H62.9135C62.4601 17.8079 61.8778 18.2685 61.1662 18.6079C60.4534 18.9485 59.6444 19.1182 58.7391 19.1182C57.6609 19.1182 56.6886 18.8624 55.8246 18.3509C54.9608 17.8394 54.2858 17.1097 53.7996 16.1642C53.3135 15.2176 53.0709 14.0988 53.0709 12.8527C53.0709 11.6067 53.3099 10.506 53.7875 9.54727C54.265 8.58849 54.9339 7.84303 55.7943 7.3109C56.6544 6.77878 57.645 6.51213 58.7647 6.51213C59.653 6.51213 60.4498 6.6806 61.1541 7.01636C61.857 7.35213 62.4442 7.81878 62.9135 8.41636ZM61.4941 15.6709C61.9715 15.4055 62.3396 15.0285 62.5992 14.5412V14.5388C62.8585 14.0515 62.9877 13.4842 62.9877 12.837C62.9877 12.1897 62.8585 11.6164 62.5992 11.117C62.3396 10.6176 61.9692 10.2321 61.4878 9.96183C61.0065 9.69273 60.4657 9.55698 59.8393 9.55698C59.2132 9.55698 58.6661 9.69515 58.197 9.96909C57.7279 10.2442 57.3611 10.6273 57.0979 11.1182C56.8347 11.6103 56.7032 12.1788 56.7032 12.8261C56.7032 13.4733 56.8347 14.0406 57.0979 14.5279C57.3611 15.0164 57.7314 15.3945 58.209 15.6648C58.6867 15.9339 59.2338 16.0697 59.8516 16.0697C60.4693 16.0697 61.0164 15.9376 61.4941 15.6709Z" fill="white"/>
<path fill-rule="evenodd" clip-rule="evenodd" d="M77.8184 7.35333C76.7889 6.78363 75.6325 6.5 74.3484 6.5C73.0641 6.5 71.9029 6.78485 70.8661 7.35333C69.8293 7.92303 69.0154 8.71091 68.4268 9.71819C67.8383 10.7255 67.5435 11.8636 67.5435 13.1339C67.5435 14.4043 67.8419 15.5545 68.4391 16.5618C69.036 17.5691 69.8512 18.3497 70.8844 18.9024C71.9177 19.4552 73.0641 19.7315 74.3239 19.7315C75.5839 19.7315 76.7548 19.4527 77.7879 18.8964C78.8212 18.34 79.6339 17.5594 80.2272 16.5558C80.8207 15.5521 81.1168 14.4115 81.1168 13.1339C81.1168 11.8564 80.8243 10.7061 80.2394 9.70606C79.6545 8.70727 78.8481 7.92303 77.8184 7.35333ZM77.0715 15.0261C76.7876 15.5667 76.405 15.9848 75.9226 16.2794C75.4412 16.5739 74.9077 16.7218 74.3228 16.7218C73.7379 16.7218 73.2054 16.5727 72.7241 16.2733C72.2428 15.9739 71.8616 15.557 71.5812 15.02C71.301 14.483 71.1609 13.8588 71.1609 13.1461C71.1609 12.4333 71.301 11.7921 71.5812 11.2479C71.8616 10.7036 72.2404 10.2818 72.7181 9.98242C73.1958 9.68302 73.7306 9.53394 74.3239 9.53394C74.9174 9.53394 75.4644 9.68302 75.9421 9.98242C76.4198 10.2818 76.7986 10.7036 77.0788 11.2479C77.359 11.7921 77.4991 12.4212 77.4991 13.1339C77.4991 13.8467 77.3566 14.4855 77.0728 15.0261H77.0715Z" fill="white"/>
<path fill-rule="evenodd" clip-rule="evenodd" d="M89.8285 6.51213C90.9568 6.51213 91.951 6.79211 92.8111 7.35333C93.6713 7.91454 94.3378 8.70121 94.8119 9.71212C95.2859 10.7242 95.5222 11.8188 95.5222 13.1461C95.5222 14.4733 95.2796 15.6345 94.7936 16.6297C94.3073 17.6249 93.6348 18.3897 92.7746 18.9267C91.9145 19.4636 90.9409 19.7315 89.854 19.7315C89.2863 19.7315 88.744 19.6588 88.2298 19.5109C87.7145 19.363 87.2431 19.1509 86.8153 18.8721C86.3876 18.5945 86.0209 18.2576 85.7164 17.8649H85.6919V24.2285H82.111V6.79453H85.6919V8.3909H85.7164C86.005 7.99818 86.3584 7.65999 86.7787 7.37759C87.198 7.09516 87.6657 6.88061 88.1799 6.73273C88.6941 6.58606 89.2436 6.51213 89.8285 6.51213ZM90.3792 16.2176C90.8519 15.9303 91.2224 15.5206 91.4903 14.9885V14.9909C91.7572 14.4576 91.8913 13.8479 91.8913 13.1351C91.8913 12.4224 91.7598 11.7994 91.4965 11.2673C91.2333 10.7339 90.8629 10.3254 90.3852 10.0382C89.9078 9.75091 89.3923 9.60787 88.7672 9.60787C88.1421 9.60787 87.5914 9.75575 87.1187 10.0503C86.6446 10.3448 86.2791 10.7618 86.0196 11.2976C85.7602 11.8333 85.6311 12.4418 85.6311 13.1461C85.6311 13.8503 85.7626 14.4661 86.0258 14.9945C86.289 15.523 86.6556 15.9315 87.1247 16.2176C87.594 16.5048 88.1458 16.6479 88.7549 16.6479C89.3643 16.6479 89.9052 16.5048 90.3792 16.2176Z" fill="white"/>
<path fill-rule="evenodd" clip-rule="evenodd" d="M106.091 8.35593H106.017C105.728 7.97047 105.378 7.64199 104.966 7.36683C104.554 7.09291 104.095 6.88199 103.589 6.73411C103.082 6.58623 102.538 6.5135 101.953 6.5135C100.816 6.5135 99.8183 6.79473 98.9581 7.35472C98.098 7.91594 97.4304 8.7026 96.9574 9.71352C96.4836 10.7256 96.2473 11.8699 96.2473 13.1474C96.2473 14.425 96.4896 15.6359 96.9757 16.6311C97.4619 17.6262 98.1345 18.3923 98.9947 18.9281C99.855 19.4638 100.828 19.7329 101.915 19.7329C102.483 19.7329 103.02 19.6614 103.527 19.5184C104.034 19.3753 104.498 19.1668 104.922 18.8917C105.346 18.6178 105.711 18.2832 106.015 17.8905H106.102V19.4505H109.671V6.79473H106.09V8.35473L106.091 8.35593ZM105.757 14.9959C105.494 15.5244 105.125 15.9317 104.652 16.219C104.178 16.5062 103.633 16.6493 103.015 16.6493C102.398 16.6493 101.877 16.5062 101.404 16.219C100.93 15.9329 100.558 15.5232 100.286 14.9899C100.014 14.4578 99.878 13.8396 99.878 13.1341C99.878 12.4287 100.01 11.7996 100.273 11.2662C100.536 10.7341 100.906 10.3244 101.384 10.0372C101.862 9.75108 102.4 9.60684 103.002 9.60684C103.604 9.60684 104.179 9.75472 104.657 10.0493C105.134 10.3438 105.502 10.7596 105.762 11.2965C106.021 11.8335 106.15 12.4493 106.15 13.145C106.15 13.8408 106.019 14.4662 105.756 14.9935L105.757 14.9959Z" fill="white"/>
<path d="M117.473 13.318L119.659 6.78224H123.339L117.771 21.1701C117.383 22.1846 116.789 22.9494 115.986 23.4609C115.183 23.9726 114.069 24.2283 112.645 24.2283H111.298V21.3532H112.645C113.195 21.3532 113.628 21.2732 113.941 21.1132C114.254 20.9544 114.5 20.6732 114.682 20.272L115.016 19.4732L110.026 6.78224H113.694L115.942 13.318C116.155 13.9738 116.406 14.7556 116.695 15.6647H116.757C117.029 14.7641 117.267 13.981 117.473 13.318Z" fill="white"/>
<path d="M169.967 0.5H140.529C133.883 0.5 128.496 5.87258 128.496 12.5C128.496 19.1274 133.883 24.5 140.529 24.5H169.967C176.613 24.5 182 19.1274 182 12.5C182 5.87258 176.613 0.5 169.967 0.5Z" fill="#3A3D3D"/>
<path d="M138.624 16.5714V7.91943H141.657C144.015 7.91943 146.193 9.22743 146.193 12.2394C146.193 15.2634 144.015 16.5714 141.657 16.5714H138.624ZM141.416 14.7354C142.74 14.7354 144.051 14.1594 144.051 12.2394C144.051 10.3314 142.74 9.75543 141.416 9.75543H140.718V14.7354H141.416ZM151.342 16.6674C148.743 16.6674 146.83 14.7834 146.83 12.2394C146.83 9.70743 148.743 7.82343 151.342 7.82343C153.905 7.82343 155.806 9.69543 155.806 12.2394C155.806 14.7954 153.905 16.6674 151.342 16.6674ZM151.33 14.8434C152.69 14.8434 153.664 13.7274 153.664 12.2394C153.664 10.7634 152.69 9.64743 151.33 9.64743C149.946 9.64743 148.972 10.7634 148.972 12.2394C148.972 13.7274 149.946 14.8434 151.33 14.8434ZM160.834 16.6674C158.44 16.6674 156.442 15.1434 156.442 12.2394C156.442 9.34743 158.488 7.82343 160.834 7.82343C163.061 7.82343 164.697 9.01143 164.914 11.1114H162.663C162.483 10.2834 161.737 9.64743 160.822 9.64743C159.607 9.64743 158.584 10.5474 158.584 12.2394C158.584 13.9434 159.595 14.8434 160.822 14.8434C161.761 14.8434 162.483 14.2794 162.651 13.3314H164.938C164.625 15.6234 162.904 16.6674 160.834 16.6674ZM168.885 16.6554C166.815 16.6554 165.419 15.4074 165.347 13.4874H167.404C167.465 14.2314 168.09 14.8314 168.885 14.8314C169.558 14.8314 170.028 14.5194 170.028 14.0514C170.028 13.6434 169.679 13.4034 169.209 13.2714L168.006 12.9474C166.731 12.5994 165.672 11.9514 165.672 10.2834C165.672 8.85543 166.983 7.81143 168.776 7.81143C170.75 7.81143 172.073 8.89143 172.146 10.5594H170.1C170.016 10.1274 169.546 9.63543 168.776 9.63543C168.187 9.63543 167.814 9.86343 167.814 10.2714C167.814 10.6314 168.102 10.8114 168.548 10.9314L169.751 11.2674C171.038 11.6274 172.17 12.1794 172.17 13.9914C172.17 15.5994 170.87 16.6554 168.885 16.6554Z" fill="white"/>
</svg>
