<svg width="40" height="40" viewBox="0 0 40 40" fill="none" xmlns="http://www.w3.org/2000/svg">
<g clip-path="url(#clip0_4010_13689)">
<path d="M27.8125 0H12.1875C5.45653 0 0 5.45653 0 12.1875V27.8125C0 34.5435 5.45653 40 12.1875 40H27.8125C34.5435 40 40 34.5435 40 27.8125V12.1875C40 5.45653 34.5435 0 27.8125 0Z" fill="white"/>
<path d="M27.2543 13.75H27.3752C29.6878 13.75 31.5613 15.6402 31.5625 17.9707V25.9936H28.268V17.7557C28.268 17.1751 27.8016 16.7037 27.2246 16.7037H27.1938C26.7115 16.7037 26.293 17.0359 26.1789 17.5073L24.6623 23.8034C24.3168 25.2382 23.043 26.2488 21.5788 26.25C19.8227 26.2512 18.3984 24.8174 18.3984 23.0468V17.7523C18.3984 17.1728 17.932 16.7025 17.3573 16.7025C16.8772 16.7025 16.4587 17.0348 16.3458 17.5051L14.8416 23.7481C14.4881 25.2152 13.1859 26.2488 11.6886 26.25C9.89375 26.2523 8.4375 24.7852 8.4375 22.9755V13.9972H11.765V23.5458H11.7947L13.3352 17.0544C13.7595 15.1239 15.4574 13.75 17.4177 13.75C19.7269 13.75 21.5993 15.6379 21.5982 17.9649V23.5458H21.6278L23.1673 17.0578C23.5927 15.1251 25.2917 13.75 27.2543 13.75Z" fill="#12282F"/>
</g>
<defs>
<clipPath id="clip0_4010_13689">
<rect width="40" height="40" fill="white"/>
</clipPath>
</defs>
</svg>
