<svg width="949" height="344" fill="none" xmlns="http://www.w3.org/2000/svg"><g clip-path="url(#a)"><g filter="url(#b)"><rect x="821" y="275.79" width="128" height="68" rx="12" fill="#E0DBE1"/><rect x="845" y="293.79" width="80" height="32" rx="4" fill="#FF9F9F"/><path d="M859.22 314.8v-10.96h6.8v1.74h-4.96v2.93h4.58v1.74h-4.55v4.54h-1.87Zm8.32 0 2.76-10.96h2.41l2.78 10.95h-1.92l-.6-2.65h-2.91l-.6 2.65h-1.92Zm2.86-4.2h2.22l-.66-2.93a73.7 73.7 0 0 1-.45-2.2 30.98 30.98 0 0 1-.45 2.18l-.66 2.96Zm6.96 4.2v-1.66h2.2v-7.65h-2.2v-1.65h6.3v1.65h-2.2v7.65h2.2v1.65h-6.3Zm9.18 0v-10.96h1.88v9.21h4.65v1.74h-6.53Zm8.77 0v-10.96h6.57v1.64h-4.72v2.85h4.2v1.62h-4.2v3.2h4.72v1.64h-6.57Zm8.8 0v-10.96h3.26c.74 0 1.38.14 1.92.42.55.28.97.68 1.27 1.19.3.5.45 1.11.45 1.81v4.1c0 .69-.15 1.3-.45 1.81-.3.51-.72.91-1.27 1.2-.54.28-1.18.42-1.92.42h-3.26Zm1.88-1.73h1.38c.54 0 .97-.15 1.29-.45.32-.31.48-.73.48-1.26v-4.1c0-.52-.16-.93-.48-1.23a1.78 1.78 0 0 0-1.3-.46H906v7.5Z" fill="#28188A"/></g><g filter="url(#c)"><rect x="821" y="139.79" width="128" height="68" rx="12" fill="#E0DBE1"/><rect x="845" y="157.79" width="80" height="32" rx="4" fill="#F5F3F5"/><path d="M862.58 178.94c-.7 0-1.32-.13-1.85-.39a3 3 0 0 1-1.21-1.12 3.42 3.42 0 0 1-.42-1.73v-4.77a2.9 2.9 0 0 1 1.63-2.84c.53-.26 1.15-.4 1.85-.4.7 0 1.32.14 1.83.4.52.27.92.64 1.21 1.12.3.48.44 1.05.44 1.72h-1.9c0-.52-.13-.91-.41-1.18-.27-.27-.66-.4-1.17-.4-.51 0-.9.13-1.19.4-.28.27-.42.66-.42 1.17v4.78c0 .51.14.9.42 1.19.28.27.68.4 1.19.4.5 0 .9-.13 1.17-.4.28-.28.42-.68.42-1.19h1.89a3.3 3.3 0 0 1-.44 1.71c-.29.5-.7.87-1.21 1.14-.51.26-1.12.4-1.83.4Zm5.98-.15v-10.95h1.87v9.21h4.65v1.74h-6.52Zm11.95.15c-.7 0-1.31-.13-1.83-.39-.51-.27-.9-.64-1.19-1.12a3.52 3.52 0 0 1-.4-1.73v-4.77c0-.66.13-1.23.4-1.7a2.8 2.8 0 0 1 1.19-1.13c.52-.27 1.13-.4 1.83-.4.7 0 1.32.13 1.83.4.5.26.9.63 1.17 1.12.28.48.42 1.05.42 1.7v4.78c0 .66-.14 1.24-.42 1.73-.27.48-.66.85-1.17 1.12-.51.26-1.12.4-1.83.4Zm0-1.65c.5 0 .9-.13 1.15-.4.26-.28.4-.68.4-1.19v-4.77c0-.52-.14-.91-.4-1.18-.26-.27-.64-.4-1.15-.4-.51 0-.9.13-1.16.4-.26.27-.39.66-.39 1.18v4.77c0 .51.13.9.4 1.19.26.27.65.4 1.15.4Zm9.02 1.65c-.75 0-1.4-.12-1.95-.37s-.98-.6-1.28-1.07a3.18 3.18 0 0 1-.44-1.65h1.87c0 .45.16.8.48 1.07.33.25.77.37 1.33.37.55 0 .97-.12 1.26-.37.32-.25.47-.6.47-1.04a1.57 1.57 0 0 0-1.25-1.53l-1.26-.34a3.67 3.67 0 0 1-1.99-1.19 3.2 3.2 0 0 1-.69-2.07c0-.62.14-1.16.42-1.62.28-.46.67-.81 1.18-1.06a4.18 4.18 0 0 1 1.84-.38c1.06 0 1.9.28 2.51.83.63.54.94 1.27.95 2.19h-1.88c0-.43-.13-.77-.42-1a1.72 1.72 0 0 0-1.18-.38c-.49 0-.87.11-1.14.34-.27.23-.4.56-.4.98 0 .38.1.7.3.97.2.26.5.45.9.56l1.3.36a3.6 3.6 0 0 1 2 1.18c.45.56.68 1.26.68 2.09 0 .62-.14 1.17-.44 1.65a3 3 0 0 1-1.27 1.1c-.53.25-1.17.38-1.9.38Zm5.78-.15v-10.95h6.57v1.64h-4.72v2.85h4.2v1.62h-4.2v3.2h4.72v1.64h-6.57Zm8.8 0v-10.95h3.26c.74 0 1.38.14 1.92.42.55.28.97.68 1.27 1.19.3.5.45 1.11.45 1.81v4.1c0 .69-.15 1.3-.45 1.81-.3.51-.72.91-1.27 1.2-.54.28-1.18.42-1.92.42h-3.26Zm1.88-1.72h1.38c.54 0 .97-.15 1.29-.45.32-.31.48-.73.48-1.26v-4.1c0-.52-.16-.93-.48-1.23a1.78 1.78 0 0 0-1.3-.46H906v7.5Z" fill="#2D0F37"/></g><g filter="url(#d)"><rect x="605" y="139.79" width="128" height="68" rx="12" fill="#E0DBE1"/><rect x="629" y="157.79" width="80" height="32" rx="4" fill="#89E481"/><path d="m642.54 178.8 2.76-10.96h2.42l2.77 10.95h-1.92l-.6-2.65h-2.9l-.6 2.65h-1.93Zm2.87-4.2h2.22l-.66-2.93a73.7 73.7 0 0 1-.45-2.2 30.98 30.98 0 0 1-.45 2.18l-.66 2.96Zm10.16 4.34c-.7 0-1.31-.13-1.84-.39a3 3 0 0 1-1.22-1.12 3.42 3.42 0 0 1-.42-1.73v-4.77a2.9 2.9 0 0 1 1.63-2.84c.54-.26 1.15-.4 1.85-.4.71 0 1.32.14 1.83.4.52.27.93.64 1.22 1.12.29.48.43 1.05.43 1.72h-1.89c0-.52-.14-.91-.42-1.18-.27-.27-.66-.4-1.17-.4-.5 0-.9.13-1.18.4-.28.27-.42.66-.42 1.17v4.78c0 .51.14.9.42 1.19.28.27.67.4 1.18.4.51 0 .9-.13 1.17-.4.28-.28.42-.68.42-1.19h1.9a3.3 3.3 0 0 1-.44 1.71c-.3.5-.7.87-1.22 1.14-.5.26-1.12.4-1.83.4Zm8-.15v-9.2h-2.87v-1.75h7.62v1.74h-2.87v9.21h-1.89Zm6.78 0v-1.65h2.2v-7.65h-2.2v-1.65h6.3v1.65h-2.2v7.65h2.2v1.65h-6.3Zm10.93 0-2.76-10.95h1.95l1.65 7.14a21.3 21.3 0 0 1 .43 2.1 70.66 70.66 0 0 1 .4-2.11l1.63-7.13h1.89l-2.76 10.95h-2.43Zm7.03 0v-10.95h6.57v1.64h-4.73v2.85h4.2v1.62h-4.2v3.2h4.73v1.64h-6.57Z" fill="#081F34"/></g><g filter="url(#e)"><rect x="389" y="139.79" width="128" height="68" rx="12" fill="#E0DBE1"/><rect x="413" y="157.79" width="80" height="32" rx="4" fill="#FFD260"/><path d="M422.68 178.8v-10.96h3.64c.73 0 1.37.14 1.9.42.56.28.98.68 1.28 1.19.3.5.45 1.09.45 1.77 0 .67-.15 1.26-.46 1.77-.3.5-.72.9-1.26 1.18-.54.28-1.18.42-1.9.42h-1.78v4.2h-1.87Zm1.87-5.9h1.77c.52 0 .94-.15 1.25-.45.32-.31.48-.72.48-1.23 0-.52-.16-.93-.48-1.23-.31-.3-.73-.45-1.25-.45h-1.77v3.36Zm7.28 5.9v-10.96h6.57v1.64h-4.72v2.85h4.2v1.62h-4.2v3.2h4.72v1.64h-6.56Zm8.76 0v-10.96h2.3l3.04 8.85-.1-1.12a56.51 56.51 0 0 1-.11-2.54v-5.19h1.7v10.95h-2.29l-3.01-8.85a257.31 257.31 0 0 0 .15 2.31l.03 1.19v5.35h-1.71Zm9.04 0v-10.96h3.25c.74 0 1.38.14 1.92.42.55.28.98.68 1.28 1.19.3.5.45 1.11.45 1.81v4.1c0 .69-.15 1.3-.45 1.81-.3.51-.73.91-1.28 1.2-.54.28-1.18.42-1.92.42h-3.25Zm1.87-1.73h1.38c.54 0 .97-.15 1.3-.45.31-.31.47-.73.47-1.26v-4.1c0-.52-.16-.93-.48-1.23a1.78 1.78 0 0 0-1.29-.46h-1.38v7.5Zm7.35 1.72v-1.65h2.2v-7.65h-2.2v-1.65h6.3v1.65h-2.2v7.65h2.2v1.65h-6.3Zm8.72 0v-10.95h2.3l3.04 8.85-.1-1.12a56.51 56.51 0 0 1-.1-2.54v-5.19h1.7v10.95h-2.3l-3-8.85a257.31 257.31 0 0 0 .14 2.31l.03 1.19v5.35h-1.7Zm12.48.15c-.7 0-1.32-.13-1.85-.39a3 3 0 0 1-1.21-1.12 3.42 3.42 0 0 1-.43-1.73v-4.77c0-.67.14-1.24.43-1.72.28-.48.69-.85 1.21-1.11.53-.27 1.15-.4 1.85-.4.7 0 1.31.13 1.82.4.52.26.93.63 1.22 1.1.29.49.44 1.06.44 1.73h-1.9c0-.52-.13-.91-.42-1.18-.26-.27-.65-.4-1.16-.4-.51 0-.91.13-1.19.4-.28.27-.42.66-.42 1.17v4.78c0 .51.14.9.42 1.19.28.28.68.42 1.19.42.5 0 .9-.14 1.16-.42.29-.28.43-.68.43-1.19v-1.1h-1.87v-1.63h3.75v2.73a3 3 0 0 1-1.65 2.85c-.5.26-1.11.4-1.82.4Z" fill="#370971"/></g><g filter="url(#f)"><rect x="605" y="-.21" width="128" height="68" rx="12" fill="#E0DBE1"/><rect x="629" y="17.79" width="80" height="32" rx="4" fill="#F5C1AE"/><path d="M638.68 38.8V27.83h3.36c1.06 0 1.9.26 2.52.77.62.5.93 1.18.93 2.05a2.28 2.28 0 0 1-1.23 2.12c-.37.2-.8.3-1.3.3v-.06c.54-.01 1 .09 1.42.3.42.2.75.5.99.9.25.4.37.88.37 1.45 0 .63-.14 1.18-.43 1.65-.3.47-.7.84-1.23 1.1a4.3 4.3 0 0 1-1.88.37h-3.52Zm1.83-1.57h1.57c.55 0 .98-.14 1.3-.43.31-.3.47-.7.47-1.22 0-.5-.16-.92-.48-1.23a1.71 1.71 0 0 0-1.29-.48h-1.57v3.36Zm0-4.87h1.5c.5 0 .89-.13 1.17-.4.29-.26.43-.63.43-1.09 0-.46-.14-.82-.43-1.08a1.65 1.65 0 0 0-1.17-.39h-1.5v2.96Zm7.55 6.43V27.84h1.88v9.21h4.64v1.74h-6.52Zm11.95.15c-.7 0-1.31-.13-1.83-.39-.51-.27-.9-.64-1.19-1.12a3.52 3.52 0 0 1-.4-1.73v-4.77c0-.66.13-1.23.4-1.7a2.8 2.8 0 0 1 1.19-1.13c.52-.27 1.13-.4 1.83-.4.7 0 1.32.13 1.83.4.5.26.9.63 1.17 1.12.28.48.42 1.05.42 1.7v4.78c0 .66-.14 1.24-.42 1.73-.27.48-.66.85-1.17 1.12-.51.26-1.12.4-1.83.4Zm0-1.65c.5 0 .9-.13 1.15-.4.26-.28.4-.68.4-1.19v-4.77c0-.52-.14-.91-.4-1.18-.26-.27-.64-.4-1.15-.4-.51 0-.9.13-1.16.4-.26.27-.39.66-.39 1.18v4.77c0 .51.13.9.4 1.19.26.27.65.4 1.15.4Zm9.05 1.65c-.7 0-1.31-.13-1.84-.39a3 3 0 0 1-1.22-1.12 3.42 3.42 0 0 1-.42-1.73v-4.77a2.9 2.9 0 0 1 1.63-2.84c.54-.26 1.15-.4 1.85-.4.71 0 1.32.14 1.83.4.52.27.93.64 1.22 1.12.29.48.43 1.05.43 1.72h-1.89c0-.52-.14-.91-.42-1.18-.27-.27-.66-.4-1.17-.4-.5 0-.9.13-1.18.4-.28.27-.42.66-.42 1.17v4.78c0 .51.14.9.42 1.19.28.27.67.4 1.18.4.51 0 .9-.13 1.17-.4.28-.28.42-.68.42-1.19h1.9a3.3 3.3 0 0 1-.44 1.71c-.3.5-.7.87-1.22 1.14-.5.26-1.12.4-1.83.4Zm5.58-.15V27.84h1.87v4.43h1.3l2.06-4.43h2.04l-2.44 5.25 2.56 5.7h-2.08l-2.16-4.81h-1.28v4.81h-1.87Zm9.17 0V27.84h6.57v1.64h-4.72v2.85h4.2v1.62h-4.2v3.2h4.72v1.64h-6.57Zm8.8 0V27.84h3.25c.75 0 1.38.14 1.92.42.56.28.98.68 1.28 1.19.3.5.45 1.11.45 1.81v4.1c0 .69-.15 1.3-.45 1.81-.3.51-.72.91-1.27 1.2-.54.28-1.18.42-1.92.42h-3.26Zm1.88-1.72h1.38c.53 0 .97-.15 1.28-.45.33-.31.49-.73.49-1.26v-4.1c0-.52-.16-.93-.49-1.23a1.78 1.78 0 0 0-1.28-.46h-1.38v7.5Z" fill="#540000"/></g><g filter="url(#g)"><rect y="145.79" width="301" height="56" rx="12" fill="#2D0F37"/><path d="M25.3 180.8v-13.1h4.9c1 0 1.85.19 2.53.56.69.38 1.2.9 1.55 1.55.36.65.54 1.4.54 2.22 0 .84-.18 1.59-.54 2.24a3.8 3.8 0 0 1-1.56 1.54c-.7.37-1.54.56-2.55.56H26.9v-1.95h2.94a3 3 0 0 0 1.44-.3c.38-.21.66-.5.83-.85.19-.36.28-.77.28-1.24 0-.46-.1-.87-.28-1.22a1.87 1.87 0 0 0-.83-.83c-.38-.2-.86-.3-1.45-.3h-2.18v11.11H25.3Zm23.27-6.55a7.7 7.7 0 0 1-.79 3.62 5.62 5.62 0 0 1-5.22 3.1 5.97 5.97 0 0 1-3.08-.8 5.71 5.71 0 0 1-2.15-2.3c-.53-1.01-.79-2.22-.79-3.62 0-1.41.26-2.62.79-3.62a5.66 5.66 0 0 1 5.23-3.1 5.6 5.6 0 0 1 5.22 3.1c.53 1 .8 2.2.8 3.62Zm-2.38 0c0-1-.16-1.84-.47-2.52-.3-.68-.73-1.2-1.28-1.55a3.4 3.4 0 0 0-1.88-.53 3.4 3.4 0 0 0-1.89.53 3.5 3.5 0 0 0-1.28 1.55c-.31.69-.46 1.52-.46 2.52 0 .99.15 1.83.46 2.51.3.69.74 1.2 1.28 1.56.55.35 1.18.52 1.89.52.7 0 1.34-.17 1.88-.52a3.5 3.5 0 0 0 1.28-1.56c.31-.68.47-1.52.47-2.51Zm11.74-2.95c-.06-.56-.31-1-.76-1.3a2.9 2.9 0 0 0-1.7-.47c-.5 0-.93.07-1.28.22s-.62.35-.81.6a1.48 1.48 0 0 0-.1 1.6c.12.2.3.37.51.5.22.14.46.26.73.35.26.1.53.17.8.24l1.22.3c.5.12.97.28 1.43.47.46.2.87.44 1.23.74.37.3.66.66.87 1.08.21.43.32.92.32 1.49a3.55 3.55 0 0 1-2.29 3.38c-.74.33-1.63.49-2.68.49-1.02 0-1.9-.16-2.65-.47a3.94 3.94 0 0 1-1.75-1.39 4.09 4.09 0 0 1-.68-2.2h2.33a1.98 1.98 0 0 0 1.4 1.8c.4.16.84.23 1.33.23.52 0 .97-.07 1.36-.23.4-.16.7-.37.92-.65.22-.28.33-.6.34-.98 0-.34-.1-.63-.3-.85a2.2 2.2 0 0 0-.83-.56 7.96 7.96 0 0 0-1.22-.4l-1.5-.4a6 6 0 0 1-2.55-1.25 2.9 2.9 0 0 1-.93-2.26c0-.77.2-1.44.62-2.02.43-.58 1-1.03 1.72-1.35a5.97 5.97 0 0 1 2.46-.49c.93 0 1.75.16 2.45.49.7.32 1.25.76 1.65 1.33.4.57.6 1.22.62 1.96h-2.28Zm4-1.61v-1.99h10.44v1.99h-4.04v11.1h-2.36v-11.1h-4.04Zm28.13 2.43h-2.4a2.98 2.98 0 0 0-1.05-1.83 2.84 2.84 0 0 0-.94-.47 3.64 3.64 0 0 0-1.12-.17 3.39 3.39 0 0 0-3.18 2.1 6 6 0 0 0-.47 2.5c0 1 .16 1.84.47 2.53.32.68.75 1.2 1.3 1.54a3.82 3.82 0 0 0 2.99.36 3.01 3.01 0 0 0 1.61-1.21c.2-.3.32-.64.4-1.03l2.39.02a5.16 5.16 0 0 1-3.42 4.16c-.64.23-1.35.35-2.12.35a5.58 5.58 0 0 1-5.22-3.1c-.52-1.01-.78-2.22-.78-3.62 0-1.41.26-2.62.79-3.62a5.62 5.62 0 0 1 5.2-3.1c.73 0 1.41.1 2.04.3.62.2 1.18.5 1.67.9.5.4.9.87 1.21 1.44.32.57.53 1.22.63 1.95Zm2.07 8.67v-9.82h2.24v1.64h.1a2.45 2.45 0 0 1 2.42-1.78 5.73 5.73 0 0 1 .84.07v2.13a4.27 4.27 0 0 0-1.07-.14c-.43 0-.8.1-1.15.27a2.02 2.02 0 0 0-1.07 1.86v5.77h-2.31Zm11.08.2c-.99 0-1.84-.21-2.55-.62-.72-.41-1.26-1-1.65-1.75a5.87 5.87 0 0 1-.57-2.68c0-1.01.19-1.9.57-2.66a4.35 4.35 0 0 1 4.07-2.44c.6 0 1.18.1 1.72.3.54.2 1.02.49 1.43.9.42.4.74.91.98 1.54.24.62.36 1.36.36 2.22v.71h-8.05v-1.55h5.83c0-.45-.1-.84-.28-1.19a2.09 2.09 0 0 0-.8-.82c-.32-.2-.71-.3-1.15-.3-.48 0-.9.11-1.25.34-.36.23-.64.53-.84.9-.2.36-.3.77-.3 1.2v1.37c0 .57.1 1.06.31 1.47.21.4.5.71.88.93.38.21.81.32 1.32.32.33 0 .64-.05.91-.14.27-.1.51-.24.71-.43.2-.19.35-.42.45-.7l2.16.25c-.13.57-.4 1.07-.78 1.5a3.8 3.8 0 0 1-1.45.98c-.6.23-1.27.34-2.03.34Zm9.14 0a4.1 4.1 0 0 1-1.68-.33c-.5-.23-.88-.56-1.17-1a2.91 2.91 0 0 1-.43-1.62c0-.56.1-1.02.3-1.38.21-.36.49-.65.84-.87.36-.22.76-.38 1.2-.49.45-.12.9-.2 1.39-.25a55.7 55.7 0 0 0 1.4-.16c.35-.05.61-.13.77-.23.17-.1.25-.27.25-.5v-.03c0-.48-.14-.85-.42-1.12-.29-.26-.7-.4-1.24-.4-.56 0-1.01.13-1.35.38-.32.24-.55.53-.66.87l-2.16-.3a3.46 3.46 0 0 1 2.28-2.4 6.12 6.12 0 0 1 3.3-.14c.46.1.89.29 1.28.54.39.25.7.6.93 1.03.24.44.36.98.36 1.63v6.57h-2.23v-1.35h-.07a2.81 2.81 0 0 1-1.55 1.34c-.38.14-.83.2-1.34.2Zm.6-1.7c.47 0 .87-.1 1.21-.28.34-.18.6-.43.79-.74.19-.3.28-.64.28-1v-1.16c-.07.06-.2.12-.37.17a16.92 16.92 0 0 1-1.75.31c-.35.05-.66.13-.93.23s-.49.26-.64.45a1.1 1.1 0 0 0-.24.73c0 .42.16.75.47.96.3.22.7.33 1.19.33Zm11.82-8.32v1.8h-5.65v-1.8h5.65Zm-4.25-2.35h2.31v9.22c0 .3.05.55.14.71.1.17.23.28.39.34.15.06.33.09.52.09a2.28 2.28 0 0 0 .68-.1l.39 1.81a4.97 4.97 0 0 1-1.37.24c-.58.01-1.1-.08-1.56-.27-.47-.2-.83-.5-1.1-.9a2.7 2.7 0 0 1-.4-1.54v-9.6Zm10.42 12.36c-.98 0-1.83-.2-2.55-.61-.7-.41-1.26-1-1.64-1.75a5.86 5.86 0 0 1-.58-2.68c0-1.01.2-1.9.58-2.66a4.35 4.35 0 0 1 4.07-2.44c.6 0 1.18.1 1.72.3.54.2 1.01.49 1.43.9.41.4.74.91.98 1.54.24.62.36 1.36.36 2.22v.71h-8.05v-1.55h5.83c0-.45-.1-.84-.29-1.19a2.1 2.1 0 0 0-.78-.82c-.34-.2-.72-.3-1.17-.3-.47 0-.88.11-1.24.34-.36.23-.64.53-.84.9-.2.36-.3.77-.3 1.2v1.37c0 .57.1 1.06.31 1.47.21.4.5.71.88.93.37.21.81.32 1.32.32.33 0 .64-.05.91-.14.27-.1.5-.24.7-.43.21-.19.36-.42.46-.7l2.16.25c-.13.57-.4 1.07-.78 1.5a3.8 3.8 0 0 1-1.45.98c-.6.23-1.27.34-2.04.34Zm12.65-13.28 3.4 10.3h.14l3.4-10.3h2.6l-4.61 13.1h-2.93l-4.6-13.1h2.6Zm11.17 13.1v-9.83h2.31v9.82h-2.31Zm1.16-11.22c-.37 0-.68-.12-.94-.37-.27-.24-.4-.54-.4-.88 0-.35.13-.65.4-.9.26-.24.57-.36.94-.36s.69.12.95.37c.26.24.4.54.4.89 0 .34-.14.64-.4.88-.26.25-.58.37-.95.37Zm3.53 11.21v-9.82h2.24v1.64h.1a2.44 2.44 0 0 1 2.43-1.78 5.7 5.7 0 0 1 .83.07v2.13a4.26 4.26 0 0 0-1.07-.14c-.43 0-.8.1-1.14.27a2.02 2.02 0 0 0-1.08 1.86v5.77h-2.3Zm12.57-9.82v1.8h-5.65v-1.8h5.65Zm-4.25-2.35h2.31v9.22c0 .3.05.55.14.71.1.17.23.28.38.34.16.06.34.09.53.09a2.28 2.28 0 0 0 .68-.1l.39 1.81a4.97 4.97 0 0 1-1.36.24c-.59.01-1.1-.08-1.57-.27-.47-.2-.83-.5-1.1-.9a2.7 2.7 0 0 1-.4-1.54v-9.6Zm12.44 8.04v-5.69h2.31v9.82h-2.24v-1.74h-.1c-.22.55-.59 1-1.1 1.34-.5.35-1.12.53-1.86.53a2.98 2.98 0 0 1-2.86-1.69 4.45 4.45 0 0 1-.4-2v-6.26h2.3v5.9c0 .62.18 1.11.52 1.48.34.37.79.55 1.34.55.34 0 .67-.08 1-.25.31-.17.57-.41.78-.74.2-.33.31-.75.31-1.25Zm7.52 4.33a4.1 4.1 0 0 1-1.68-.33c-.5-.23-.89-.56-1.18-1a2.91 2.91 0 0 1-.43-1.62c0-.56.1-1.02.31-1.38.2-.36.48-.65.84-.87.35-.22.75-.38 1.2-.49.44-.12.9-.2 1.38-.25a55.7 55.7 0 0 0 1.4-.16c.36-.05.62-.13.78-.23.17-.1.25-.27.25-.5v-.03c0-.48-.14-.85-.43-1.12-.28-.26-.7-.4-1.23-.4-.57 0-1.02.13-1.35.38-.33.24-.55.53-.67.87l-2.16-.3a3.46 3.46 0 0 1 2.28-2.4 6.12 6.12 0 0 1 3.3-.14c.47.1.9.29 1.28.54.39.25.7.6.94 1.03.23.44.35.98.35 1.63v6.57h-2.22v-1.35h-.08a2.81 2.81 0 0 1-1.55 1.34c-.37.14-.82.2-1.33.2Zm.6-1.7c.46 0 .87-.1 1.2-.28.35-.18.61-.43.8-.74.18-.3.27-.64.27-1v-1.16c-.07.06-.2.12-.36.17a16.92 16.92 0 0 1-1.75.31c-.35.05-.66.13-.93.23-.28.1-.5.26-.65.45a1.1 1.1 0 0 0-.24.73c0 .42.16.75.47.96.31.22.7.33 1.19.33Zm9.22-11.59v13.1h-2.31v-13.1h2.31Zm8.63 13.1h-2.53l4.6-13.1h2.94l4.61 13.1h-2.53l-3.5-10.42h-.1l-3.49 10.41Zm.08-5.14h6.9v1.9h-6.9v-1.9Zm15.15 5.32a4.3 4.3 0 0 1-4.14-2.43 5.9 5.9 0 0 1-.57-2.63c0-1 .2-1.88.58-2.64a4.3 4.3 0 0 1 1.62-1.79c.7-.43 1.54-.65 2.5-.65.8 0 1.5.15 2.11.45a3.62 3.62 0 0 1 2.1 3.08h-2.2a2.1 2.1 0 0 0-.65-1.18 1.84 1.84 0 0 0-1.33-.48c-.48 0-.9.13-1.25.38-.36.26-.64.62-.84 1.1-.2.47-.3 1.03-.3 1.7 0 .66.1 1.24.3 1.72.2.47.47.84.83 1.1.36.26.78.39 1.26.39.34 0 .64-.07.91-.2s.5-.32.68-.56c.19-.25.31-.55.38-.9h2.21a3.62 3.62 0 0 1-2.06 3.1c-.6.3-1.32.44-2.14.44Zm10.39 0a4.3 4.3 0 0 1-4.14-2.43 5.9 5.9 0 0 1-.57-2.63c0-1 .2-1.88.58-2.64.38-.77.92-1.36 1.62-1.79.7-.43 1.53-.65 2.5-.65.79 0 1.5.15 2.1.45a3.6 3.6 0 0 1 2.11 3.08h-2.21a2.1 2.1 0 0 0-.64-1.18 1.84 1.84 0 0 0-1.34-.48c-.47 0-.88.13-1.24.38-.36.26-.64.62-.84 1.1-.2.47-.3 1.03-.3 1.7 0 .66.1 1.24.3 1.72.2.47.47.84.83 1.1.35.26.77.39 1.25.39.35 0 .65-.07.92-.2s.5-.32.68-.56c.19-.25.31-.55.38-.9H236a3.63 3.63 0 0 1-2.06 3.1c-.6.3-1.32.44-2.14.44Zm10.38 0c-.95 0-1.78-.2-2.49-.63a4.3 4.3 0 0 1-1.63-1.77 5.83 5.83 0 0 1-.58-2.66c0-1.01.2-1.9.58-2.66.38-.77.93-1.36 1.63-1.78.7-.42 1.54-.63 2.5-.63.95 0 1.78.2 2.49.63.7.42 1.24 1.01 1.63 1.78.38.76.58 1.65.58 2.66 0 1.01-.2 1.9-.58 2.66a4.24 4.24 0 0 1-1.63 1.77c-.7.42-1.54.63-2.5.63Zm.02-1.85a2 2 0 0 0 1.3-.43c.35-.29.61-.68.78-1.16.18-.49.26-1.03.26-1.63 0-.6-.08-1.14-.26-1.63a2.57 2.57 0 0 0-.78-1.17 1.97 1.97 0 0 0-1.3-.43c-.53 0-.98.14-1.33.43-.35.3-.61.68-.79 1.17a4.91 4.91 0 0 0-.25 1.63c0 .6.08 1.14.25 1.63.18.48.44.87.79 1.16.35.29.8.43 1.33.43Zm12.91-2.47v-5.69h2.31v9.82h-2.24v-1.74h-.1c-.22.55-.59 1-1.1 1.34-.5.35-1.12.53-1.85.53a2.98 2.98 0 0 1-2.86-1.69 4.45 4.45 0 0 1-.42-2v-6.26h2.32v5.9c0 .62.17 1.11.5 1.48.35.37.8.55 1.35.55a2.12 2.12 0 0 0 1.78-1c.2-.32.31-.74.31-1.24Zm7-1.62v5.75h-2.3v-9.82h2.2v1.67h.12a2.8 2.8 0 0 1 1.08-1.3c.5-.33 1.12-.5 1.85-.5.68 0 1.27.15 1.77.44.5.29.9.7 1.18 1.26.28.55.42 1.22.41 2v6.25h-2.31v-5.9c0-.65-.17-1.16-.51-1.53a1.8 1.8 0 0 0-1.4-.56c-.4 0-.77.09-1.08.27-.32.17-.56.43-.74.76-.18.33-.26.73-.26 1.2Zm13.57-4.07v1.8h-5.65v-1.8h5.65Zm-4.25-2.35h2.3v9.22c0 .3.06.55.15.71.1.17.23.28.38.34.16.06.34.09.53.09a2.28 2.28 0 0 0 .67-.1l.4 1.81a5.07 5.07 0 0 1-1.37.24c-.58.01-1.1-.08-1.56-.27-.47-.2-.84-.5-1.1-.9-.28-.41-.4-.92-.4-1.54v-9.6Z" fill="#fff"/></g><path d="m377 173.8-10-5.78v11.54l10-5.77Zm-64 1h55v-2h-55v2ZM593 173.8l-10-5.78v11.54l10-5.77Zm-64 1h55v-2h-55v2ZM651 79.8l-5.77 10h11.54l-5.77-10Zm1 48v-39h-2v39h2ZM684 127.8l5.77-10h-11.54l5.77 10Zm1-9v-39h-2v39h2ZM809 309.8l-10-5.78v11.55l10-5.78Zm-332 0v1-1Zm-24-24h1-1Zm347 23H477v2h323v-2Zm-346-23v-66h-2v66h2Zm23 23a23 23 0 0 1-23-23h-2a25 25 0 0 0 25 25v-2ZM809 173.8l-10-5.78v11.54l10-5.77Zm-64 1h55v-2h-55v2ZM885 127.8l5.77-10h-11.54l5.77 10Zm0-70h1-1Zm-140-23h116v-2H745v2Zm139 23v61h2v-61h-2Zm-23-23a23 23 0 0 1 23 23h2a25 25 0 0 0-25-25v2Z" fill="#2D0F37"/></g><defs><filter id="b" x="805" y="267.79" width="160" height="102" filterUnits="userSpaceOnUse" color-interpolation-filters="sRGB"><feFlood flood-opacity="0" result="BackgroundImageFix"/><feColorMatrix in="SourceAlpha" values="0 0 0 0 0 0 0 0 0 0 0 0 0 0 0 0 0 0 127 0" result="hardAlpha"/><feOffset dy="2"/><feGaussianBlur stdDeviation="3"/><feColorMatrix values="0 0 0 0 0.176471 0 0 0 0 0.0588235 0 0 0 0 0.215686 0 0 0 0.05 0"/><feBlend in2="BackgroundImageFix" result="effect1_dropShadow_45058_4509"/><feColorMatrix in="SourceAlpha" values="0 0 0 0 0 0 0 0 0 0 0 0 0 0 0 0 0 0 127 0" result="hardAlpha"/><feOffset dy="-2"/><feGaussianBlur stdDeviation="3"/><feColorMatrix values="0 0 0 0 0.176471 0 0 0 0 0.0588235 0 0 0 0 0.215686 0 0 0 0.02 0"/><feBlend in2="effect1_dropShadow_45058_4509" result="effect2_dropShadow_45058_4509"/><feColorMatrix in="SourceAlpha" values="0 0 0 0 0 0 0 0 0 0 0 0 0 0 0 0 0 0 127 0" result="hardAlpha"/><feOffset dy="10"/><feGaussianBlur stdDeviation="8"/><feColorMatrix values="0 0 0 0 0.176471 0 0 0 0 0.0588235 0 0 0 0 0.215686 0 0 0 0.05 0"/><feBlend in2="effect2_dropShadow_45058_4509" result="effect3_dropShadow_45058_4509"/><feBlend in="SourceGraphic" in2="effect3_dropShadow_45058_4509" result="shape"/></filter><filter id="c" x="805" y="131.79" width="160" height="102" filterUnits="userSpaceOnUse" color-interpolation-filters="sRGB"><feFlood flood-opacity="0" result="BackgroundImageFix"/><feColorMatrix in="SourceAlpha" values="0 0 0 0 0 0 0 0 0 0 0 0 0 0 0 0 0 0 127 0" result="hardAlpha"/><feOffset dy="2"/><feGaussianBlur stdDeviation="3"/><feColorMatrix values="0 0 0 0 0.176471 0 0 0 0 0.0588235 0 0 0 0 0.215686 0 0 0 0.05 0"/><feBlend in2="BackgroundImageFix" result="effect1_dropShadow_45058_4509"/><feColorMatrix in="SourceAlpha" values="0 0 0 0 0 0 0 0 0 0 0 0 0 0 0 0 0 0 127 0" result="hardAlpha"/><feOffset dy="-2"/><feGaussianBlur stdDeviation="3"/><feColorMatrix values="0 0 0 0 0.176471 0 0 0 0 0.0588235 0 0 0 0 0.215686 0 0 0 0.02 0"/><feBlend in2="effect1_dropShadow_45058_4509" result="effect2_dropShadow_45058_4509"/><feColorMatrix in="SourceAlpha" values="0 0 0 0 0 0 0 0 0 0 0 0 0 0 0 0 0 0 127 0" result="hardAlpha"/><feOffset dy="10"/><feGaussianBlur stdDeviation="8"/><feColorMatrix values="0 0 0 0 0.176471 0 0 0 0 0.0588235 0 0 0 0 0.215686 0 0 0 0.05 0"/><feBlend in2="effect2_dropShadow_45058_4509" result="effect3_dropShadow_45058_4509"/><feBlend in="SourceGraphic" in2="effect3_dropShadow_45058_4509" result="shape"/></filter><filter id="d" x="589" y="131.79" width="160" height="102" filterUnits="userSpaceOnUse" color-interpolation-filters="sRGB"><feFlood flood-opacity="0" result="BackgroundImageFix"/><feColorMatrix in="SourceAlpha" values="0 0 0 0 0 0 0 0 0 0 0 0 0 0 0 0 0 0 127 0" result="hardAlpha"/><feOffset dy="2"/><feGaussianBlur stdDeviation="3"/><feColorMatrix values="0 0 0 0 0.176471 0 0 0 0 0.0588235 0 0 0 0 0.215686 0 0 0 0.05 0"/><feBlend in2="BackgroundImageFix" result="effect1_dropShadow_45058_4509"/><feColorMatrix in="SourceAlpha" values="0 0 0 0 0 0 0 0 0 0 0 0 0 0 0 0 0 0 127 0" result="hardAlpha"/><feOffset dy="-2"/><feGaussianBlur stdDeviation="3"/><feColorMatrix values="0 0 0 0 0.176471 0 0 0 0 0.0588235 0 0 0 0 0.215686 0 0 0 0.02 0"/><feBlend in2="effect1_dropShadow_45058_4509" result="effect2_dropShadow_45058_4509"/><feColorMatrix in="SourceAlpha" values="0 0 0 0 0 0 0 0 0 0 0 0 0 0 0 0 0 0 127 0" result="hardAlpha"/><feOffset dy="10"/><feGaussianBlur stdDeviation="8"/><feColorMatrix values="0 0 0 0 0.176471 0 0 0 0 0.0588235 0 0 0 0 0.215686 0 0 0 0.05 0"/><feBlend in2="effect2_dropShadow_45058_4509" result="effect3_dropShadow_45058_4509"/><feBlend in="SourceGraphic" in2="effect3_dropShadow_45058_4509" result="shape"/></filter><filter id="e" x="373" y="131.79" width="160" height="102" filterUnits="userSpaceOnUse" color-interpolation-filters="sRGB"><feFlood flood-opacity="0" result="BackgroundImageFix"/><feColorMatrix in="SourceAlpha" values="0 0 0 0 0 0 0 0 0 0 0 0 0 0 0 0 0 0 127 0" result="hardAlpha"/><feOffset dy="2"/><feGaussianBlur stdDeviation="3"/><feColorMatrix values="0 0 0 0 0.176471 0 0 0 0 0.0588235 0 0 0 0 0.215686 0 0 0 0.05 0"/><feBlend in2="BackgroundImageFix" result="effect1_dropShadow_45058_4509"/><feColorMatrix in="SourceAlpha" values="0 0 0 0 0 0 0 0 0 0 0 0 0 0 0 0 0 0 127 0" result="hardAlpha"/><feOffset dy="-2"/><feGaussianBlur stdDeviation="3"/><feColorMatrix values="0 0 0 0 0.176471 0 0 0 0 0.0588235 0 0 0 0 0.215686 0 0 0 0.02 0"/><feBlend in2="effect1_dropShadow_45058_4509" result="effect2_dropShadow_45058_4509"/><feColorMatrix in="SourceAlpha" values="0 0 0 0 0 0 0 0 0 0 0 0 0 0 0 0 0 0 127 0" result="hardAlpha"/><feOffset dy="10"/><feGaussianBlur stdDeviation="8"/><feColorMatrix values="0 0 0 0 0.176471 0 0 0 0 0.0588235 0 0 0 0 0.215686 0 0 0 0.05 0"/><feBlend in2="effect2_dropShadow_45058_4509" result="effect3_dropShadow_45058_4509"/><feBlend in="SourceGraphic" in2="effect3_dropShadow_45058_4509" result="shape"/></filter><filter id="f" x="589" y="-8.21" width="160" height="102" filterUnits="userSpaceOnUse" color-interpolation-filters="sRGB"><feFlood flood-opacity="0" result="BackgroundImageFix"/><feColorMatrix in="SourceAlpha" values="0 0 0 0 0 0 0 0 0 0 0 0 0 0 0 0 0 0 127 0" result="hardAlpha"/><feOffset dy="2"/><feGaussianBlur stdDeviation="3"/><feColorMatrix values="0 0 0 0 0.176471 0 0 0 0 0.0588235 0 0 0 0 0.215686 0 0 0 0.05 0"/><feBlend in2="BackgroundImageFix" result="effect1_dropShadow_45058_4509"/><feColorMatrix in="SourceAlpha" values="0 0 0 0 0 0 0 0 0 0 0 0 0 0 0 0 0 0 127 0" result="hardAlpha"/><feOffset dy="-2"/><feGaussianBlur stdDeviation="3"/><feColorMatrix values="0 0 0 0 0.176471 0 0 0 0 0.0588235 0 0 0 0 0.215686 0 0 0 0.02 0"/><feBlend in2="effect1_dropShadow_45058_4509" result="effect2_dropShadow_45058_4509"/><feColorMatrix in="SourceAlpha" values="0 0 0 0 0 0 0 0 0 0 0 0 0 0 0 0 0 0 127 0" result="hardAlpha"/><feOffset dy="10"/><feGaussianBlur stdDeviation="8"/><feColorMatrix values="0 0 0 0 0.176471 0 0 0 0 0.0588235 0 0 0 0 0.215686 0 0 0 0.05 0"/><feBlend in2="effect2_dropShadow_45058_4509" result="effect3_dropShadow_45058_4509"/><feBlend in="SourceGraphic" in2="effect3_dropShadow_45058_4509" result="shape"/></filter><filter id="g" x="-16" y="137.79" width="333" height="90" filterUnits="userSpaceOnUse" color-interpolation-filters="sRGB"><feFlood flood-opacity="0" result="BackgroundImageFix"/><feColorMatrix in="SourceAlpha" values="0 0 0 0 0 0 0 0 0 0 0 0 0 0 0 0 0 0 127 0" result="hardAlpha"/><feOffset dy="2"/><feGaussianBlur stdDeviation="3"/><feColorMatrix values="0 0 0 0 0.176471 0 0 0 0 0.0588235 0 0 0 0 0.215686 0 0 0 0.05 0"/><feBlend in2="BackgroundImageFix" result="effect1_dropShadow_45058_4509"/><feColorMatrix in="SourceAlpha" values="0 0 0 0 0 0 0 0 0 0 0 0 0 0 0 0 0 0 127 0" result="hardAlpha"/><feOffset dy="-2"/><feGaussianBlur stdDeviation="3"/><feColorMatrix values="0 0 0 0 0.176471 0 0 0 0 0.0588235 0 0 0 0 0.215686 0 0 0 0.02 0"/><feBlend in2="effect1_dropShadow_45058_4509" result="effect2_dropShadow_45058_4509"/><feColorMatrix in="SourceAlpha" values="0 0 0 0 0 0 0 0 0 0 0 0 0 0 0 0 0 0 127 0" result="hardAlpha"/><feOffset dy="10"/><feGaussianBlur stdDeviation="8"/><feColorMatrix values="0 0 0 0 0.176471 0 0 0 0 0.0588235 0 0 0 0 0.215686 0 0 0 0.05 0"/><feBlend in2="effect2_dropShadow_45058_4509" result="effect3_dropShadow_45058_4509"/><feBlend in="SourceGraphic" in2="effect3_dropShadow_45058_4509" result="shape"/></filter><clipPath id="a"><path fill="#fff" transform="translate(-16 -31)" d="M0 0h981v425H0z"/></clipPath></defs></svg>