<svg width="1188" height="492" fill="none" xmlns="http://www.w3.org/2000/svg"><rect x="230" y="32" width="926" height="428" rx="24" fill="#F5F3F5"/><path d="M682.7 70.54a4.14 4.14 0 0 0-2.17-.54 3.84 3.84 0 0 0-3.33 1.68h-.04v-1.43h-3.2v11.26h3.2V75.1c0-.44.1-.84.27-1.2.18-.35.44-.63.77-.83.33-.2.72-.3 1.18-.3.61 0 1.1.2 1.44.58.34.39.52.93.52 1.63v6.53h3.18v-6.98c0-.95-.15-1.77-.46-2.44-.3-.67-.75-1.19-1.35-1.55ZM655.93 70.01h.12c2.2 0 3.99 1.77 3.99 3.96v7.51h-3.14v-7.72a.99.99 0 0 0-1-.98h-.03a1 1 0 0 0-.96.75l-1.45 5.9a3.02 3.02 0 0 1-2.94 2.3 3.01 3.01 0 0 1-3.03-3v-4.97a1 1 0 0 0-1.96-.23l-1.43 5.85a3.09 3.09 0 0 1-3 2.34 3.08 3.08 0 0 1-3.1-3.06v-8.42h3.17v8.95h.03l1.47-6.08c.4-1.81 2.02-3.1 3.89-3.1 2.2 0 3.98 1.77 3.98 3.95v5.23h.03l1.47-6.08a3.98 3.98 0 0 1 3.9-3.1Z" fill="#2D0F37"/><path fill-rule="evenodd" clip-rule="evenodd" d="M669.56 71.65h.06v-1.39h3.2v11.25h-3.19v-1.39h-.07c-.27.35-.6.65-.98.9-.38.24-.79.42-1.24.55a5.3 5.3 0 0 1-4.05-.52 4.84 4.84 0 0 1-1.8-2.04 7.09 7.09 0 0 1-.64-3.1c0-1.14.2-2.15.63-3.05.42-.9 1.01-1.6 1.78-2.1a4.8 4.8 0 0 1 2.67-.75c.53 0 1.01.07 1.46.2.45.13.86.32 1.23.56.37.25.68.54.94.88Zm-1.22 6.99c.42-.26.75-.62.99-1.09.23-.47.35-1.02.35-1.64 0-.62-.12-1.17-.35-1.65a2.6 2.6 0 0 0-2.46-1.5 2.57 2.57 0 0 0-2.43 1.48 3.71 3.71 0 0 0-.36 1.66c0 .62.13 1.17.37 1.65a2.64 2.64 0 0 0 2.43 1.47c.55 0 1.04-.13 1.46-.38ZM694.11 71.7h.07v-1.45h3.2V81.1a4.7 4.7 0 0 1-.74 2.63 4.57 4.57 0 0 1-2.04 1.7 7.7 7.7 0 0 1-3.11.57c-1.07 0-2-.14-2.83-.42a4.7 4.7 0 0 1-2-1.26 3.76 3.76 0 0 1-.93-2.1h3.18c.14.48.45.84.93 1.07.47.23 1.05.34 1.74.34.55 0 1.03-.1 1.41-.3.39-.2.68-.48.88-.86.2-.39.3-.84.3-1.37v-1.57h-.06c-.4.52-.92.93-1.56 1.23-.63.3-1.36.46-2.16.46-.97 0-1.83-.23-2.6-.69a4.7 4.7 0 0 1-1.8-1.94 6.39 6.39 0 0 1-.66-2.94c0-1.11.21-2.09.64-2.94a4.8 4.8 0 0 1 4.44-2.7c.8 0 1.5.15 2.13.45.63.3 1.15.71 1.57 1.24Zm-1.27 6.45c.43-.23.76-.57.99-1 .23-.44.35-.94.35-1.52 0-.57-.12-1.08-.35-1.53a2.44 2.44 0 0 0-1-1.02 2.95 2.95 0 0 0-1.46-.36c-.56 0-1.05.12-1.47.36-.41.25-.74.59-.98 1.03-.23.43-.35.94-.35 1.51 0 .58.12 1.08.35 1.52.24.43.57.77 1 1 .42.25.9.37 1.46.37.55 0 1.04-.12 1.46-.36ZM707.4 70.76a6.3 6.3 0 0 0-3.1-.76c-1.14 0-2.17.25-3.1.76-.92.5-1.65 1.2-2.17 2.1-.53.9-.8 1.9-.8 3.04 0 1.13.27 2.15.8 3.04.54.9 1.27 1.6 2.19 2.08.92.5 1.94.74 3.07.74 1.12 0 2.16-.25 3.09-.74a5.51 5.51 0 0 0 2.17-2.08c.53-.9.8-1.9.8-3.04 0-1.14-.27-2.16-.79-3.05a5.58 5.58 0 0 0-2.16-2.1Zm-.66 6.82c-.26.48-.6.85-1.03 1.11-.43.26-.9.4-1.43.4-.52 0-1-.14-1.42-.4a2.82 2.82 0 0 1-1.02-1.12 3.54 3.54 0 0 1-.38-1.66c0-.64.13-1.2.38-1.69a2.65 2.65 0 0 1 2.45-1.52 2.68 2.68 0 0 1 2.45 1.52c.25.48.38 1.04.38 1.68 0 .63-.13 1.2-.38 1.68ZM718.11 70.01a4.77 4.77 0 0 1 4.45 2.85c.42.9.63 1.87.63 3.05 0 1.18-.22 2.21-.65 3.1a4.85 4.85 0 0 1-1.8 2.04 5.24 5.24 0 0 1-5.31-.05c-.38-.25-.71-.55-.98-.9h-.03v5.66h-3.19v-15.5h3.2v1.42h.02c.25-.35.57-.65.94-.9.38-.25.8-.44 1.25-.57.46-.13.95-.2 1.47-.2Zm.5 8.63c.42-.26.75-.62.99-1.1a3.6 3.6 0 0 0 .35-1.64c0-.64-.11-1.19-.35-1.66a2.56 2.56 0 0 0-.99-1.1 2.7 2.7 0 0 0-1.44-.38 2.6 2.6 0 0 0-2.45 1.5 3.69 3.69 0 0 0-.35 1.65c0 .62.12 1.17.35 1.64a2.6 2.6 0 0 0 2.44 1.47c.54 0 1.02-.13 1.45-.38ZM732.62 71.65h-.07a3.76 3.76 0 0 0-.94-.88 4.47 4.47 0 0 0-1.22-.56 5.2 5.2 0 0 0-1.46-.2 4.8 4.8 0 0 0-2.67.75c-.77.5-1.37 1.2-1.79 2.1-.42.9-.63 1.91-.63 3.05 0 1.13.21 2.21.65 3.1a4.84 4.84 0 0 0 1.8 2.04 5.29 5.29 0 0 0 4.04.52c.45-.13.87-.31 1.25-.56.37-.24.7-.54.97-.89h.08v1.4h3.18V70.25h-3.2v1.39Zm-.3 5.9a2.6 2.6 0 0 1-2.45 1.47 2.64 2.64 0 0 1-2.43-1.48 3.56 3.56 0 0 1-.36-1.64c0-.63.11-1.19.35-1.66.23-.48.56-.84.99-1.1.43-.25.9-.38 1.44-.38a2.6 2.6 0 0 1 2.46 1.5c.23.48.35 1.03.35 1.65 0 .62-.12 1.17-.35 1.64Z" fill="#2D0F37"/><path d="m742.77 76.06 1.95-5.8H748l-4.97 12.78c-.34.9-.87 1.58-1.59 2.04-.71.45-1.7.68-2.98.68h-1.2V83.2h1.2c.5 0 .88-.07 1.16-.21.28-.14.5-.4.66-.75l.3-.7-4.45-11.29h3.27l2 5.81c.2.58.42 1.28.67 2.09h.06l.64-2.09ZM63.95 328.36h2.11v7.6a4 4 0 0 1-2.24 3.68c-.7.36-1.53.54-2.48.54s-1.78-.18-2.5-.53a4 4 0 0 1-1.64-1.48 4.1 4.1 0 0 1-.58-2.2v-7.6h2.1v7.42c0 .48.11.92.32 1.3.22.37.52.67.91.89.4.2.85.31 1.39.31.53 0 1-.1 1.38-.31.4-.22.7-.52.91-.9.22-.37.32-.8.32-1.29v-7.43Zm11.2 5.22-1.87.2a1.51 1.51 0 0 0-.28-.53c-.12-.17-.3-.3-.52-.4a1.9 1.9 0 0 0-.8-.16c-.43 0-.8.1-1.08.28-.3.19-.43.43-.43.72 0 .26.09.46.28.62.2.16.5.3.95.4l1.5.31c.82.18 1.43.46 1.83.85.4.39.61.9.62 1.52 0 .55-.17 1.03-.49 1.45a3.1 3.1 0 0 1-1.31.98c-.56.23-1.2.35-1.93.35a4.48 4.48 0 0 1-2.58-.67 2.7 2.7 0 0 1-1.17-1.88l2-.2c.1.4.3.7.59.9.3.2.68.3 1.15.3.5 0 .88-.1 1.18-.3.3-.2.45-.45.45-.75 0-.25-.1-.45-.3-.62a2.02 2.02 0 0 0-.88-.37l-1.49-.31a3.54 3.54 0 0 1-1.86-.88c-.4-.42-.6-.95-.6-1.58 0-.54.15-1 .45-1.4.3-.4.7-.7 1.24-.92a4.82 4.82 0 0 1 1.85-.33c1.02 0 1.82.22 2.41.65.6.44.96 1.03 1.1 1.77Zm5.75 6.59c-.87 0-1.63-.18-2.26-.55a3.69 3.69 0 0 1-1.46-1.55 5.21 5.21 0 0 1-.51-2.38c0-.9.17-1.69.5-2.37a3.87 3.87 0 0 1 3.63-2.16c.53 0 1.04.09 1.52.26s.9.44 1.27.8c.37.36.67.81.88 1.37.21.55.32 1.21.32 1.98v.63h-7.16v-1.39h5.18c0-.4-.09-.74-.25-1.05-.17-.3-.4-.55-.7-.73-.3-.18-.64-.27-1.03-.27a2 2 0 0 0-1.11.3c-.32.2-.57.47-.75.8-.17.33-.26.69-.26 1.08v1.2c0 .51.09.95.27 1.31.19.36.45.64.78.83.34.2.73.29 1.17.29.3 0 .57-.04.82-.13.24-.08.45-.21.63-.38.17-.16.3-.37.4-.62l1.92.22a3 3 0 0 1-.7 1.33c-.33.37-.76.66-1.29.87-.52.2-1.13.31-1.8.31Zm5.63-.17v-8.73h1.99v1.46h.1a2.18 2.18 0 0 1 2.14-1.58 4.47 4.47 0 0 1 .74.06v1.89a3.9 3.9 0 0 0-.95-.12c-.38 0-.71.08-1.01.24a1.79 1.79 0 0 0-.96 1.65V340h-2.05Zm15.02-11.64V340h-2.11v-9.58h-.07l-2.72 1.73v-1.93l2.9-1.86h2Zm4.72 0v1.16c0 .34-.06.68-.2 1.04a4.5 4.5 0 0 1-1.26 1.86l-.95-.63c.2-.3.39-.65.54-1.01.16-.37.23-.78.23-1.25v-1.17h1.64Zm7.44 5.22-1.88.2a1.5 1.5 0 0 0-.8-.93c-.22-.1-.49-.16-.8-.16-.44 0-.8.1-1.09.28-.29.19-.43.43-.42.72 0 .26.09.46.27.62.2.16.52.3.96.4l1.49.31c.82.18 1.44.46 1.84.85.4.39.6.9.61 1.52 0 .55-.16 1.03-.48 1.45a3.1 3.1 0 0 1-1.31.98c-.56.23-1.2.35-1.93.35a4.48 4.48 0 0 1-2.59-.67 2.7 2.7 0 0 1-1.16-1.88l2-.2c.1.4.29.7.59.9.3.2.68.3 1.15.3.49 0 .88-.1 1.17-.3.3-.2.45-.45.45-.75 0-.25-.1-.45-.29-.62a2.02 2.02 0 0 0-.88-.37l-1.5-.31a3.54 3.54 0 0 1-1.85-.88c-.4-.42-.6-.95-.6-1.58 0-.54.15-1 .44-1.4.3-.4.72-.7 1.25-.92a4.81 4.81 0 0 1 1.84-.33c1.03 0 1.83.22 2.42.65.59.44.95 1.03 1.1 1.77ZM33.61 364v-11.64h2.06v4.36h.09c.1-.22.25-.44.45-.68.19-.24.45-.45.78-.62.33-.17.75-.26 1.26-.26a3.32 3.32 0 0 1 3.12 2.03c.32.67.48 1.49.48 2.46 0 .96-.15 1.77-.47 2.44a3.3 3.3 0 0 1-3.13 2.06 2.52 2.52 0 0 1-2.04-.85c-.19-.24-.34-.46-.45-.67h-.12V364h-2.03Zm2.02-4.36c0 .56.08 1.06.24 1.48.16.42.4.75.7 1 .3.23.68.35 1.11.35.46 0 .84-.13 1.14-.37.31-.24.54-.58.7-1 .16-.43.24-.92.24-1.46 0-.54-.08-1.03-.24-1.45a2.16 2.16 0 0 0-.69-.99c-.3-.23-.69-.35-1.15-.35-.44 0-.81.11-1.12.34-.3.23-.54.56-.7.98-.15.41-.23.9-.23 1.47Zm10.48 4.54c-.55 0-1.05-.1-1.5-.3-.43-.2-.78-.5-1.04-.89a2.6 2.6 0 0 1-.38-1.44c0-.5.1-.9.28-1.22.18-.32.43-.58.74-.77.31-.2.67-.34 1.06-.44.4-.1.81-.18 1.23-.22l1.25-.14c.32-.05.55-.12.7-.2.14-.1.21-.25.21-.45v-.03c0-.43-.12-.76-.38-1-.25-.23-.62-.35-1.1-.35-.5 0-.9.11-1.2.33-.28.22-.48.48-.58.78l-1.92-.27a3.07 3.07 0 0 1 2.02-2.14 5.41 5.41 0 0 1 2.93-.13c.42.1.8.27 1.14.5.35.22.62.52.83.91.21.39.32.87.32 1.45V364h-1.98v-1.2h-.06A2.5 2.5 0 0 1 47.3 364c-.34.12-.73.19-1.19.19Zm.54-1.51c.41 0 .77-.09 1.07-.25.3-.17.54-.39.7-.66.17-.27.25-.57.25-.9v-1.02a.98.98 0 0 1-.33.15l-.51.12-.56.09-.49.07c-.3.04-.58.1-.82.2s-.43.23-.57.4a.97.97 0 0 0-.21.65c0 .38.13.66.41.86.28.19.63.29 1.06.29Zm8.2-3.78V364H52.8v-8.73h1.96v1.49h.1c.2-.5.53-.88.97-1.17.44-.29.99-.43 1.64-.43.6 0 1.13.13 1.57.38.45.26.8.64 1.05 1.13.25.48.37 1.08.37 1.77V364H58.4v-5.24c0-.58-.15-1.04-.45-1.37a1.6 1.6 0 0 0-1.25-.5c-.36 0-.68.09-.96.25-.27.15-.5.38-.65.67-.16.3-.23.66-.23 1.08Zm9.56 2.37v-2.48h.33l3.13-3.5h2.4l-3.85 4.29H66l-1.58 1.7ZM62.55 364v-11.64h2.06V364h-2.06Zm5.48 0-2.84-3.97 1.38-1.45L70.5 364h-2.46Zm10.1.18c-.54 0-1.04-.1-1.49-.3-.44-.2-.78-.5-1.04-.89a2.6 2.6 0 0 1-.38-1.44c0-.5.09-.9.27-1.22.18-.32.43-.58.75-.77.3-.2.66-.34 1.06-.44.4-.1.8-.18 1.23-.22l1.24-.14c.32-.05.55-.12.7-.2.15-.1.22-.25.22-.45v-.03c0-.43-.13-.76-.38-1-.25-.23-.62-.35-1.1-.35-.5 0-.9.11-1.2.33-.29.22-.49.48-.59.78l-1.92-.27a3.07 3.07 0 0 1 2.03-2.14 5.41 5.41 0 0 1 2.93-.13c.41.1.8.27 1.14.5.34.22.62.52.83.91.21.39.32.87.32 1.45V364h-1.98v-1.2h-.07a2.5 2.5 0 0 1-1.37 1.19c-.34.12-.74.19-1.2.19Zm.54-1.51c.42 0 .77-.09 1.08-.25.3-.17.53-.39.7-.66.16-.27.25-.57.25-.9v-1.02a.98.98 0 0 1-.33.15l-.52.12-.56.09-.48.07c-.3.04-.58.1-.82.2-.25.1-.44.23-.58.4a.97.97 0 0 0-.2.65c0 .38.13.66.4.86.28.19.63.29 1.06.29Zm9.95 1.5a3.83 3.83 0 0 1-3.68-2.16 5.24 5.24 0 0 1-.5-2.34c0-.89.17-1.67.51-2.35.34-.68.82-1.2 1.44-1.59a4.16 4.16 0 0 1 2.22-.57c.7 0 1.34.13 1.88.4a3.21 3.21 0 0 1 1.87 2.74h-1.97a1.88 1.88 0 0 0-.56-1.06c-.3-.28-.7-.42-1.2-.42-.41 0-.78.11-1.1.34-.32.22-.57.54-.74.96-.18.43-.27.93-.27 1.52 0 .6.1 1.1.27 1.53.17.43.41.75.73.98.32.23.7.34 1.12.34.3 0 .57-.05.81-.17.24-.11.45-.28.6-.5.17-.22.28-.49.34-.8h1.97a3.23 3.23 0 0 1-1.83 2.76 4.3 4.3 0 0 1-1.9.39Zm9.24 0a3.83 3.83 0 0 1-3.68-2.16 5.24 5.24 0 0 1-.5-2.34c0-.89.16-1.67.5-2.35.35-.68.83-1.2 1.45-1.59a4.16 4.16 0 0 1 2.21-.57c.71 0 1.34.13 1.89.4a3.22 3.22 0 0 1 1.86 2.74h-1.96a1.88 1.88 0 0 0-.57-1.06c-.3-.28-.7-.42-1.19-.42-.42 0-.79.11-1.1.34-.32.22-.57.54-.75.96-.17.43-.26.93-.26 1.52 0 .6.09 1.1.26 1.53.17.43.42.75.73.98.32.23.7.34 1.12.34.3 0 .58-.05.82-.17.24-.11.44-.28.6-.5.17-.22.28-.49.34-.8h1.96a3.22 3.22 0 0 1-1.83 2.76 4.3 4.3 0 0 1-1.9.39Zm9.23 0c-.85 0-1.6-.19-2.22-.56a3.82 3.82 0 0 1-1.45-1.58 5.17 5.17 0 0 1-.51-2.36c0-.9.17-1.7.51-2.37a3.8 3.8 0 0 1 1.45-1.58 4.23 4.23 0 0 1 2.22-.56c.85 0 1.6.19 2.22.56.62.38 1.1.9 1.44 1.58.35.68.52 1.47.52 2.37 0 .9-.17 1.69-.52 2.36-.34.68-.82 1.2-1.44 1.58-.63.37-1.37.56-2.22.56Zm.01-1.65c.46 0 .85-.12 1.16-.38.31-.26.54-.6.7-1.03.15-.43.23-.92.23-1.44 0-.54-.08-1.02-.24-1.45a2.3 2.3 0 0 0-.69-1.04c-.31-.26-.7-.39-1.16-.39-.47 0-.87.13-1.18.39-.31.25-.54.6-.7 1.04-.15.43-.23.91-.23 1.44 0 .53.08 1.02.23 1.45.16.43.39.77.7 1.03.31.26.7.38 1.18.38Zm11.48-2.19v-5.06h2.06V364h-2v-1.55h-.09c-.2.49-.52.89-.97 1.2-.45.3-1 .46-1.65.46a2.65 2.65 0 0 1-2.54-1.5 3.96 3.96 0 0 1-.37-1.78v-5.56h2.06v5.24c0 .55.15 1 .45 1.32.3.32.7.49 1.2.49.3 0 .59-.08.87-.22.29-.15.52-.37.7-.66.19-.3.28-.67.28-1.11Zm6.23-1.44V364h-2.06v-8.73h1.97v1.49h.1c.2-.5.52-.88.96-1.17.44-.29 1-.43 1.64-.43.6 0 1.13.13 1.58.38.45.26.8.64 1.04 1.13.25.48.38 1.08.37 1.77V364h-2.06v-5.24c0-.58-.15-1.04-.45-1.37a1.6 1.6 0 0 0-1.24-.5c-.36 0-.68.09-.97.25-.27.15-.49.38-.65.67-.15.3-.23.66-.23 1.08Zm12.05-3.62v1.6h-5.02v-1.6h5.02Zm-3.78-2.09h2.06v8.2c0 .27.04.48.12.63.1.14.2.24.34.3.15.05.3.08.47.08a2.01 2.01 0 0 0 .6-.08l.35 1.6a4.74 4.74 0 0 1-1.21.2c-.52.02-.98-.05-1.4-.22a2.16 2.16 0 0 1-.98-.81 2.4 2.4 0 0 1-.35-1.36v-8.54Z" fill="#2D0F37"/><rect x="53" y="246" width="64" height="64" rx="32" fill="#FFD260"/><path d="m73 273.87 12-7.34 12 7.34M75.67 287.87h18.66M82.33 273.2h5.34M77 283.87v-6.67M82.33 283.87v-6.67M87.67 283.87v-6.67M93 283.87v-6.67" stroke="#370971" stroke-width="2" stroke-linecap="square" stroke-linejoin="round"/><g filter="url(#a)"><rect x="806" y="128" width="236" height="236" rx="12" fill="#fff"/><rect x="830" y="152" width="48" height="48" rx="24" fill="#B7B2FF"/><rect x="846" y="171" width="16" height="12" rx="2" stroke="#12282F" stroke-width="2" stroke-linecap="square" stroke-linejoin="round"/><path d="M857 171v-3a1 1 0 0 0-1-1h-4a1 1 0 0 0-1 1v3" stroke="#12282F" stroke-width="2" stroke-linecap="square" stroke-linejoin="round"/><rect x="942" y="152" width="76" height="28" rx="14" fill="#081F34"/><path d="M966.19 166.18c0 1.26-.24 2.33-.7 3.22a4.99 4.99 0 0 1-4.65 2.76 5.07 5.07 0 0 1-4.65-2.76c-.46-.9-.7-1.97-.7-3.22 0-1.25.24-2.32.7-3.21a5.02 5.02 0 0 1 4.65-2.76 4.98 4.98 0 0 1 4.64 2.76c.47.89.7 1.96.7 3.21Zm-2.12 0c0-.88-.14-1.63-.42-2.23a3.08 3.08 0 0 0-1.13-1.38 3.02 3.02 0 0 0-1.68-.47c-.63 0-1.2.15-1.68.47-.48.3-.86.77-1.14 1.38-.27.6-.4 1.35-.4 2.23 0 .88.13 1.63.4 2.24.28.6.66 1.07 1.14 1.38.49.31 1.05.47 1.68.47.63 0 1.2-.16 1.68-.47.48-.31.86-.77 1.13-1.38.28-.6.42-1.36.42-2.24Zm5.82 5.82-2.47-8.73h2.1l1.53 6.14h.08l1.57-6.14h2.08l1.56 6.1h.09l1.51-6.1h2.1l-2.47 8.73h-2.14l-1.64-5.9h-.12l-1.63 5.9h-2.15Zm13.65-5.11V172h-2.06v-8.73h1.97v1.49h.1c.2-.5.52-.88.96-1.17.44-.29.99-.43 1.64-.43.6 0 1.13.13 1.57.38.45.26.8.64 1.05 1.13.25.48.37 1.08.37 1.77V172h-2.06v-5.24c0-.58-.15-1.04-.45-1.37a1.6 1.6 0 0 0-1.25-.5c-.36 0-.68.09-.96.25-.27.15-.5.38-.65.67-.16.3-.23.66-.23 1.08Zm11.55 5.28a4.5 4.5 0 0 1-2.26-.54 3.7 3.7 0 0 1-1.47-1.56 5.21 5.21 0 0 1-.5-2.38c0-.9.16-1.69.5-2.37a3.87 3.87 0 0 1 3.62-2.16c.54 0 1.05.09 1.53.26s.9.44 1.27.8c.37.36.66.81.88 1.37.2.55.31 1.21.31 1.98v.63h-7.15v-1.39H997c0-.4-.09-.74-.25-1.05a1.87 1.87 0 0 0-1.74-1 2 2 0 0 0-1.1.3c-.32.2-.57.47-.75.8-.17.33-.26.69-.27 1.08v1.2c0 .52.1.95.28 1.32.19.35.45.63.78.82.33.2.72.29 1.17.29.3 0 .57-.04.81-.13.25-.08.46-.21.63-.38.18-.16.32-.37.4-.62l1.93.22a3 3 0 0 1-.7 1.33 3.4 3.4 0 0 1-1.3.87c-.52.2-1.12.31-1.8.31Zm5.62-.17v-8.73h2v1.46h.09a2.17 2.17 0 0 1 2.15-1.58 4.34 4.34 0 0 1 .74.06v1.89a4 4 0 0 0-.95-.12c-.38 0-.72.08-1.02.24a1.8 1.8 0 0 0-.69.67c-.17.28-.26.6-.26.98V172h-2.06Z" fill="#89E481"/><path d="M842.3 231.54h3.69v11.34c0 1.27-.3 2.39-.91 3.34-.6.96-1.45 1.7-2.54 2.24-1.08.52-2.34.79-3.79.79a8.6 8.6 0 0 1-3.8-.8 6.11 6.11 0 0 1-2.53-2.23c-.6-.95-.9-2.07-.9-3.34v-11.34h3.69v11.03c0 .66.14 1.25.43 1.77.3.51.71.92 1.25 1.22.53.3 1.15.44 1.86.44.72 0 1.34-.15 1.87-.44.53-.3.95-.7 1.24-1.22.3-.52.44-1.11.44-1.78v-11.02Zm17.55 8.1-3.33.2a1.71 1.71 0 0 0-.36-.76 1.93 1.93 0 0 0-.74-.55c-.3-.15-.66-.22-1.08-.22-.57 0-1.04.12-1.43.36-.38.23-.58.55-.58.94 0 .31.13.57.38.8.25.2.68.38 1.28.51l2.37.48c1.28.26 2.23.68 2.85 1.26.63.58.94 1.34.94 2.28 0 .86-.26 1.61-.76 2.26a4.93 4.93 0 0 1-2.06 1.52c-.87.36-1.88.54-3.01.54a7.09 7.09 0 0 1-4.15-1.09 4.22 4.22 0 0 1-1.8-2.96l3.58-.19c.1.53.37.93.78 1.21.42.27.95.4 1.6.4.63 0 1.14-.11 1.53-.36.4-.25.6-.57.6-.96a1 1 0 0 0-.42-.81 3 3 0 0 0-1.26-.5l-2.27-.45a5.43 5.43 0 0 1-2.85-1.33 3.3 3.3 0 0 1-.93-2.4c0-.85.22-1.57.68-2.18.46-.6 1.1-1.08 1.93-1.4.84-.34 1.82-.5 2.93-.5 1.66 0 2.96.35 3.9 1.05.96.7 1.52 1.65 1.68 2.85Zm8.55 9.62a7 7 0 0 1-3.48-.82 5.61 5.61 0 0 1-2.23-2.34 7.71 7.71 0 0 1-.79-3.59c0-1.34.27-2.52.79-3.54a5.8 5.8 0 0 1 2.2-2.38 6.44 6.44 0 0 1 3.36-.85c.87 0 1.67.14 2.42.42a5.35 5.35 0 0 1 3.27 3.31c.31.83.47 1.8.47 2.92v1h-11.06v-2.26H871c0-.52-.11-.98-.34-1.39-.23-.4-.54-.71-.95-.94a2.7 2.7 0 0 0-1.39-.35 2.7 2.7 0 0 0-2.45 1.4c-.24.42-.36.89-.37 1.4v2.14c0 .65.12 1.2.36 1.68.25.47.59.84 1.03 1.1.45.25.97.38 1.58.38.4 0 .77-.06 1.1-.18.34-.1.63-.28.87-.5.24-.23.42-.51.54-.84l3.36.22c-.17.8-.52 1.51-1.05 2.11-.52.6-1.2 1.07-2.03 1.4-.82.33-1.77.5-2.85.5Zm8.38-.26v-13.1h3.52v2.3h.13a3.16 3.16 0 0 1 3.14-2.47 5.41 5.41 0 0 1 1.15.12v3.22a6.32 6.32 0 0 0-1.53-.2 2.9 2.9 0 0 0-1.44.35 2.57 2.57 0 0 0-1.34 2.37V249h-3.63Zm15.34 0v-2.66l6.21-5.75c.53-.51.97-.97 1.33-1.38.36-.41.64-.81.83-1.2.18-.4.28-.83.28-1.3a2.3 2.3 0 0 0-1.3-2.18c-.4-.2-.87-.3-1.38-.3-.53 0-1 .1-1.4.32-.4.22-.7.53-.92.93a3 3 0 0 0-.32 1.44h-3.5a5.18 5.18 0 0 1 2.95-4.93c.93-.45 2-.68 3.22-.68 1.25 0 2.34.22 3.26.66a5.18 5.18 0 0 1 2.17 1.82c.52.78.78 1.68.78 2.68 0 .66-.13 1.31-.4 1.95a8.17 8.17 0 0 1-1.36 2.14c-.66.78-1.6 1.72-2.79 2.8l-2.55 2.5v.12h7.33V249h-12.44Z" fill="#2D0F37"/><rect x="830" y="308" width="66" height="32" rx="4" fill="#F5F3F5"/><path d="m841.63 330-3.33-11.64H841l1.92 8.09h.1l2.13-8.09h2.3l2.12 8.1h.1l1.93-8.1h2.68L850.94 330h-2.4l-2.21-7.6h-.1l-2.2 7.6h-2.4Zm15.47.17c-.56 0-1.06-.1-1.5-.3a2.4 2.4 0 0 1-1.03-.86 2.6 2.6 0 0 1-.37-1.45c0-.48.09-.89.26-1.22.18-.33.42-.6.73-.8.3-.2.66-.35 1.05-.45.4-.1.8-.17 1.24-.21.5-.06.91-.1 1.22-.15.31-.05.54-.12.68-.22s.2-.23.2-.42v-.03c0-.36-.1-.64-.33-.84a1.4 1.4 0 0 0-.96-.3c-.43 0-.78.1-1.04.3-.25.18-.42.42-.5.71l-2.25-.18a3.04 3.04 0 0 1 1.96-2.27 5.56 5.56 0 0 1 3.23-.15c.45.11.85.29 1.2.53a2.58 2.58 0 0 1 1.12 2.25V330h-2.3v-1.21h-.06a2.46 2.46 0 0 1-1.41 1.2c-.33.12-.71.18-1.14.18Zm.69-1.68c.35 0 .67-.07.94-.2.27-.15.49-.34.64-.59.16-.24.24-.51.24-.82v-.93c-.08.05-.18.1-.32.14a5.71 5.71 0 0 1-.92.2l-.45.06c-.28.04-.53.1-.74.2-.21.09-.38.2-.5.37a.9.9 0 0 0-.17.56c0 .33.12.58.36.76.24.17.55.25.92.25Zm8.52-10.13V330h-2.42v-11.64h2.42Zm4.36 0V330h-2.42v-11.64h2.42Zm5.91 11.81c-.9 0-1.67-.18-2.31-.55a3.73 3.73 0 0 1-1.5-1.55 5.15 5.15 0 0 1-.52-2.4c0-.9.18-1.68.53-2.36.35-.68.84-1.2 1.47-1.58a4.29 4.29 0 0 1 2.24-.57c.57 0 1.1.1 1.6.28a3.56 3.56 0 0 1 2.19 2.2c.2.56.3 1.2.3 1.95v.67h-7.36v-1.5h5.1c0-.35-.09-.66-.24-.93a1.63 1.63 0 0 0-.63-.63 1.8 1.8 0 0 0-.92-.23 1.86 1.86 0 0 0-1.64.93c-.16.28-.24.6-.24.94v1.42c0 .43.08.8.24 1.12.16.31.39.56.68.73.3.17.65.25 1.05.25.27 0 .52-.03.74-.11a1.49 1.49 0 0 0 .94-.9l2.24.15c-.12.54-.35 1-.7 1.4-.35.4-.8.72-1.35.94-.55.22-1.19.33-1.9.33Zm10.23-8.9v1.82h-5.25v-1.82h5.25Zm-4.06-2.09h2.42v8.14c0 .22.03.4.1.52s.16.2.28.26c.13.05.27.07.44.07a2.06 2.06 0 0 0 .6-.08l.38 1.8-.51.13c-.22.06-.49.09-.8.1-.59.02-1.1-.06-1.54-.23a2.14 2.14 0 0 1-1.01-.83 2.53 2.53 0 0 1-.36-1.42v-8.46Z" fill="#2D0F37"/></g><g filter="url(#b)"><rect x="342" y="130" width="236" height="236" rx="12" fill="#fff"/><rect x="366" y="154" width="48" height="48" rx="24" fill="#FFD260"/><path d="M394 173a4 4 0 1 0-8 0 4 4 0 0 0 8 0Z" stroke="#370971" stroke-width="1.8" stroke-linecap="square" stroke-linejoin="round"/><path d="M398 187v-2.43a4 4 0 0 0-4-4h-8a4 4 0 0 0-4 4V187" stroke="#370971" stroke-width="1.8" stroke-linejoin="round"/><rect x="478" y="154" width="76" height="28" rx="14" fill="#081F34"/><path d="M502.19 168.18c0 1.26-.24 2.33-.7 3.22a4.99 4.99 0 0 1-4.65 2.76 5.07 5.07 0 0 1-4.65-2.76c-.46-.9-.7-1.97-.7-3.22 0-1.25.24-2.32.7-3.21a5.02 5.02 0 0 1 4.65-2.76 4.98 4.98 0 0 1 4.64 2.76c.47.89.7 1.96.7 3.21Zm-2.12 0c0-.88-.14-1.63-.42-2.23a3.08 3.08 0 0 0-1.13-1.38 3.02 3.02 0 0 0-1.68-.47c-.63 0-1.2.15-1.68.47-.48.3-.86.77-1.14 1.38-.27.6-.4 1.35-.4 2.23 0 .88.13 1.63.4 2.24.28.6.66 1.07 1.14 1.38.49.31 1.05.47 1.68.47.63 0 1.2-.16 1.68-.47.48-.31.86-.77 1.13-1.38.28-.6.42-1.36.42-2.24Zm5.82 5.82-2.47-8.73h2.1l1.53 6.14h.08l1.57-6.14h2.08l1.56 6.1h.09l1.51-6.1h2.1l-2.47 8.73h-2.14l-1.64-5.9h-.12l-1.63 5.9h-2.15Zm13.65-5.11V174h-2.06v-8.73h1.97v1.49h.1c.2-.5.52-.88.96-1.17.44-.29.99-.43 1.64-.43.6 0 1.13.13 1.57.38.45.26.8.64 1.05 1.13.25.48.37 1.08.37 1.77V174h-2.06v-5.24c0-.58-.15-1.04-.45-1.37a1.6 1.6 0 0 0-1.25-.5c-.36 0-.68.09-.96.25-.27.15-.5.38-.65.67-.16.3-.23.66-.23 1.08Zm11.55 5.28a4.5 4.5 0 0 1-2.26-.54 3.7 3.7 0 0 1-1.47-1.56 5.21 5.21 0 0 1-.5-2.38c0-.9.16-1.69.5-2.37a3.87 3.87 0 0 1 3.62-2.16c.54 0 1.05.09 1.53.26s.9.44 1.27.8c.37.36.66.81.88 1.37.2.55.31 1.21.31 1.98v.63h-7.15v-1.39H533c0-.4-.09-.74-.25-1.05a1.87 1.87 0 0 0-1.74-1 2 2 0 0 0-1.1.3c-.32.2-.57.47-.75.8-.17.33-.26.69-.27 1.08v1.2c0 .52.1.95.28 1.32.19.35.45.63.78.82.33.2.72.29 1.17.29.3 0 .57-.04.81-.13.25-.08.46-.21.63-.38.18-.16.32-.37.4-.62l1.93.22a3 3 0 0 1-.7 1.33 3.4 3.4 0 0 1-1.3.87c-.52.2-1.12.31-1.8.31Zm5.62-.17v-8.73h2v1.46h.09a2.18 2.18 0 0 1 2.15-1.58 4.46 4.46 0 0 1 .74.06v1.89a3.9 3.9 0 0 0-.95-.12c-.38 0-.72.08-1.02.24a1.78 1.78 0 0 0-.95 1.65V174h-2.06Z" fill="#89E481"/><rect x="451" y="186" width="103" height="28" rx="14" fill="#89E481"/><path d="m462.8 200 2.8 2.8 5.6-5.6" stroke="#081F34" stroke-width="2.4" stroke-linecap="square" stroke-linejoin="round"/><path d="m483.7 194.36 3.03 9.16h.12l3.02-9.16h2.32L488.1 206h-2.6l-4.1-11.64h2.31Zm12.86 11.81c-.87 0-1.63-.18-2.27-.54a3.69 3.69 0 0 1-1.46-1.56 5.21 5.21 0 0 1-.5-2.38c0-.9.16-1.69.5-2.37a3.87 3.87 0 0 1 3.62-2.16c.54 0 1.05.09 1.53.26s.9.44 1.27.8c.37.36.66.81.87 1.37.22.55.32 1.21.32 1.98v.63h-7.15v-1.39h5.18c0-.4-.09-.74-.26-1.05-.16-.3-.4-.55-.7-.73-.29-.18-.63-.27-1.03-.27a2 2 0 0 0-1.1.3c-.32.2-.57.47-.75.8-.18.33-.26.69-.27 1.08v1.2c0 .52.1.95.28 1.32.19.35.45.63.78.82.33.2.72.29 1.17.29.3 0 .57-.04.81-.13.24-.08.46-.21.63-.38.18-.16.32-.37.4-.62l1.93.22a3 3 0 0 1-.7 1.33c-.33.37-.77.66-1.3.87-.52.2-1.12.31-1.8.31Zm5.62-.17v-8.73h2v1.46h.09a2.18 2.18 0 0 1 2.15-1.58 4.47 4.47 0 0 1 .74.06v1.89a3.88 3.88 0 0 0-.95-.12c-.38 0-.72.08-1.02.24a1.8 1.8 0 0 0-.95 1.65V206h-2.06Zm6.35 0v-8.73h2.05V206h-2.05Zm1.03-9.97c-.33 0-.6-.1-.84-.32a1.04 1.04 0 0 1-.35-.79c0-.31.11-.57.35-.79.23-.22.51-.33.84-.33.33 0 .61.11.84.33.24.22.35.48.35.79 0 .3-.12.57-.35.79-.23.22-.51.32-.84.32Zm7.56 1.24v1.6h-5.16v-1.6h5.16Zm-3.87 8.73v-9.55c0-.59.12-1.08.36-1.47.25-.39.58-.68 1-.87.4-.2.86-.3 1.37-.3a4.81 4.81 0 0 1 1.56.25l-.41 1.59a3.56 3.56 0 0 0-.77-.13c-.39 0-.66.1-.82.28-.15.18-.23.44-.23.78V206h-2.06Zm5.48 0v-8.73h2.06V206h-2.06Zm1.03-9.97c-.32 0-.6-.1-.84-.32a1.04 1.04 0 0 1-.35-.79c0-.31.12-.57.35-.79.24-.22.52-.33.84-.33.33 0 .61.11.84.33.24.22.36.48.36.79 0 .3-.12.57-.36.79-.23.22-.5.32-.84.32Zm7 10.14a4.5 4.5 0 0 1-2.26-.54 3.7 3.7 0 0 1-1.46-1.56 5.21 5.21 0 0 1-.51-2.38c0-.9.17-1.69.5-2.37a3.87 3.87 0 0 1 3.63-2.16c.53 0 1.04.09 1.52.26s.9.44 1.27.8c.37.36.66.81.88 1.37.2.55.31 1.21.31 1.98v.63h-7.15v-1.39h5.18c0-.4-.09-.74-.25-1.05a1.87 1.87 0 0 0-1.74-1 2 2 0 0 0-1.1.3c-.32.2-.57.47-.75.8-.17.33-.26.69-.26 1.08v1.2c0 .52.09.95.27 1.32.19.35.45.63.78.82.34.2.73.29 1.17.29.3 0 .57-.04.82-.13.24-.08.45-.21.63-.38.17-.16.3-.37.4-.62l1.92.22a3 3 0 0 1-.7 1.33c-.33.37-.76.66-1.29.87-.53.2-1.13.31-1.8.31Zm8.86-.02a3.3 3.3 0 0 1-3.12-2.06 5.72 5.72 0 0 1-.47-2.44c0-.97.16-1.79.47-2.46a3.34 3.34 0 0 1 4.39-1.77c.33.17.6.38.78.62.2.24.35.46.45.68h.09v-4.36h2.06V206h-2.02v-1.38h-.13c-.1.22-.26.44-.46.68a2.51 2.51 0 0 1-2.04.85Zm.58-1.68c.43 0 .8-.12 1.11-.36.3-.24.54-.57.7-1 .16-.42.24-.9.24-1.47s-.08-1.06-.24-1.47a2.09 2.09 0 0 0-.7-.98 1.8 1.8 0 0 0-1.11-.34c-.46 0-.84.12-1.15.36-.3.23-.54.56-.7.98-.15.42-.23.9-.23 1.45 0 .54.08 1.03.24 1.46.16.42.39.76.7 1 .3.25.69.37 1.14.37Z" fill="#081F34"/><path d="M378.3 233.54h3.69v11.34c0 1.27-.3 2.39-.91 3.34-.6.96-1.45 1.7-2.53 2.24-1.09.52-2.35.79-3.8.79a8.6 8.6 0 0 1-3.8-.8 6.11 6.11 0 0 1-2.53-2.23c-.6-.95-.9-2.07-.9-3.34v-11.34h3.69v11.03c0 .66.14 1.25.43 1.77.3.51.71.92 1.25 1.22.53.3 1.15.44 1.86.44.72 0 1.34-.15 1.87-.44.53-.3.94-.7 1.24-1.22.3-.52.44-1.11.44-1.78v-11.02Zm17.55 8.1-3.33.2a1.71 1.71 0 0 0-.36-.76 1.93 1.93 0 0 0-.74-.55c-.3-.15-.67-.22-1.09-.22-.56 0-1.03.12-1.42.36-.39.23-.58.55-.58.94 0 .31.13.57.38.8.25.2.68.38 1.28.51l2.37.48c1.28.26 2.22.68 2.85 1.26.63.58.94 1.34.94 2.28 0 .86-.26 1.61-.76 2.26a4.93 4.93 0 0 1-2.06 1.52c-.87.36-1.88.54-3.01.54a7.09 7.09 0 0 1-4.14-1.09 4.22 4.22 0 0 1-1.8-2.96l3.57-.19c.1.53.37.93.78 1.21.42.27.95.4 1.6.4.63 0 1.14-.11 1.53-.36.4-.25.6-.57.6-.96a1 1 0 0 0-.42-.81 3 3 0 0 0-1.26-.5l-2.27-.45a5.43 5.43 0 0 1-2.85-1.33 3.3 3.3 0 0 1-.93-2.4c0-.85.22-1.57.68-2.18.46-.6 1.1-1.08 1.93-1.4.84-.34 1.82-.5 2.94-.5 1.65 0 2.95.35 3.9 1.05.95.7 1.51 1.65 1.67 2.85Zm8.55 9.62a7 7 0 0 1-3.48-.82 5.61 5.61 0 0 1-2.23-2.34 7.71 7.71 0 0 1-.79-3.59c0-1.34.27-2.52.79-3.54a5.8 5.8 0 0 1 2.2-2.38 6.44 6.44 0 0 1 3.36-.85c.87 0 1.67.14 2.42.42a5.35 5.35 0 0 1 3.27 3.31c.31.83.47 1.8.47 2.92v1h-11.06v-2.26H407c0-.52-.11-.98-.34-1.39-.23-.4-.54-.71-.95-.94a2.7 2.7 0 0 0-1.39-.35 2.7 2.7 0 0 0-2.46 1.4c-.23.42-.35.89-.36 1.4v2.14c0 .65.12 1.2.36 1.68.25.47.59.84 1.03 1.1.44.25.97.38 1.58.38.4 0 .77-.06 1.1-.18.34-.1.63-.28.87-.5.24-.23.42-.51.54-.84l3.36.22c-.17.8-.52 1.51-1.05 2.11-.52.6-1.2 1.07-2.03 1.4-.82.33-1.77.5-2.85.5Zm8.38-.26v-13.1h3.52v2.3h.13a3.16 3.16 0 0 1 3.14-2.47 5.41 5.41 0 0 1 1.15.12v3.22a6.32 6.32 0 0 0-1.53-.2 2.9 2.9 0 0 0-1.44.35 2.57 2.57 0 0 0-1.34 2.37V251h-3.63Zm22.93-17.46V251h-3.69v-13.95h-.1l-4 2.5v-3.27l4.32-2.74h3.47Z" fill="#2D0F37"/><rect x="366" y="270" width="164" height="32" rx="4" fill="#F5F3F5"/><path d="M377.47 280.36V292h-2.46v-11.64h2.46ZM379.5 292v-11.64h4.65c.86 0 1.58.13 2.15.38.57.26 1 .61 1.29 1.06.29.45.43.96.43 1.55a2.35 2.35 0 0 1-1.02 2.04c-.32.21-.68.37-1.08.46v.11a2.61 2.61 0 0 1 2.19 1.35c.24.41.36.9.36 1.47 0 .62-.15 1.17-.46 1.66-.3.48-.75.86-1.34 1.14-.6.28-1.33.42-2.2.42h-4.97Zm2.46-2.01h2c.69 0 1.19-.13 1.5-.4.32-.26.47-.61.47-1.05 0-.32-.07-.6-.23-.85a1.58 1.58 0 0 0-.66-.58 2.29 2.29 0 0 0-1.02-.21h-2.06v3.09Zm0-4.76h1.82c.34 0 .64-.06.9-.17.26-.12.47-.3.62-.51.16-.22.24-.49.24-.8 0-.42-.15-.75-.45-1.01-.3-.26-.72-.39-1.26-.39h-1.87v2.88Zm10.12 6.77h-2.64l4.02-11.64h3.17l4.01 11.64h-2.63l-2.92-8.98H395l-2.92 8.98Zm-.16-4.57h6.22v1.92h-6.22v-1.92Zm19.86-7.07V292h-2.13l-5.06-7.32h-.09V292h-2.46v-11.64h2.16l5.02 7.32h.1v-7.32h2.46Zm3.4 10.29c-.38 0-.7-.13-.97-.4-.26-.26-.4-.59-.4-.97 0-.37.14-.68.4-.95.27-.27.6-.4.97-.4.36 0 .68.13.95.4.27.27.41.58.41.95 0 .25-.06.48-.2.7-.12.2-.28.36-.49.49-.2.12-.43.18-.67.18Zm0-5.71c-.38 0-.7-.13-.97-.4-.26-.27-.4-.59-.4-.97 0-.37.14-.68.4-.94.27-.27.6-.4.97-.4.36 0 .68.13.95.4.27.26.41.57.41.94a1.43 1.43 0 0 1-.69 1.18c-.2.13-.43.19-.67.19Zm14.28-4.58h2.47v7.56c0 .85-.2 1.6-.61 2.23-.4.63-.97 1.13-1.7 1.49a5.7 5.7 0 0 1-2.52.53c-.97 0-1.81-.18-2.53-.53a4.07 4.07 0 0 1-1.7-1.5 4.1 4.1 0 0 1-.6-2.22v-7.56h2.47v7.35c0 .44.1.84.29 1.18.2.35.47.62.83.81.35.2.77.3 1.24.3.48 0 .9-.1 1.25-.3.35-.2.63-.46.82-.8.2-.35.3-.75.3-1.19v-7.35Zm11.7 5.4-2.21.14a1.15 1.15 0 0 0-.25-.51 1.3 1.3 0 0 0-.49-.37c-.2-.1-.44-.14-.72-.14-.38 0-.7.07-.95.23-.26.16-.39.37-.39.63 0 .2.09.38.25.53.17.14.46.26.86.34l1.58.32c.85.18 1.48.46 1.9.84.41.39.62.9.62 1.53 0 .57-.17 1.07-.5 1.5-.34.43-.8.77-1.38 1.01-.58.24-1.25.36-2 .36a4.72 4.72 0 0 1-2.76-.72 2.81 2.81 0 0 1-1.2-1.98l2.38-.12c.07.35.24.62.52.8.28.19.63.28 1.06.28.43 0 .77-.08 1.03-.25.26-.17.39-.38.4-.64-.01-.22-.1-.4-.29-.54a2 2 0 0 0-.84-.33l-1.5-.3a3.62 3.62 0 0 1-1.91-.89 2.2 2.2 0 0 1-.62-1.6c0-.57.15-1.05.45-1.45.31-.4.74-.72 1.3-.94a5.3 5.3 0 0 1 1.95-.33c1.1 0 1.97.23 2.6.7.64.46 1 1.1 1.12 1.9Zm5.7 6.41c-.9 0-1.67-.18-2.31-.55a3.73 3.73 0 0 1-1.5-1.55 5.15 5.15 0 0 1-.51-2.4c0-.9.17-1.68.52-2.36.35-.68.84-1.2 1.47-1.58a4.29 4.29 0 0 1 2.24-.57c.57 0 1.11.1 1.6.28a3.56 3.56 0 0 1 2.19 2.2c.2.56.31 1.2.31 1.95v.67h-7.37v-1.5h5.1c0-.35-.08-.66-.24-.93a1.62 1.62 0 0 0-.63-.63 1.8 1.8 0 0 0-.92-.23 1.86 1.86 0 0 0-1.64.93c-.16.28-.24.6-.24.94v1.42c0 .43.08.8.24 1.12.16.31.39.56.68.73.3.17.65.25 1.05.25.27 0 .52-.03.74-.11a1.47 1.47 0 0 0 .94-.9l2.24.15c-.11.54-.35 1-.7 1.4-.35.4-.8.72-1.35.94-.55.22-1.19.33-1.9.33Zm5.59-.17v-8.73h2.35v1.53h.09a2.1 2.1 0 0 1 2.1-1.65 3.68 3.68 0 0 1 .76.08v2.15a4.15 4.15 0 0 0-1.02-.13c-.36 0-.68.08-.96.23a1.72 1.72 0 0 0-.9 1.58V292h-2.42Zm11.72-5.74v1.92h-5.3v-1.92h5.3Zm12.8-.08c0 1.27-.24 2.35-.72 3.24a5 5 0 0 1-1.96 2.04c-.82.47-1.74.7-2.77.7a5.52 5.52 0 0 1-2.78-.7 5.02 5.02 0 0 1-1.95-2.04 6.76 6.76 0 0 1-.72-3.24c0-1.27.24-2.35.72-3.24a4.98 4.98 0 0 1 1.95-2.03 5.5 5.5 0 0 1 2.78-.7c1.03 0 1.95.23 2.77.7a4.97 4.97 0 0 1 1.96 2.03c.48.9.72 1.97.72 3.24Zm-2.5 0a5.2 5.2 0 0 0-.36-2.08c-.25-.56-.59-.99-1.03-1.28-.44-.3-.96-.44-1.56-.44-.6 0-1.11.15-1.56.44-.44.29-.78.72-1.03 1.28a5.28 5.28 0 0 0-.36 2.08c0 .82.12 1.52.36 2.08.25.57.6 1 1.03 1.29.45.29.97.43 1.56.43.6 0 1.12-.14 1.56-.44.44-.29.78-.71 1.03-1.28a5.2 5.2 0 0 0 .37-2.08Zm6 5.82-2.38-8.73h2.45l1.35 5.87h.08l1.41-5.87h2.4l1.44 5.83h.07l1.33-5.83h2.44L488.7 292h-2.57l-1.5-5.49h-.1l-1.5 5.49h-2.56Zm14.3-5.05V292h-2.41v-8.73h2.3v1.54h.1c.2-.5.52-.9.98-1.2.45-.3 1-.45 1.65-.45.6 0 1.13.13 1.59.4.45.26.8.64 1.05 1.13.25.5.37 1.07.37 1.75V292h-2.42v-5.13c0-.53-.13-.95-.4-1.25-.28-.3-.66-.45-1.15-.45-.32 0-.61.07-.86.21-.25.14-.44.35-.58.61-.14.27-.2.59-.21.96Zm11.52 5.22c-.9 0-1.67-.18-2.32-.55a3.73 3.73 0 0 1-1.49-1.55 5.15 5.15 0 0 1-.52-2.4c0-.9.17-1.68.52-2.36.35-.68.84-1.2 1.47-1.58a4.29 4.29 0 0 1 2.24-.57c.58 0 1.11.1 1.6.28a3.56 3.56 0 0 1 2.19 2.2c.2.56.31 1.2.31 1.95v.67h-7.37v-1.5h5.1c0-.35-.08-.66-.23-.93a1.63 1.63 0 0 0-.63-.63 1.8 1.8 0 0 0-.93-.23 1.86 1.86 0 0 0-1.64.93c-.15.28-.24.6-.24.94v1.42c0 .43.08.8.24 1.12.16.31.39.56.69.73.3.17.64.25 1.05.25.27 0 .51-.03.74-.11a1.47 1.47 0 0 0 .94-.9l2.23.15c-.11.54-.35 1-.7 1.4-.35.4-.8.72-1.35.94-.55.22-1.18.33-1.9.33Zm8.8-.03a3.3 3.3 0 0 1-1.8-.5 3.56 3.56 0 0 1-1.28-1.53 5.86 5.86 0 0 1-.46-2.46c0-1 .16-1.83.48-2.5a3.3 3.3 0 0 1 4.27-1.74c.33.16.6.37.8.61.2.25.36.48.47.72h.07v-4.38h2.41V292h-2.38v-1.4h-.1c-.12.25-.28.48-.49.72-.2.24-.47.43-.8.59-.32.15-.72.23-1.2.23Zm.76-1.92c.4 0 .73-.11 1-.32.27-.22.48-.52.62-.9.15-.4.22-.85.22-1.36 0-.52-.07-.97-.22-1.36a1.94 1.94 0 0 0-.62-.88c-.27-.21-.6-.31-1-.31s-.73.1-1 .32c-.27.21-.48.51-.62.9-.14.38-.21.82-.21 1.33 0 .5.07.95.21 1.34.14.39.35.7.62.91.27.22.6.33 1 .33Z" fill="#2D0F37"/><rect x="366" y="310" width="66" height="32" rx="4" fill="#F5F3F5"/><path d="m377.63 332-3.33-11.64H377l1.93 8.09h.1l2.12-8.09h2.3l2.12 8.1h.1l1.92-8.1h2.7L386.93 332h-2.4l-2.21-7.6h-.1l-2.2 7.6h-2.4Zm15.47.17c-.56 0-1.06-.1-1.5-.3a2.4 2.4 0 0 1-1.03-.86 2.6 2.6 0 0 1-.37-1.45c0-.48.09-.89.26-1.22.18-.33.43-.6.73-.8.3-.2.66-.35 1.05-.45.4-.1.8-.17 1.24-.21.5-.06.91-.1 1.22-.15.31-.05.54-.12.68-.22s.2-.23.2-.42v-.03c0-.36-.1-.64-.33-.84a1.4 1.4 0 0 0-.96-.3c-.43 0-.78.1-1.04.3-.25.18-.42.42-.5.71l-2.25-.18a3.04 3.04 0 0 1 1.96-2.27 5.56 5.56 0 0 1 3.23-.15c.45.11.85.29 1.2.53a2.58 2.58 0 0 1 1.12 2.25V332h-2.3v-1.21h-.06a2.46 2.46 0 0 1-1.41 1.2c-.33.12-.71.18-1.14.18Zm.69-1.68c.35 0 .67-.07.94-.2.27-.15.49-.34.64-.59.16-.24.24-.51.24-.82v-.93c-.08.05-.18.1-.32.14a5.71 5.71 0 0 1-.92.2l-.44.06c-.29.04-.54.1-.75.2-.21.09-.38.2-.5.37a.9.9 0 0 0-.17.56c0 .33.12.58.36.76.24.17.55.25.92.25Zm8.52-10.13V332h-2.42v-11.64h2.42Zm4.36 0V332h-2.42v-11.64h2.42Zm5.91 11.81c-.9 0-1.67-.18-2.31-.55a3.73 3.73 0 0 1-1.5-1.55 5.15 5.15 0 0 1-.52-2.4c0-.9.18-1.68.53-2.36.35-.68.84-1.2 1.47-1.58a4.29 4.29 0 0 1 2.24-.57c.57 0 1.1.1 1.6.28a3.56 3.56 0 0 1 2.19 2.2c.2.56.3 1.2.3 1.95v.67h-7.36v-1.5h5.1c0-.35-.08-.66-.24-.93a1.63 1.63 0 0 0-.63-.63 1.8 1.8 0 0 0-.92-.23 1.86 1.86 0 0 0-1.64.93c-.16.28-.24.6-.24.94v1.42c0 .43.08.8.24 1.12.16.31.39.56.68.73.3.17.65.25 1.05.25.27 0 .52-.03.74-.11a1.49 1.49 0 0 0 .94-.9l2.24.15c-.12.54-.35 1-.7 1.4-.35.4-.8.72-1.35.94-.55.22-1.19.33-1.9.33Zm10.23-8.9v1.82h-5.25v-1.82h5.25Zm-4.06-2.09h2.42v8.14c0 .22.03.4.1.52s.16.2.29.26c.12.05.26.07.43.07a2.06 2.06 0 0 0 .6-.08l.38 1.8-.51.13c-.22.06-.49.09-.8.1-.59.02-1.1-.06-1.54-.23a2.14 2.14 0 0 1-1.01-.83 2.53 2.53 0 0 1-.36-1.42v-8.46Z" fill="#2D0F37"/></g><path d="m317 282-10-5.77v11.54l10-5.77Zm-180 1h171v-2H137v2Z" fill="#2D0F37"/><rect x="189" y="266" width="75" height="32" rx="16" fill="#2D0F37"/><path d="M202.84 288v-11.64h4.37c.9 0 1.64.17 2.25.5.6.34 1.07.8 1.38 1.38.31.58.47 1.24.47 1.98s-.16 1.4-.47 1.98a3.37 3.37 0 0 1-1.4 1.37c-.6.33-1.36.5-2.26.5h-2.9v-1.74h2.61c.53 0 .96-.09 1.29-.27.33-.18.58-.43.74-.75.16-.32.24-.68.24-1.1 0-.4-.08-.77-.24-1.08-.16-.32-.41-.56-.75-.74a2.73 2.73 0 0 0-1.29-.26h-1.93V288h-2.1Zm12.56.18c-.55 0-1.05-.1-1.49-.3-.44-.2-.79-.5-1.05-.89a2.6 2.6 0 0 1-.38-1.44c0-.5.1-.9.28-1.22.18-.32.43-.58.74-.77.31-.2.67-.34 1.06-.44.4-.1.81-.18 1.24-.22l1.24-.14c.32-.05.55-.12.7-.2.14-.1.22-.25.22-.45v-.03c0-.43-.13-.76-.39-1-.25-.23-.61-.35-1.1-.35-.5 0-.9.11-1.2.33-.28.22-.48.48-.58.78l-1.92-.27a3.06 3.06 0 0 1 2.03-2.14 5.4 5.4 0 0 1 2.93-.13c.4.1.79.27 1.13.5.35.22.63.52.83.91.22.39.32.87.32 1.45V288h-1.97v-1.2h-.07a2.5 2.5 0 0 1-1.38 1.19c-.34.12-.73.19-1.19.19Zm.54-1.51c.41 0 .77-.09 1.07-.25.3-.17.54-.39.7-.66.17-.27.25-.57.25-.9v-1.02a.97.97 0 0 1-.33.15l-.51.12-.56.09-.49.07c-.3.04-.58.1-.82.2s-.43.23-.57.4a.97.97 0 0 0-.21.65c0 .38.13.66.41.86.28.19.63.29 1.06.29Zm7.1 4.6a4.2 4.2 0 0 1-1.33-.21l.47-1.6c.3.08.57.12.8.12.24 0 .45-.08.62-.22.19-.14.34-.38.46-.7l.18-.48-3.17-8.9h2.19l2 6.58h.1l2.02-6.59h2.18l-3.5 9.79c-.15.46-.37.86-.64 1.18-.27.34-.6.6-.99.77a3.3 3.3 0 0 1-1.38.26Zm13.24-8.96V284h-5.24v-1.7h5.24Zm2.16 5.69v-8.73h2.06V288h-2.06Zm1.03-9.97c-.32 0-.6-.1-.84-.32a1.04 1.04 0 0 1-.35-.79c0-.31.12-.57.35-.79.24-.22.52-.33.84-.33.33 0 .61.11.84.33.24.22.36.48.36.79 0 .3-.12.57-.35.79-.24.22-.52.32-.85.32Zm5.2 4.86V288h-2.06v-8.73h1.97v1.49h.1c.2-.5.52-.88.96-1.17.44-.29.99-.43 1.64-.43.6 0 1.13.13 1.58.38.45.26.8.64 1.04 1.13.25.48.37 1.08.37 1.77V288h-2.06v-5.24c0-.58-.15-1.04-.45-1.37a1.6 1.6 0 0 0-1.25-.5c-.35 0-.67.09-.95.25-.28.15-.5.38-.66.67-.15.3-.23.66-.23 1.08Z" fill="#fff"/><path d="m137 322 10 5.77v-11.54L137 322Zm9 1h171v-2H146v2Z" fill="#2D0F37"/><rect x="189" y="306" width="79" height="32" rx="16" fill="#2D0F37"/><path d="M202.9 328v-11.64h4.37c.9 0 1.64.17 2.25.5.6.34 1.07.8 1.38 1.38.31.58.47 1.24.47 1.98s-.16 1.4-.47 1.98a3.38 3.38 0 0 1-1.4 1.37c-.6.33-1.36.5-2.26.5h-2.9v-1.74h2.62c.52 0 .95-.09 1.28-.27.33-.18.58-.43.74-.75.16-.32.24-.68.24-1.1 0-.4-.08-.77-.24-1.08-.16-.32-.4-.56-.74-.74a2.73 2.73 0 0 0-1.3-.26h-1.93V328h-2.1Zm12.57.18c-.56 0-1.06-.1-1.5-.3-.44-.2-.79-.5-1.04-.89a2.59 2.59 0 0 1-.38-1.44 2.11 2.11 0 0 1 1.02-2c.3-.19.66-.33 1.06-.43.4-.1.8-.18 1.23-.22l1.24-.14c.32-.05.55-.12.7-.2.14-.1.22-.25.22-.45v-.03c0-.43-.13-.76-.38-1-.26-.23-.62-.35-1.1-.35-.5 0-.9.11-1.2.33-.29.22-.49.48-.59.78l-1.92-.27a3.08 3.08 0 0 1 2.03-2.14 5.42 5.42 0 0 1 2.93-.13c.41.1.8.27 1.14.5.34.22.62.52.83.91.2.39.31.87.31 1.45V328h-1.97v-1.2h-.07a2.5 2.5 0 0 1-1.38 1.19c-.33.12-.73.19-1.18.19Zm.53-1.51c.41 0 .77-.09 1.07-.25a1.8 1.8 0 0 0 .95-1.55v-1.03a.97.97 0 0 1-.33.15 17.29 17.29 0 0 1-1.07.21l-.48.07c-.31.04-.58.1-.83.2-.24.1-.43.23-.57.4a.97.97 0 0 0-.21.65c0 .38.14.66.41.86.28.19.63.29 1.06.29Zm7.1 4.6a4.2 4.2 0 0 1-1.33-.21l.47-1.6c.3.08.57.12.8.12.24 0 .45-.08.63-.22s.33-.38.46-.7l.17-.48-3.16-8.9h2.18l2.01 6.58h.1l2-6.59h2.2l-3.5 9.79c-.16.46-.38.86-.65 1.18-.26.34-.6.6-.98.77-.4.17-.85.26-1.4.26Zm11.46-3.1c-.85 0-1.6-.19-2.22-.56a3.82 3.82 0 0 1-1.45-1.58 5.18 5.18 0 0 1-.51-2.36c0-.9.17-1.7.5-2.37.35-.68.84-1.2 1.46-1.58a4.23 4.23 0 0 1 2.22-.56c.85 0 1.59.19 2.22.56.62.38 1.1.9 1.44 1.58.35.68.52 1.47.52 2.37 0 .9-.17 1.69-.52 2.36-.34.68-.82 1.2-1.44 1.58-.63.37-1.37.56-2.22.56Zm.01-1.65c.46 0 .85-.12 1.16-.38.31-.26.54-.6.7-1.03.15-.43.23-.92.23-1.44 0-.54-.08-1.02-.24-1.45a2.3 2.3 0 0 0-.7-1.04c-.3-.26-.69-.39-1.15-.39-.47 0-.87.13-1.18.39-.31.25-.54.6-.7 1.04-.15.43-.23.91-.23 1.44 0 .53.08 1.02.23 1.45.16.43.39.77.7 1.03.31.26.7.38 1.18.38Zm11.48-2.19v-5.06h2.06V328h-2v-1.55h-.09c-.2.49-.52.89-.97 1.2-.45.3-1 .46-1.65.46a2.65 2.65 0 0 1-2.54-1.5 3.96 3.96 0 0 1-.37-1.78v-5.56h2.05v5.24c0 .55.16 1 .46 1.32.3.32.7.49 1.2.49.3 0 .59-.08.87-.22.29-.15.52-.37.7-.66.19-.3.28-.67.28-1.11Zm8.53-5.06v1.6h-5.02v-1.6h5.02Zm-3.78-2.09h2.06v8.2c0 .27.04.48.12.63.09.14.2.24.34.3.14.05.3.08.47.08a2 2 0 0 0 .6-.08l.35 1.6a4.7 4.7 0 0 1-1.21.2c-.52.02-.98-.05-1.4-.22a2.16 2.16 0 0 1-.98-.81 2.41 2.41 0 0 1-.35-1.36v-8.54Z" fill="#fff"/><path d="m782 282-10-5.77v11.54l10-5.77Zm-180 1h171v-2H602v2Z" fill="#2D0F37"/><rect x="646" y="266" width="91" height="32" rx="16" fill="#2D0F37"/><path d="M659.59 278.13v-1.77h9.28v1.77h-3.6V288h-2.08v-9.87h-3.6Zm10.08 9.87v-8.73h2v1.46h.08a2.18 2.18 0 0 1 2.15-1.58 4.5 4.5 0 0 1 .74.06v1.89a3.9 3.9 0 0 0-.95-.12c-.38 0-.71.08-1.01.24a1.78 1.78 0 0 0-.96 1.65V288h-2.05Zm8.7.18c-.56 0-1.06-.1-1.5-.3-.44-.2-.79-.5-1.04-.89a2.59 2.59 0 0 1-.38-1.44c0-.5.09-.9.27-1.22.18-.32.43-.58.74-.77.32-.2.67-.34 1.06-.44.4-.1.81-.18 1.24-.22l1.24-.14c.32-.05.55-.12.7-.2.14-.1.22-.25.22-.45v-.03c0-.43-.13-.76-.38-1-.26-.23-.62-.35-1.1-.35-.5 0-.9.11-1.2.33-.3.22-.49.48-.6.78l-1.91-.27a3.06 3.06 0 0 1 2.03-2.14 5.4 5.4 0 0 1 2.93-.13c.41.1.8.27 1.14.5.34.22.62.52.82.91.22.39.32.87.32 1.45V288H681v-1.2h-.07a2.5 2.5 0 0 1-1.38 1.19c-.33.12-.73.19-1.18.19Zm.53-1.51c.41 0 .77-.09 1.07-.25.3-.17.54-.39.7-.66.17-.27.25-.57.25-.9v-1.02a.98.98 0 0 1-.33.15l-.5.12-.57.09-.48.07c-.31.04-.59.1-.83.2s-.43.23-.57.4a.97.97 0 0 0-.21.65c0 .38.14.66.41.86.28.19.63.29 1.06.29Zm8.2-3.78V288h-2.06v-8.73h1.97v1.49h.1c.2-.5.52-.88.96-1.17.44-.29.99-.43 1.64-.43.6 0 1.13.13 1.58.38.45.26.8.64 1.04 1.13.25.48.37 1.08.37 1.77V288h-2.06v-5.24c0-.58-.15-1.04-.45-1.37a1.6 1.6 0 0 0-1.25-.5c-.36 0-.68.09-.96.25-.27.15-.49.38-.65.67-.15.3-.23.66-.23 1.08Zm14.59-1.31-1.88.2a1.52 1.52 0 0 0-.27-.53c-.13-.17-.3-.3-.53-.4a1.9 1.9 0 0 0-.8-.16c-.43 0-.8.1-1.08.28-.3.19-.43.43-.43.72 0 .26.09.46.28.62.2.16.51.3.95.4l1.5.31c.82.18 1.43.46 1.83.85.4.39.61.9.62 1.52 0 .55-.17 1.03-.49 1.45-.31.42-.75.74-1.3.98-.57.23-1.21.35-1.94.35a4.48 4.48 0 0 1-2.58-.67 2.7 2.7 0 0 1-1.17-1.88l2.01-.2c.1.4.29.7.58.9.3.2.68.3 1.15.3.5 0 .88-.1 1.18-.3.3-.2.45-.45.45-.75 0-.25-.1-.45-.3-.62a2.02 2.02 0 0 0-.88-.37l-1.49-.31a3.54 3.54 0 0 1-1.85-.88c-.4-.42-.6-.95-.6-1.58 0-.54.14-1 .44-1.4.3-.4.71-.7 1.24-.92a4.82 4.82 0 0 1 1.85-.33c1.02 0 1.83.22 2.41.65.6.44.96 1.03 1.1 1.77Zm6.3-2.3v1.58h-5.16v-1.59H708Zm-3.87 8.72v-9.55c0-.59.13-1.08.37-1.47.24-.39.57-.68.99-.87.4-.2.87-.3 1.37-.3a4.81 4.81 0 0 1 1.56.25l-.4 1.59a3.56 3.56 0 0 0-.78-.13c-.38 0-.65.1-.81.28-.16.18-.23.44-.23.78V288h-2.07Zm9.02.17a4.5 4.5 0 0 1-2.27-.55 3.7 3.7 0 0 1-1.46-1.55 5.21 5.21 0 0 1-.5-2.38c0-.9.16-1.69.5-2.37a3.87 3.87 0 0 1 3.62-2.16c.54 0 1.05.09 1.52.26.49.17.9.44 1.28.8.37.36.66.81.87 1.37.21.55.32 1.21.32 1.98v.63h-7.15v-1.39h5.18c0-.4-.1-.74-.26-1.05a1.87 1.87 0 0 0-1.73-1 2 2 0 0 0-1.1.3c-.33.2-.58.47-.75.8-.18.33-.27.69-.27 1.08v1.2c0 .51.1.95.28 1.31.18.36.44.64.78.83.33.2.72.29 1.17.29.3 0 .57-.04.81-.13.24-.08.45-.21.63-.38.18-.16.31-.37.4-.62l1.92.22a3 3 0 0 1-.69 1.33c-.34.37-.77.66-1.3.87-.52.2-1.12.31-1.8.31Zm5.62-.17v-8.73h2v1.46h.09a2.18 2.18 0 0 1 2.15-1.58 4.46 4.46 0 0 1 .74.06v1.89a3.88 3.88 0 0 0-.95-.12c-.38 0-.72.08-1.02.24a1.8 1.8 0 0 0-.95 1.65V288h-2.06Z" fill="#fff"/><path d="m602 322 10-5.77v11.54L602 322Zm180 1H611v-2h171v2Z" fill="#2D0F37"/><rect x="646" y="306" width="91" height="32" rx="16" fill="#2D0F37"/><path d="M659.59 318.13v-1.77h9.28v1.77h-3.6V328h-2.08v-9.87h-3.6Zm10.08 9.87v-8.73h2v1.46h.08a2.18 2.18 0 0 1 2.15-1.58 4.5 4.5 0 0 1 .74.06v1.89a3.9 3.9 0 0 0-.95-.12c-.38 0-.71.08-1.01.24a1.78 1.78 0 0 0-.96 1.65V328h-2.05Zm8.7.18c-.56 0-1.06-.1-1.5-.3-.44-.2-.79-.5-1.04-.89a2.59 2.59 0 0 1-.38-1.44c0-.5.09-.9.27-1.22.18-.32.43-.58.74-.77.32-.2.67-.34 1.06-.44.4-.1.81-.18 1.24-.22l1.24-.14c.32-.05.55-.12.7-.2.14-.1.22-.25.22-.45v-.03c0-.43-.13-.76-.38-1-.26-.23-.62-.35-1.1-.35-.5 0-.9.11-1.2.33-.3.22-.49.48-.6.78l-1.91-.27a3.06 3.06 0 0 1 2.03-2.14 5.4 5.4 0 0 1 2.93-.13c.41.1.8.27 1.14.5.34.22.62.52.82.91.22.39.32.87.32 1.45V328H681v-1.2h-.07a2.5 2.5 0 0 1-1.38 1.19c-.33.12-.73.19-1.18.19Zm.53-1.51c.41 0 .77-.09 1.07-.25.3-.17.54-.39.7-.66.17-.27.25-.57.25-.9v-1.02a.98.98 0 0 1-.33.15l-.5.12-.57.09-.48.07c-.31.04-.59.1-.83.2s-.43.23-.57.4a.97.97 0 0 0-.21.65c0 .38.14.66.41.86.28.19.63.29 1.06.29Zm8.2-3.78V328h-2.06v-8.73h1.97v1.49h.1c.2-.5.52-.88.96-1.17.44-.29.99-.43 1.64-.43.6 0 1.13.13 1.58.38.45.26.8.64 1.04 1.13.25.48.37 1.08.37 1.77V328h-2.06v-5.24c0-.58-.15-1.04-.45-1.37a1.6 1.6 0 0 0-1.25-.5c-.36 0-.68.09-.96.25-.27.15-.49.38-.65.67-.15.3-.23.66-.23 1.08Zm14.59-1.31-1.88.2a1.52 1.52 0 0 0-.27-.53c-.13-.17-.3-.3-.53-.4a1.9 1.9 0 0 0-.8-.16c-.43 0-.8.1-1.08.28-.3.19-.43.43-.43.72 0 .26.09.46.28.62.2.16.51.3.95.4l1.5.31c.82.18 1.43.46 1.83.85.4.39.61.9.62 1.52 0 .55-.17 1.03-.49 1.45-.31.42-.75.74-1.3.98-.57.23-1.21.35-1.94.35a4.48 4.48 0 0 1-2.58-.67 2.7 2.7 0 0 1-1.17-1.88l2.01-.2c.1.4.29.7.58.9.3.2.68.3 1.15.3.5 0 .88-.1 1.18-.3.3-.2.45-.45.45-.75 0-.25-.1-.45-.3-.62a2.02 2.02 0 0 0-.88-.37l-1.49-.31a3.54 3.54 0 0 1-1.85-.88c-.4-.42-.6-.95-.6-1.58 0-.54.14-1 .44-1.4.3-.4.71-.7 1.24-.92a4.82 4.82 0 0 1 1.85-.33c1.02 0 1.83.22 2.41.65.6.44.96 1.03 1.1 1.77Zm6.3-2.3v1.58h-5.16v-1.59H708Zm-3.87 8.72v-9.55c0-.59.13-1.08.37-1.47.24-.39.57-.68.99-.87.4-.2.87-.3 1.37-.3a4.81 4.81 0 0 1 1.56.25l-.4 1.59a3.56 3.56 0 0 0-.78-.13c-.38 0-.65.1-.81.28-.16.18-.23.44-.23.78V328h-2.07Zm9.02.17a4.5 4.5 0 0 1-2.27-.55 3.7 3.7 0 0 1-1.46-1.55 5.21 5.21 0 0 1-.5-2.38c0-.9.16-1.69.5-2.37a3.87 3.87 0 0 1 3.62-2.16c.54 0 1.05.09 1.52.26.49.17.9.44 1.28.8.37.36.66.81.87 1.37.21.55.32 1.21.32 1.98v.63h-7.15v-1.39h5.18c0-.4-.1-.74-.26-1.05a1.87 1.87 0 0 0-1.73-1 2 2 0 0 0-1.1.3c-.33.2-.58.47-.75.8-.18.33-.27.69-.27 1.08v1.2c0 .51.1.95.28 1.31.18.36.44.64.78.83.33.2.72.29 1.17.29.3 0 .57-.04.81-.13.24-.08.45-.21.63-.38.18-.16.31-.37.4-.62l1.92.22a3 3 0 0 1-.69 1.33c-.34.37-.77.66-1.3.87-.52.2-1.12.31-1.8.31Zm5.62-.17v-8.73h2v1.46h.09a2.18 2.18 0 0 1 2.15-1.58 4.46 4.46 0 0 1 .74.06v1.89a3.88 3.88 0 0 0-.95-.12c-.38 0-.72.08-1.02.24a1.8 1.8 0 0 0-.95 1.65V328h-2.06Z" fill="#fff"/><defs><filter id="a" x="790" y="120" width="268" height="270" filterUnits="userSpaceOnUse" color-interpolation-filters="sRGB"><feFlood flood-opacity="0" result="BackgroundImageFix"/><feColorMatrix in="SourceAlpha" values="0 0 0 0 0 0 0 0 0 0 0 0 0 0 0 0 0 0 127 0" result="hardAlpha"/><feOffset dy="2"/><feGaussianBlur stdDeviation="3"/><feColorMatrix values="0 0 0 0 0.176471 0 0 0 0 0.0588235 0 0 0 0 0.215686 0 0 0 0.05 0"/><feBlend in2="BackgroundImageFix" result="effect1_dropShadow_35467_366"/><feColorMatrix in="SourceAlpha" values="0 0 0 0 0 0 0 0 0 0 0 0 0 0 0 0 0 0 127 0" result="hardAlpha"/><feOffset dy="-2"/><feGaussianBlur stdDeviation="3"/><feColorMatrix values="0 0 0 0 0.176471 0 0 0 0 0.0588235 0 0 0 0 0.215686 0 0 0 0.02 0"/><feBlend in2="effect1_dropShadow_35467_366" result="effect2_dropShadow_35467_366"/><feColorMatrix in="SourceAlpha" values="0 0 0 0 0 0 0 0 0 0 0 0 0 0 0 0 0 0 127 0" result="hardAlpha"/><feOffset dy="10"/><feGaussianBlur stdDeviation="8"/><feColorMatrix values="0 0 0 0 0.176471 0 0 0 0 0.0588235 0 0 0 0 0.215686 0 0 0 0.05 0"/><feBlend in2="effect2_dropShadow_35467_366" result="effect3_dropShadow_35467_366"/><feBlend in="SourceGraphic" in2="effect3_dropShadow_35467_366" result="shape"/></filter><filter id="b" x="326" y="122" width="268" height="270" filterUnits="userSpaceOnUse" color-interpolation-filters="sRGB"><feFlood flood-opacity="0" result="BackgroundImageFix"/><feColorMatrix in="SourceAlpha" values="0 0 0 0 0 0 0 0 0 0 0 0 0 0 0 0 0 0 127 0" result="hardAlpha"/><feOffset dy="2"/><feGaussianBlur stdDeviation="3"/><feColorMatrix values="0 0 0 0 0.176471 0 0 0 0 0.0588235 0 0 0 0 0.215686 0 0 0 0.05 0"/><feBlend in2="BackgroundImageFix" result="effect1_dropShadow_35467_366"/><feColorMatrix in="SourceAlpha" values="0 0 0 0 0 0 0 0 0 0 0 0 0 0 0 0 0 0 127 0" result="hardAlpha"/><feOffset dy="-2"/><feGaussianBlur stdDeviation="3"/><feColorMatrix values="0 0 0 0 0.176471 0 0 0 0 0.0588235 0 0 0 0 0.215686 0 0 0 0.02 0"/><feBlend in2="effect1_dropShadow_35467_366" result="effect2_dropShadow_35467_366"/><feColorMatrix in="SourceAlpha" values="0 0 0 0 0 0 0 0 0 0 0 0 0 0 0 0 0 0 127 0" result="hardAlpha"/><feOffset dy="10"/><feGaussianBlur stdDeviation="8"/><feColorMatrix values="0 0 0 0 0.176471 0 0 0 0 0.0588235 0 0 0 0 0.215686 0 0 0 0.05 0"/><feBlend in2="effect2_dropShadow_35467_366" result="effect3_dropShadow_35467_366"/><feBlend in="SourceGraphic" in2="effect3_dropShadow_35467_366" result="shape"/></filter></defs></svg>