<svg width="1284" height="588" viewBox="0 0 1284 588" fill="none" xmlns="http://www.w3.org/2000/svg">
<rect x="0.5" y="0.5" width="1283" height="587" rx="31.5" fill="white"/>
<rect x="0.5" y="0.5" width="1283" height="587" rx="31.5" stroke="#E0DBE1"/>
<rect x="278" y="80" width="926" height="428" rx="24" fill="#F5F3F5"/>
<path d="M730.708 118.541C730.11 118.181 729.385 118 728.533 118C727.791 118 727.141 118.15 726.583 118.448C726.025 118.747 725.566 119.158 725.207 119.682H725.162V118.251H721.968V129.51H725.162V123.1C725.162 122.656 725.252 122.257 725.432 121.904C725.612 121.55 725.866 121.274 726.197 121.074C726.527 120.874 726.92 120.773 727.376 120.773C727.993 120.773 728.473 120.966 728.819 121.352C729.164 121.738 729.336 122.281 729.336 122.979V129.509H732.519V122.532C732.519 121.578 732.367 120.765 732.061 120.091C731.757 119.418 731.305 118.901 730.706 118.541H730.708Z" fill="#2D0F37"/>
<path d="M703.931 118.011H704.046C706.25 118.011 708.035 119.782 708.036 121.966V129.484H704.897V121.765C704.897 121.22 704.453 120.779 703.903 120.779H703.873C703.414 120.779 703.015 121.09 702.906 121.532L701.461 127.432C701.132 128.777 699.918 129.724 698.523 129.725C696.849 129.726 695.492 128.382 695.492 126.723V121.761C695.492 121.218 695.047 120.778 694.5 120.778C694.042 120.778 693.644 121.089 693.536 121.53L692.103 127.38C691.766 128.755 690.525 129.724 689.098 129.725C687.388 129.727 686 128.352 686 126.656V118.242H689.171V127.191H689.199L690.667 121.107C691.071 119.298 692.689 118.011 694.557 118.011C696.758 118.011 698.542 119.78 698.541 121.961V127.191H698.569L700.036 121.111C700.442 119.299 702.061 118.011 703.931 118.011Z" fill="#2D0F37"/>
<path fill-rule="evenodd" clip-rule="evenodd" d="M717.558 119.65H717.624L717.623 119.649V118.262H720.816V129.512H717.634V128.125H717.556C717.285 128.474 716.96 128.771 716.582 129.015C716.204 129.259 715.79 129.445 715.338 129.572C714.885 129.699 714.406 129.763 713.9 129.763C712.931 129.763 712.062 129.523 711.295 129.047C710.528 128.571 709.928 127.89 709.495 127.005C709.061 126.121 708.845 125.044 708.845 123.909C708.845 122.773 709.056 121.756 709.478 120.856C709.9 119.958 710.495 119.259 711.263 118.76C712.03 118.262 712.921 118.012 713.934 118.012C714.455 118.012 714.942 118.077 715.393 118.208C715.844 118.34 716.254 118.527 716.621 118.771C716.988 119.015 717.3 119.307 717.558 119.65ZM716.341 126.639C716.762 126.384 717.091 126.022 717.326 125.552V125.55C717.561 125.081 717.678 124.525 717.678 123.907C717.678 123.288 717.563 122.741 717.332 122.264C717.1 121.786 716.772 121.417 716.346 121.155C715.92 120.893 715.407 120.762 714.87 120.762C714.333 120.762 713.853 120.89 713.427 121.144C713.001 121.399 712.671 121.764 712.436 122.237C712.201 122.711 712.084 123.27 712.084 123.897C712.084 124.524 712.205 125.074 712.447 125.547C712.689 126.021 713.021 126.385 713.444 126.639C713.866 126.894 714.33 127.022 714.881 127.022C715.432 127.022 715.918 126.894 716.341 126.639Z" fill="#2D0F37"/>
<path fill-rule="evenodd" clip-rule="evenodd" d="M742.11 119.703H742.177V118.251H745.371V129.097C745.371 130.116 745.128 130.995 744.644 131.734C744.159 132.473 743.477 133.036 742.595 133.421C741.714 133.807 740.679 134 739.49 134C738.425 134 737.481 133.86 736.659 133.58C735.836 133.299 735.17 132.878 734.659 132.318C734.15 131.758 733.839 131.059 733.729 130.221H736.912C737.051 130.702 737.36 131.056 737.837 131.286C738.314 131.515 738.894 131.63 739.577 131.63C740.134 131.63 740.606 131.531 740.991 131.334C741.377 131.137 741.67 130.848 741.873 130.466C742.075 130.084 742.176 129.627 742.176 129.095V127.534H742.11C741.705 128.051 741.186 128.461 740.551 128.763C739.916 129.065 739.194 129.216 738.387 129.216C737.425 129.216 736.558 128.989 735.787 128.534C735.017 128.079 734.415 127.431 733.981 126.59C733.548 125.749 733.331 124.754 733.331 123.647C733.331 122.539 733.544 121.561 733.97 120.709C734.396 119.856 734.993 119.194 735.76 118.721C736.527 118.248 737.411 118.011 738.409 118.011C739.202 118.011 739.912 118.161 740.54 118.459C741.167 118.757 741.691 119.172 742.11 119.703ZM740.844 126.152C741.27 125.916 741.598 125.581 741.829 125.148V125.146C742.061 124.712 742.176 124.208 742.176 123.633C742.176 123.058 742.061 122.548 741.829 122.104C741.598 121.66 741.267 121.317 740.838 121.077C740.409 120.838 739.926 120.717 739.368 120.717C738.809 120.717 738.321 120.84 737.903 121.084C737.485 121.328 737.158 121.669 736.923 122.105C736.688 122.542 736.571 123.048 736.571 123.623C736.571 124.199 736.688 124.703 736.923 125.136C737.158 125.57 737.488 125.906 737.914 126.147C738.34 126.386 738.828 126.506 739.379 126.506C739.93 126.506 740.418 126.389 740.844 126.152Z" fill="#2D0F37"/>
<path fill-rule="evenodd" clip-rule="evenodd" d="M755.403 118.759C754.484 118.252 753.453 118 752.308 118C751.162 118 750.127 118.253 749.202 118.759C748.277 119.265 747.551 119.965 747.027 120.861C746.502 121.756 746.239 122.768 746.239 123.897C746.239 125.026 746.505 126.048 747.037 126.944C747.57 127.839 748.297 128.533 749.218 129.024C750.14 129.516 751.162 129.761 752.286 129.761C753.41 129.761 754.454 129.514 755.375 129.019C756.297 128.524 757.022 127.831 757.551 126.938C758.08 126.046 758.344 125.032 758.344 123.897C758.344 122.761 758.083 121.739 757.562 120.85C757.04 119.962 756.321 119.265 755.403 118.759ZM754.736 125.579C754.483 126.059 754.142 126.431 753.712 126.693C753.282 126.955 752.807 127.086 752.285 127.086C751.763 127.086 751.288 126.954 750.859 126.687C750.43 126.421 750.09 126.051 749.84 125.573C749.59 125.096 749.465 124.541 749.465 123.908C749.465 123.274 749.59 122.704 749.84 122.22C750.09 121.737 750.428 121.362 750.854 121.095C751.28 120.829 751.757 120.697 752.286 120.697C752.815 120.697 753.303 120.829 753.729 121.095C754.155 121.362 754.493 121.737 754.743 122.22C754.993 122.704 755.118 123.263 755.118 123.897C755.118 124.53 754.991 125.098 754.738 125.579H754.736Z" fill="#2D0F37"/>
<path fill-rule="evenodd" clip-rule="evenodd" d="M766.114 118.011C767.12 118.011 768.007 118.26 768.774 118.759C769.541 119.257 770.135 119.957 770.558 120.855C770.981 121.755 771.192 122.728 771.192 123.908C771.192 125.087 770.975 126.12 770.542 127.004C770.108 127.889 769.508 128.569 768.741 129.046C767.974 129.523 767.106 129.761 766.137 129.761C765.63 129.761 765.147 129.697 764.688 129.565C764.228 129.434 763.808 129.245 763.426 128.997C763.045 128.751 762.718 128.451 762.446 128.102H762.425V133.759H759.231V118.262H762.425V119.681H762.446C762.704 119.332 763.019 119.031 763.394 118.78C763.768 118.529 764.185 118.338 764.643 118.207C765.102 118.076 765.592 118.011 766.114 118.011ZM766.605 126.638C767.027 126.382 767.357 126.018 767.596 125.545V125.547C767.834 125.073 767.953 124.531 767.953 123.898C767.953 123.264 767.836 122.711 767.601 122.238C767.367 121.764 767.036 121.4 766.61 121.145C766.184 120.89 765.725 120.763 765.167 120.763C764.61 120.763 764.119 120.894 763.697 121.156C763.274 121.418 762.948 121.788 762.717 122.265C762.485 122.741 762.37 123.282 762.37 123.908C762.37 124.534 762.488 125.081 762.722 125.551C762.957 126.02 763.284 126.384 763.702 126.638C764.121 126.893 764.613 127.02 765.156 127.02C765.7 127.02 766.182 126.893 766.605 126.638Z" fill="#2D0F37"/>
<path fill-rule="evenodd" clip-rule="evenodd" d="M780.617 119.65H780.551C780.294 119.307 779.982 119.015 779.614 118.771C779.247 118.527 778.837 118.34 778.386 118.208C777.934 118.077 777.449 118.012 776.927 118.012C775.913 118.012 775.023 118.262 774.256 118.76C773.489 119.259 772.893 119.958 772.472 120.856C772.049 121.756 771.838 122.773 771.838 123.909C771.838 125.044 772.054 126.121 772.488 127.005C772.922 127.89 773.521 128.571 774.289 129.047C775.056 129.523 775.924 129.763 776.893 129.763C777.4 129.763 777.879 129.699 778.331 129.572C778.783 129.445 779.197 129.259 779.575 129.015C779.953 128.771 780.278 128.474 780.55 128.125H780.627V129.512H783.81V118.262H780.616V119.649L780.617 119.65ZM780.32 125.552C780.085 126.022 779.756 126.384 779.334 126.639C778.911 126.894 778.426 127.022 777.875 127.022C777.324 127.022 776.86 126.894 776.437 126.639C776.014 126.385 775.683 126.021 775.441 125.547C775.198 125.074 775.076 124.524 775.076 123.897C775.076 123.27 775.194 122.711 775.429 122.237C775.663 121.764 775.994 121.399 776.42 121.144C776.846 120.89 777.326 120.762 777.863 120.762C778.399 120.762 778.912 120.893 779.338 121.155C779.764 121.417 780.092 121.786 780.324 122.264C780.555 122.741 780.671 123.288 780.671 123.907C780.671 124.525 780.553 125.081 780.319 125.55L780.32 125.552Z" fill="#2D0F37"/>
<path d="M790.769 124.06L792.718 118.251H796L791.034 131.04C790.688 131.942 790.158 132.622 789.442 133.076C788.726 133.531 787.733 133.758 786.462 133.758H785.262V131.203H786.462C786.954 131.203 787.339 131.132 787.619 130.989C787.898 130.848 788.117 130.598 788.279 130.242L788.577 129.532L784.127 118.251H787.398L789.403 124.06C789.593 124.643 789.817 125.338 790.074 126.146H790.13C790.372 125.346 790.585 124.65 790.769 124.06Z" fill="#2D0F37"/>
<path d="M111.952 376.364H114.06V383.966C114.06 384.799 113.863 385.532 113.469 386.165C113.079 386.797 112.529 387.292 111.821 387.648C111.113 388 110.285 388.176 109.338 388.176C108.387 388.176 107.558 388 106.849 387.648C106.141 387.292 105.592 386.797 105.202 386.165C104.812 385.532 104.616 384.799 104.616 383.966V376.364H106.724V383.79C106.724 384.275 106.83 384.706 107.043 385.085C107.259 385.464 107.562 385.761 107.952 385.977C108.342 386.189 108.804 386.295 109.338 386.295C109.872 386.295 110.334 386.189 110.724 385.977C111.118 385.761 111.421 385.464 111.634 385.085C111.846 384.706 111.952 384.275 111.952 383.79V376.364ZM123.158 381.58L121.283 381.784C121.23 381.595 121.137 381.417 121.004 381.25C120.875 381.083 120.701 380.949 120.482 380.847C120.262 380.744 119.993 380.693 119.675 380.693C119.247 380.693 118.887 380.786 118.595 380.972C118.307 381.157 118.165 381.398 118.169 381.693C118.165 381.947 118.258 382.153 118.447 382.312C118.641 382.472 118.959 382.602 119.402 382.705L120.891 383.023C121.716 383.201 122.33 383.483 122.732 383.869C123.137 384.256 123.341 384.761 123.345 385.386C123.341 385.936 123.18 386.42 122.862 386.841C122.548 387.258 122.11 387.583 121.55 387.818C120.989 388.053 120.345 388.17 119.618 388.17C118.55 388.17 117.69 387.947 117.038 387.5C116.387 387.049 115.999 386.422 115.874 385.619L117.879 385.426C117.97 385.82 118.163 386.117 118.459 386.318C118.754 386.519 119.139 386.619 119.612 386.619C120.101 386.619 120.493 386.519 120.788 386.318C121.088 386.117 121.237 385.869 121.237 385.574C121.237 385.324 121.141 385.117 120.947 384.955C120.758 384.792 120.463 384.667 120.061 384.58L118.572 384.267C117.735 384.093 117.116 383.799 116.714 383.386C116.313 382.97 116.114 382.443 116.118 381.807C116.114 381.269 116.26 380.803 116.555 380.409C116.855 380.011 117.269 379.705 117.8 379.489C118.334 379.269 118.949 379.159 119.646 379.159C120.669 379.159 121.474 379.377 122.061 379.812C122.652 380.248 123.018 380.837 123.158 381.58ZM128.905 388.17C128.03 388.17 127.274 387.989 126.638 387.625C126.005 387.258 125.518 386.739 125.178 386.068C124.837 385.394 124.666 384.6 124.666 383.688C124.666 382.79 124.837 382.002 125.178 381.324C125.522 380.642 126.003 380.112 126.621 379.733C127.238 379.35 127.964 379.159 128.797 379.159C129.335 379.159 129.842 379.246 130.32 379.42C130.801 379.591 131.225 379.856 131.592 380.216C131.964 380.576 132.255 381.034 132.467 381.591C132.679 382.144 132.786 382.803 132.786 383.568V384.199H125.632V382.812H130.814C130.81 382.419 130.725 382.068 130.558 381.761C130.392 381.451 130.159 381.206 129.859 381.028C129.564 380.85 129.219 380.761 128.825 380.761C128.405 380.761 128.036 380.864 127.717 381.068C127.399 381.269 127.151 381.534 126.973 381.864C126.799 382.189 126.71 382.547 126.706 382.938V384.148C126.706 384.655 126.799 385.091 126.984 385.455C127.17 385.814 127.429 386.091 127.763 386.284C128.096 386.473 128.486 386.568 128.933 386.568C129.232 386.568 129.503 386.527 129.746 386.443C129.988 386.356 130.198 386.229 130.376 386.062C130.554 385.896 130.689 385.689 130.78 385.443L132.7 385.659C132.579 386.167 132.348 386.61 132.007 386.989C131.67 387.364 131.238 387.655 130.712 387.864C130.185 388.068 129.583 388.17 128.905 388.17ZM134.526 388V379.273H136.52V380.727H136.611C136.77 380.223 137.043 379.835 137.429 379.562C137.819 379.286 138.264 379.148 138.764 379.148C138.878 379.148 139.005 379.153 139.145 379.165C139.289 379.172 139.408 379.186 139.503 379.205V381.097C139.416 381.066 139.277 381.04 139.088 381.017C138.902 380.991 138.723 380.977 138.548 380.977C138.173 380.977 137.836 381.059 137.537 381.222C137.241 381.381 137.009 381.602 136.838 381.886C136.668 382.17 136.582 382.498 136.582 382.869V388H134.526ZM149.548 376.364V388H147.44V378.415H147.372L144.651 380.153V378.222L147.543 376.364H149.548ZM154.27 376.364V377.523C154.27 377.856 154.205 378.203 154.077 378.562C153.952 378.919 153.779 379.259 153.56 379.585C153.34 379.907 153.09 380.184 152.81 380.415L151.855 379.795C152.063 379.481 152.245 379.142 152.401 378.778C152.556 378.411 152.634 377.996 152.634 377.534V376.364H154.27ZM161.705 381.58L159.83 381.784C159.777 381.595 159.684 381.417 159.551 381.25C159.422 381.083 159.248 380.949 159.028 380.847C158.809 380.744 158.54 380.693 158.222 380.693C157.794 380.693 157.434 380.786 157.142 380.972C156.854 381.157 156.712 381.398 156.716 381.693C156.712 381.947 156.805 382.153 156.994 382.312C157.188 382.472 157.506 382.602 157.949 382.705L159.438 383.023C160.263 383.201 160.877 383.483 161.278 383.869C161.684 384.256 161.888 384.761 161.892 385.386C161.888 385.936 161.727 386.42 161.409 386.841C161.095 387.258 160.657 387.583 160.097 387.818C159.536 388.053 158.892 388.17 158.165 388.17C157.097 388.17 156.237 387.947 155.585 387.5C154.934 387.049 154.545 386.422 154.42 385.619L156.426 385.426C156.517 385.82 156.71 386.117 157.006 386.318C157.301 386.519 157.686 386.619 158.159 386.619C158.648 386.619 159.04 386.519 159.335 386.318C159.634 386.117 159.784 385.869 159.784 385.574C159.784 385.324 159.688 385.117 159.494 384.955C159.305 384.792 159.009 384.667 158.608 384.58L157.119 384.267C156.282 384.093 155.663 383.799 155.261 383.386C154.86 382.97 154.661 382.443 154.665 381.807C154.661 381.269 154.807 380.803 155.102 380.409C155.402 380.011 155.816 379.705 156.347 379.489C156.881 379.269 157.496 379.159 158.193 379.159C159.216 379.159 160.021 379.377 160.608 379.812C161.199 380.248 161.564 380.837 161.705 381.58ZM81.6243 412V400.364H83.6811V404.716H83.7663C83.8724 404.504 84.022 404.278 84.2152 404.04C84.4084 403.797 84.6697 403.591 84.9993 403.42C85.3288 403.246 85.7493 403.159 86.2607 403.159C86.9349 403.159 87.5429 403.331 88.0845 403.676C88.63 404.017 89.0618 404.523 89.38 405.193C89.7019 405.86 89.8629 406.678 89.8629 407.648C89.8629 408.606 89.7057 409.42 89.3913 410.091C89.0769 410.761 88.6489 411.273 88.1072 411.625C87.5656 411.977 86.9519 412.153 86.2663 412.153C85.7663 412.153 85.3516 412.07 85.022 411.903C84.6925 411.737 84.4273 411.536 84.2266 411.301C84.0296 411.062 83.8762 410.837 83.7663 410.625H83.647V412H81.6243ZM83.6413 407.636C83.6413 408.201 83.7209 408.695 83.88 409.119C84.0429 409.544 84.2758 409.875 84.5788 410.114C84.8857 410.348 85.2569 410.466 85.6925 410.466C86.147 410.466 86.5277 410.345 86.8345 410.102C87.1413 409.856 87.3724 409.521 87.5277 409.097C87.6868 408.669 87.7663 408.182 87.7663 407.636C87.7663 407.095 87.6887 406.614 87.5334 406.193C87.3781 405.773 87.147 405.443 86.8402 405.205C86.5334 404.966 86.1508 404.847 85.6925 404.847C85.2531 404.847 84.88 404.962 84.5732 405.193C84.2663 405.424 84.0334 405.748 83.8743 406.165C83.719 406.581 83.6413 407.072 83.6413 407.636ZM94.1229 412.176C93.5698 412.176 93.0717 412.078 92.6286 411.881C92.1892 411.68 91.8407 411.384 91.5831 410.994C91.3293 410.604 91.2024 410.123 91.2024 409.551C91.2024 409.059 91.2933 408.652 91.4751 408.33C91.657 408.008 91.9051 407.75 92.2195 407.557C92.5339 407.364 92.888 407.218 93.282 407.119C93.6797 407.017 94.0907 406.943 94.5149 406.898C95.0263 406.845 95.4411 406.797 95.7592 406.756C96.0774 406.71 96.3085 406.642 96.4524 406.551C96.6001 406.456 96.674 406.311 96.674 406.114V406.08C96.674 405.652 96.5471 405.32 96.2933 405.085C96.0395 404.85 95.674 404.733 95.1967 404.733C94.6929 404.733 94.2933 404.843 93.9979 405.062C93.7062 405.282 93.5092 405.542 93.407 405.841L91.4865 405.568C91.638 405.038 91.888 404.595 92.2365 404.239C92.585 403.879 93.0111 403.61 93.5149 403.432C94.0187 403.25 94.5755 403.159 95.1854 403.159C95.6058 403.159 96.0244 403.208 96.4411 403.307C96.8577 403.405 97.2384 403.568 97.5831 403.795C97.9278 404.019 98.2043 404.324 98.4126 404.71C98.6248 405.097 98.7308 405.58 98.7308 406.159V412H96.7536V410.801H96.6854C96.5604 411.044 96.3842 411.271 96.157 411.483C95.9335 411.691 95.6513 411.86 95.3104 411.989C94.9732 412.114 94.5774 412.176 94.1229 412.176ZM94.657 410.665C95.0698 410.665 95.4278 410.583 95.7308 410.42C96.0339 410.254 96.2668 410.034 96.4297 409.761C96.5964 409.489 96.6797 409.191 96.6797 408.869V407.841C96.6153 407.894 96.5054 407.943 96.3501 407.989C96.1986 408.034 96.0282 408.074 95.8388 408.108C95.6494 408.142 95.4619 408.172 95.2763 408.199C95.0907 408.225 94.9297 408.248 94.7933 408.267C94.4865 408.309 94.2119 408.377 93.9695 408.472C93.727 408.566 93.5357 408.699 93.3956 408.869C93.2554 409.036 93.1854 409.252 93.1854 409.517C93.1854 409.896 93.3236 410.182 93.6001 410.375C93.8767 410.568 94.2289 410.665 94.657 410.665ZM102.856 406.886V412H100.799V403.273H102.765V404.756H102.867C103.068 404.267 103.388 403.879 103.827 403.591C104.271 403.303 104.818 403.159 105.469 403.159C106.072 403.159 106.596 403.288 107.043 403.545C107.494 403.803 107.843 404.176 108.089 404.665C108.339 405.153 108.462 405.746 108.458 406.443V412H106.401V406.761C106.401 406.178 106.25 405.722 105.947 405.392C105.647 405.062 105.233 404.898 104.702 404.898C104.343 404.898 104.022 404.977 103.742 405.136C103.466 405.292 103.248 405.517 103.089 405.812C102.933 406.108 102.856 406.466 102.856 406.886ZM112.424 409.261L112.418 406.778H112.748L115.884 403.273H118.288L114.43 407.568H114.004L112.424 409.261ZM110.549 412V400.364H112.606V412H110.549ZM116.026 412L113.185 408.028L114.572 406.58L118.487 412H116.026ZM126.138 412.176C125.585 412.176 125.087 412.078 124.644 411.881C124.205 411.68 123.856 411.384 123.599 410.994C123.345 410.604 123.218 410.123 123.218 409.551C123.218 409.059 123.309 408.652 123.491 408.33C123.673 408.008 123.921 407.75 124.235 407.557C124.549 407.364 124.904 407.218 125.298 407.119C125.695 407.017 126.106 406.943 126.531 406.898C127.042 406.845 127.457 406.797 127.775 406.756C128.093 406.71 128.324 406.642 128.468 406.551C128.616 406.456 128.69 406.311 128.69 406.114V406.08C128.69 405.652 128.563 405.32 128.309 405.085C128.055 404.85 127.69 404.733 127.212 404.733C126.709 404.733 126.309 404.843 126.013 405.062C125.722 405.282 125.525 405.542 125.423 405.841L123.502 405.568C123.654 405.038 123.904 404.595 124.252 404.239C124.601 403.879 125.027 403.61 125.531 403.432C126.034 403.25 126.591 403.159 127.201 403.159C127.621 403.159 128.04 403.208 128.457 403.307C128.873 403.405 129.254 403.568 129.599 403.795C129.943 404.019 130.22 404.324 130.428 404.71C130.64 405.097 130.746 405.58 130.746 406.159V412H128.769V410.801H128.701C128.576 411.044 128.4 411.271 128.173 411.483C127.949 411.691 127.667 411.86 127.326 411.989C126.989 412.114 126.593 412.176 126.138 412.176ZM126.673 410.665C127.085 410.665 127.443 410.583 127.746 410.42C128.049 410.254 128.282 410.034 128.445 409.761C128.612 409.489 128.695 409.191 128.695 408.869V407.841C128.631 407.894 128.521 407.943 128.366 407.989C128.214 408.034 128.044 408.074 127.854 408.108C127.665 408.142 127.478 408.172 127.292 408.199C127.106 408.225 126.945 408.248 126.809 408.267C126.502 408.309 126.228 408.377 125.985 408.472C125.743 408.566 125.551 408.699 125.411 408.869C125.271 409.036 125.201 409.252 125.201 409.517C125.201 409.896 125.339 410.182 125.616 410.375C125.892 410.568 126.245 410.665 126.673 410.665ZM136.621 412.17C135.75 412.17 135.002 411.979 134.377 411.597C133.756 411.214 133.277 410.686 132.94 410.011C132.606 409.333 132.44 408.553 132.44 407.67C132.44 406.784 132.61 406.002 132.951 405.324C133.292 404.642 133.773 404.112 134.394 403.733C135.019 403.35 135.758 403.159 136.61 403.159C137.318 403.159 137.945 403.29 138.491 403.551C139.04 403.809 139.478 404.174 139.803 404.648C140.129 405.117 140.315 405.667 140.36 406.295H138.394C138.315 405.875 138.125 405.525 137.826 405.244C137.531 404.96 137.135 404.818 136.638 404.818C136.218 404.818 135.849 404.932 135.531 405.159C135.212 405.383 134.964 405.705 134.786 406.125C134.612 406.545 134.525 407.049 134.525 407.636C134.525 408.231 134.612 408.742 134.786 409.17C134.96 409.595 135.205 409.922 135.519 410.153C135.837 410.381 136.21 410.494 136.638 410.494C136.942 410.494 137.212 410.437 137.451 410.324C137.693 410.206 137.896 410.038 138.059 409.818C138.222 409.598 138.334 409.331 138.394 409.017H140.36C140.311 409.634 140.129 410.182 139.815 410.659C139.5 411.133 139.072 411.504 138.531 411.773C137.989 412.038 137.353 412.17 136.621 412.17ZM145.856 412.17C144.985 412.17 144.237 411.979 143.612 411.597C142.99 411.214 142.511 410.686 142.174 410.011C141.841 409.333 141.674 408.553 141.674 407.67C141.674 406.784 141.844 406.002 142.185 405.324C142.526 404.642 143.007 404.112 143.629 403.733C144.254 403.35 144.992 403.159 145.844 403.159C146.553 403.159 147.18 403.29 147.725 403.551C148.274 403.809 148.712 404.174 149.038 404.648C149.363 405.117 149.549 405.667 149.594 406.295H147.629C147.549 405.875 147.36 405.525 147.06 405.244C146.765 404.96 146.369 404.818 145.873 404.818C145.452 404.818 145.083 404.932 144.765 405.159C144.447 405.383 144.199 405.705 144.021 406.125C143.846 406.545 143.759 407.049 143.759 407.636C143.759 408.231 143.846 408.742 144.021 409.17C144.195 409.595 144.439 409.922 144.754 410.153C145.072 410.381 145.445 410.494 145.873 410.494C146.176 410.494 146.447 410.437 146.685 410.324C146.928 410.206 147.13 410.038 147.293 409.818C147.456 409.598 147.568 409.331 147.629 409.017H149.594C149.545 409.634 149.363 410.182 149.049 410.659C148.735 411.133 148.307 411.504 147.765 411.773C147.223 412.038 146.587 412.17 145.856 412.17ZM155.09 412.17C154.238 412.17 153.499 411.983 152.874 411.608C152.249 411.233 151.764 410.708 151.42 410.034C151.079 409.36 150.908 408.572 150.908 407.67C150.908 406.769 151.079 405.979 151.42 405.301C151.764 404.623 152.249 404.097 152.874 403.722C153.499 403.347 154.238 403.159 155.09 403.159C155.942 403.159 156.681 403.347 157.306 403.722C157.931 404.097 158.414 404.623 158.755 405.301C159.1 405.979 159.272 406.769 159.272 407.67C159.272 408.572 159.1 409.36 158.755 410.034C158.414 410.708 157.931 411.233 157.306 411.608C156.681 411.983 155.942 412.17 155.09 412.17ZM155.102 410.523C155.564 410.523 155.95 410.396 156.261 410.142C156.571 409.884 156.802 409.54 156.954 409.108C157.109 408.676 157.187 408.195 157.187 407.665C157.187 407.131 157.109 406.648 156.954 406.216C156.802 405.78 156.571 405.434 156.261 405.176C155.95 404.919 155.564 404.79 155.102 404.79C154.628 404.79 154.234 404.919 153.92 405.176C153.609 405.434 153.376 405.78 153.221 406.216C153.069 406.648 152.994 407.131 152.994 407.665C152.994 408.195 153.069 408.676 153.221 409.108C153.376 409.54 153.609 409.884 153.92 410.142C154.234 410.396 154.628 410.523 155.102 410.523ZM166.58 408.33V403.273H168.637V412H166.643V410.449H166.552C166.355 410.937 166.031 411.337 165.58 411.648C165.133 411.958 164.582 412.114 163.927 412.114C163.355 412.114 162.849 411.987 162.41 411.733C161.974 411.475 161.633 411.102 161.387 410.614C161.141 410.121 161.018 409.527 161.018 408.83V403.273H163.075V408.511C163.075 409.064 163.226 409.504 163.529 409.83C163.832 410.155 164.23 410.318 164.722 410.318C165.025 410.318 165.319 410.244 165.603 410.097C165.887 409.949 166.12 409.729 166.302 409.438C166.487 409.142 166.58 408.773 166.58 408.33ZM172.809 406.886V412H170.752V403.273H172.718V404.756H172.82C173.021 404.267 173.341 403.879 173.781 403.591C174.224 403.303 174.771 403.159 175.423 403.159C176.025 403.159 176.549 403.288 176.996 403.545C177.447 403.803 177.796 404.176 178.042 404.665C178.292 405.153 178.415 405.746 178.411 406.443V412H176.354V406.761C176.354 406.178 176.203 405.722 175.9 405.392C175.601 405.062 175.186 404.898 174.656 404.898C174.296 404.898 173.976 404.977 173.695 405.136C173.419 405.292 173.201 405.517 173.042 405.812C172.887 406.108 172.809 406.466 172.809 406.886ZM184.86 403.273V404.864H179.843V403.273H184.86ZM181.082 401.182H183.138V409.375C183.138 409.652 183.18 409.864 183.263 410.011C183.351 410.155 183.464 410.254 183.604 410.307C183.745 410.36 183.9 410.386 184.07 410.386C184.199 410.386 184.317 410.377 184.423 410.358C184.532 410.339 184.616 410.322 184.673 410.307L185.019 411.915C184.909 411.953 184.752 411.994 184.548 412.04C184.347 412.085 184.101 412.112 183.809 412.119C183.294 412.134 182.83 412.057 182.417 411.886C182.004 411.712 181.676 411.443 181.434 411.08C181.195 410.716 181.078 410.261 181.082 409.716V401.182Z" fill="#2D0F37"/>
<rect x="101" y="294" width="64" height="64" rx="32" fill="#FFD260"/>
<path d="M121 321.867L133 314.533L145 321.867" stroke="#370971" stroke-width="2" stroke-linecap="square" stroke-linejoin="round"/>
<path d="M123.667 335.867H142.333" stroke="#370971" stroke-width="2" stroke-linecap="square" stroke-linejoin="round"/>
<path d="M130.333 321.2H135.667" stroke="#370971" stroke-width="2" stroke-linecap="square" stroke-linejoin="round"/>
<path d="M125 331.867V325.2" stroke="#370971" stroke-width="2" stroke-linecap="square" stroke-linejoin="round"/>
<path d="M130.333 331.867V325.2" stroke="#370971" stroke-width="2" stroke-linecap="square" stroke-linejoin="round"/>
<path d="M135.667 331.867V325.2" stroke="#370971" stroke-width="2" stroke-linecap="square" stroke-linejoin="round"/>
<path d="M141 331.867V325.2" stroke="#370971" stroke-width="2" stroke-linecap="square" stroke-linejoin="round"/>
<g filter="url(#filter0_ddd_35467_782)">
<rect x="854" y="176" width="236" height="236" rx="12" fill="white"/>
<rect x="878" y="200" width="48" height="48" rx="24" fill="#B7B2FF"/>
<rect x="894" y="219" width="16" height="12" rx="2" stroke="#12282F" stroke-width="2" stroke-linecap="square" stroke-linejoin="round"/>
<path d="M905 219V216C905 215.448 904.552 215 904 215H900C899.448 215 899 215.448 899 216V219" stroke="#12282F" stroke-width="2" stroke-linecap="square" stroke-linejoin="round"/>
<rect x="990" y="200" width="76" height="28" rx="14" fill="#081F34"/>
<path d="M1014.19 214.182C1014.19 215.436 1013.95 216.509 1013.48 217.403C1013.02 218.294 1012.38 218.975 1011.57 219.449C1010.77 219.922 1009.86 220.159 1008.84 220.159C1007.82 220.159 1006.91 219.922 1006.1 219.449C1005.3 218.972 1004.66 218.288 1004.19 217.398C1003.73 216.504 1003.49 215.432 1003.49 214.182C1003.49 212.928 1003.73 211.856 1004.19 210.966C1004.66 210.072 1005.3 209.388 1006.1 208.915C1006.91 208.441 1007.82 208.205 1008.84 208.205C1009.86 208.205 1010.77 208.441 1011.57 208.915C1012.38 209.388 1013.02 210.072 1013.48 210.966C1013.95 211.856 1014.19 212.928 1014.19 214.182ZM1012.07 214.182C1012.07 213.299 1011.93 212.555 1011.65 211.949C1011.38 211.339 1011 210.879 1010.52 210.568C1010.03 210.254 1009.47 210.097 1008.84 210.097C1008.21 210.097 1007.65 210.254 1007.16 210.568C1006.68 210.879 1006.3 211.339 1006.02 211.949C1005.75 212.555 1005.61 213.299 1005.61 214.182C1005.61 215.064 1005.75 215.811 1006.02 216.42C1006.3 217.027 1006.68 217.487 1007.16 217.801C1007.65 218.112 1008.21 218.267 1008.84 218.267C1009.47 218.267 1010.03 218.112 1010.52 217.801C1011 217.487 1011.38 217.027 1011.65 216.42C1011.93 215.811 1012.07 215.064 1012.07 214.182ZM1017.89 220L1015.42 211.273H1017.52L1019.05 217.409H1019.13L1020.7 211.273H1022.78L1024.34 217.375H1024.43L1025.94 211.273H1028.04L1025.57 220H1023.43L1021.79 214.102H1021.67L1020.04 220H1017.89ZM1031.54 214.886V220H1029.48V211.273H1031.44V212.756H1031.55C1031.75 212.267 1032.07 211.879 1032.51 211.591C1032.95 211.303 1033.5 211.159 1034.15 211.159C1034.75 211.159 1035.28 211.288 1035.72 211.545C1036.17 211.803 1036.52 212.176 1036.77 212.665C1037.02 213.153 1037.14 213.746 1037.14 214.443V220H1035.08V214.761C1035.08 214.178 1034.93 213.722 1034.63 213.392C1034.33 213.062 1033.91 212.898 1033.38 212.898C1033.02 212.898 1032.7 212.977 1032.42 213.136C1032.15 213.292 1031.93 213.517 1031.77 213.812C1031.61 214.108 1031.54 214.466 1031.54 214.886ZM1043.09 220.17C1042.22 220.17 1041.46 219.989 1040.83 219.625C1040.19 219.258 1039.71 218.739 1039.37 218.068C1039.02 217.394 1038.85 216.6 1038.85 215.688C1038.85 214.79 1039.02 214.002 1039.37 213.324C1039.71 212.642 1040.19 212.112 1040.81 211.733C1041.43 211.35 1042.15 211.159 1042.98 211.159C1043.52 211.159 1044.03 211.246 1044.51 211.42C1044.99 211.591 1045.41 211.856 1045.78 212.216C1046.15 212.576 1046.44 213.034 1046.65 213.591C1046.87 214.144 1046.97 214.803 1046.97 215.568V216.199H1039.82V214.812H1045C1045 214.419 1044.91 214.068 1044.75 213.761C1044.58 213.451 1044.35 213.206 1044.05 213.028C1043.75 212.85 1043.41 212.761 1043.01 212.761C1042.59 212.761 1042.22 212.864 1041.9 213.068C1041.59 213.269 1041.34 213.534 1041.16 213.864C1040.99 214.189 1040.9 214.547 1040.89 214.938V216.148C1040.89 216.655 1040.99 217.091 1041.17 217.455C1041.36 217.814 1041.62 218.091 1041.95 218.284C1042.28 218.473 1042.67 218.568 1043.12 218.568C1043.42 218.568 1043.69 218.527 1043.93 218.443C1044.18 218.356 1044.39 218.229 1044.56 218.062C1044.74 217.896 1044.88 217.689 1044.97 217.443L1046.89 217.659C1046.77 218.167 1046.54 218.61 1046.19 218.989C1045.86 219.364 1045.43 219.655 1044.9 219.864C1044.37 220.068 1043.77 220.17 1043.09 220.17ZM1048.71 220V211.273H1050.71V212.727H1050.8C1050.96 212.223 1051.23 211.835 1051.62 211.562C1052.01 211.286 1052.45 211.148 1052.95 211.148C1053.07 211.148 1053.19 211.153 1053.33 211.165C1053.48 211.172 1053.6 211.186 1053.69 211.205V213.097C1053.6 213.066 1053.46 213.04 1053.28 213.017C1053.09 212.991 1052.91 212.977 1052.74 212.977C1052.36 212.977 1052.02 213.059 1051.72 213.222C1051.43 213.381 1051.2 213.602 1051.03 213.886C1050.86 214.17 1050.77 214.498 1050.77 214.869V220H1048.71Z" fill="#89E481"/>
<path d="M890.298 279.545H893.989V290.881C893.989 292.153 893.685 293.267 893.077 294.222C892.474 295.176 891.631 295.92 890.545 296.455C889.46 296.983 888.196 297.247 886.753 297.247C885.304 297.247 884.037 296.983 882.952 296.455C881.866 295.92 881.023 295.176 880.42 294.222C879.818 293.267 879.517 292.153 879.517 290.881V279.545H883.207V290.565C883.207 291.23 883.352 291.821 883.642 292.338C883.938 292.855 884.352 293.261 884.886 293.557C885.42 293.852 886.043 294 886.753 294C887.469 294 888.091 293.852 888.619 293.557C889.153 293.261 889.565 292.855 889.855 292.338C890.151 291.821 890.298 291.23 890.298 290.565V279.545ZM907.849 287.642L904.525 287.847C904.468 287.562 904.346 287.307 904.158 287.08C903.971 286.847 903.724 286.662 903.417 286.526C903.116 286.384 902.755 286.312 902.335 286.312C901.772 286.312 901.298 286.432 900.911 286.67C900.525 286.903 900.332 287.216 900.332 287.608C900.332 287.92 900.457 288.185 900.707 288.401C900.957 288.616 901.386 288.79 901.994 288.92L904.363 289.398C905.636 289.659 906.585 290.08 907.21 290.659C907.835 291.239 908.147 292 908.147 292.943C908.147 293.801 907.894 294.554 907.388 295.202C906.888 295.849 906.201 296.355 905.326 296.719C904.457 297.077 903.454 297.256 902.317 297.256C900.585 297.256 899.204 296.895 898.175 296.173C897.153 295.446 896.553 294.457 896.377 293.207L899.948 293.02C900.056 293.548 900.317 293.952 900.732 294.23C901.147 294.503 901.678 294.639 902.326 294.639C902.962 294.639 903.474 294.517 903.86 294.273C904.252 294.023 904.451 293.702 904.457 293.31C904.451 292.98 904.312 292.71 904.039 292.5C903.766 292.284 903.346 292.119 902.778 292.006L900.511 291.554C899.232 291.298 898.281 290.855 897.656 290.224C897.036 289.594 896.727 288.79 896.727 287.812C896.727 286.972 896.954 286.247 897.408 285.639C897.869 285.031 898.513 284.562 899.343 284.233C900.178 283.903 901.156 283.739 902.275 283.739C903.928 283.739 905.229 284.088 906.178 284.787C907.133 285.486 907.69 286.437 907.849 287.642ZM916.399 297.256C915.053 297.256 913.893 296.983 912.922 296.438C911.956 295.886 911.212 295.108 910.689 294.102C910.166 293.091 909.905 291.895 909.905 290.514C909.905 289.168 910.166 287.986 910.689 286.969C911.212 285.952 911.947 285.159 912.896 284.591C913.851 284.023 914.97 283.739 916.254 283.739C917.118 283.739 917.922 283.878 918.666 284.156C919.416 284.429 920.07 284.841 920.626 285.392C921.189 285.943 921.626 286.636 921.939 287.472C922.251 288.301 922.408 289.273 922.408 290.386V291.384H911.354V289.134H918.99C918.99 288.611 918.876 288.148 918.649 287.744C918.422 287.341 918.107 287.026 917.703 286.798C917.305 286.565 916.842 286.449 916.314 286.449C915.763 286.449 915.274 286.577 914.848 286.832C914.428 287.082 914.098 287.42 913.859 287.847C913.621 288.267 913.499 288.736 913.493 289.253V291.392C913.493 292.04 913.612 292.599 913.851 293.071C914.095 293.543 914.439 293.906 914.882 294.162C915.325 294.418 915.851 294.545 916.459 294.545C916.862 294.545 917.232 294.489 917.567 294.375C917.902 294.261 918.189 294.091 918.428 293.864C918.666 293.636 918.848 293.358 918.973 293.028L922.331 293.25C922.161 294.057 921.811 294.761 921.283 295.364C920.76 295.96 920.084 296.426 919.254 296.761C918.43 297.091 917.479 297.256 916.399 297.256ZM924.777 297V283.909H928.297V286.193H928.433C928.672 285.381 929.072 284.767 929.635 284.352C930.197 283.932 930.845 283.722 931.578 283.722C931.76 283.722 931.956 283.733 932.166 283.756C932.376 283.778 932.561 283.81 932.72 283.849V287.071C932.55 287.02 932.314 286.974 932.013 286.935C931.712 286.895 931.436 286.875 931.186 286.875C930.652 286.875 930.175 286.991 929.754 287.224C929.339 287.452 929.01 287.77 928.766 288.179C928.527 288.588 928.408 289.06 928.408 289.594V297H924.777ZM940.118 297V294.341L946.331 288.588C946.859 288.077 947.303 287.616 947.661 287.207C948.024 286.798 948.3 286.398 948.487 286.006C948.675 285.608 948.768 285.179 948.768 284.719C948.768 284.207 948.652 283.767 948.419 283.398C948.186 283.023 947.868 282.736 947.464 282.537C947.061 282.332 946.604 282.23 946.092 282.23C945.558 282.23 945.092 282.338 944.695 282.554C944.297 282.77 943.99 283.08 943.774 283.483C943.558 283.886 943.45 284.366 943.45 284.923H939.947C939.947 283.781 940.206 282.79 940.723 281.949C941.24 281.108 941.964 280.457 942.896 279.997C943.828 279.537 944.902 279.307 946.118 279.307C947.368 279.307 948.456 279.528 949.382 279.972C950.314 280.409 951.038 281.017 951.555 281.795C952.072 282.574 952.331 283.466 952.331 284.472C952.331 285.131 952.2 285.781 951.939 286.423C951.683 287.065 951.226 287.778 950.567 288.562C949.908 289.341 948.979 290.276 947.78 291.366L945.232 293.864V293.983H952.561V297H940.118Z" fill="#2D0F37"/>
<rect x="878" y="356" width="66" height="32" rx="4" fill="#F5F3F5"/>
<path d="M889.631 378L886.301 366.364H888.989L890.915 374.449H891.011L893.136 366.364H895.438L897.557 374.466H897.659L899.585 366.364H902.273L898.943 378H896.545L894.33 370.392H894.239L892.028 378H889.631ZM905.095 378.165C904.538 378.165 904.042 378.068 903.607 377.875C903.171 377.678 902.826 377.388 902.572 377.006C902.322 376.619 902.197 376.138 902.197 375.562C902.197 375.078 902.286 374.67 902.464 374.341C902.643 374.011 902.885 373.746 903.192 373.545C903.499 373.345 903.847 373.193 904.237 373.091C904.631 372.989 905.044 372.917 905.476 372.875C905.983 372.822 906.393 372.773 906.703 372.727C907.014 372.678 907.239 372.606 907.379 372.511C907.519 372.417 907.589 372.277 907.589 372.091V372.057C907.589 371.697 907.476 371.419 907.249 371.222C907.025 371.025 906.707 370.926 906.294 370.926C905.858 370.926 905.512 371.023 905.254 371.216C904.997 371.405 904.826 371.644 904.743 371.932L902.504 371.75C902.618 371.22 902.841 370.761 903.175 370.375C903.508 369.985 903.938 369.686 904.464 369.477C904.995 369.265 905.608 369.159 906.305 369.159C906.79 369.159 907.254 369.216 907.697 369.33C908.144 369.443 908.54 369.619 908.885 369.858C909.233 370.097 909.508 370.403 909.709 370.778C909.91 371.15 910.01 371.595 910.01 372.114V378H907.714V376.79H907.646C907.506 377.062 907.319 377.303 907.084 377.511C906.849 377.716 906.567 377.877 906.237 377.994C905.908 378.108 905.527 378.165 905.095 378.165ZM905.788 376.494C906.144 376.494 906.459 376.424 906.732 376.284C907.004 376.14 907.218 375.947 907.374 375.705C907.529 375.462 907.607 375.187 907.607 374.881V373.955C907.531 374.004 907.427 374.049 907.294 374.091C907.165 374.129 907.019 374.165 906.857 374.199C906.694 374.229 906.531 374.258 906.368 374.284C906.205 374.307 906.057 374.328 905.925 374.347C905.641 374.388 905.393 374.455 905.18 374.545C904.968 374.636 904.804 374.759 904.686 374.915C904.569 375.066 904.51 375.256 904.51 375.483C904.51 375.812 904.629 376.064 904.868 376.239C905.11 376.409 905.417 376.494 905.788 376.494ZM914.308 366.364V378H911.888V366.364H914.308ZM918.668 366.364V378H916.247V366.364H918.668ZM924.584 378.17C923.686 378.17 922.913 377.989 922.266 377.625C921.622 377.258 921.125 376.739 920.777 376.068C920.429 375.394 920.254 374.597 920.254 373.676C920.254 372.778 920.429 371.991 920.777 371.312C921.125 370.634 921.616 370.106 922.249 369.727C922.885 369.348 923.631 369.159 924.487 369.159C925.063 369.159 925.599 369.252 926.095 369.438C926.595 369.619 927.031 369.894 927.402 370.261C927.777 370.629 928.069 371.091 928.277 371.648C928.485 372.201 928.589 372.848 928.589 373.591V374.256H921.22V372.756H926.311C926.311 372.407 926.235 372.098 926.084 371.83C925.932 371.561 925.722 371.35 925.453 371.199C925.188 371.044 924.879 370.966 924.527 370.966C924.16 370.966 923.834 371.051 923.55 371.222C923.269 371.388 923.05 371.614 922.891 371.898C922.732 372.178 922.65 372.491 922.646 372.835V374.261C922.646 374.693 922.726 375.066 922.885 375.381C923.048 375.695 923.277 375.938 923.572 376.108C923.868 376.278 924.218 376.364 924.624 376.364C924.893 376.364 925.139 376.326 925.362 376.25C925.586 376.174 925.777 376.061 925.936 375.909C926.095 375.758 926.216 375.572 926.3 375.352L928.538 375.5C928.425 376.038 928.192 376.508 927.839 376.909C927.491 377.307 927.04 377.617 926.487 377.841C925.938 378.061 925.304 378.17 924.584 378.17ZM934.811 369.273V371.091H929.555V369.273H934.811ZM930.749 367.182H933.169V375.318C933.169 375.542 933.203 375.716 933.271 375.841C933.339 375.962 933.434 376.047 933.555 376.097C933.68 376.146 933.824 376.17 933.987 376.17C934.101 376.17 934.214 376.161 934.328 376.142C934.442 376.119 934.529 376.102 934.589 376.091L934.97 377.892C934.849 377.93 934.679 377.973 934.459 378.023C934.239 378.076 933.972 378.108 933.658 378.119C933.074 378.142 932.563 378.064 932.124 377.886C931.688 377.708 931.349 377.432 931.107 377.057C930.864 376.682 930.745 376.208 930.749 375.636V367.182Z" fill="#2D0F37"/>
</g>
<g filter="url(#filter1_ddd_35467_782)">
<rect x="390" y="178" width="236" height="236" rx="12" fill="white"/>
<rect x="414" y="202" width="48" height="48" rx="24" fill="#FFD260"/>
<path d="M442 221C442 218.791 440.209 217 438 217C435.791 217 434 218.791 434 221C434 223.209 435.791 225 438 225C440.209 225 442 223.209 442 221Z" stroke="#370971" stroke-width="1.8" stroke-linecap="square" stroke-linejoin="round"/>
<path d="M446 235V232.571C446 231.51 445.579 230.493 444.828 229.743C444.078 228.993 443.061 228.571 442 228.571H434C432.939 228.571 431.922 228.993 431.172 229.743C430.421 230.493 430 231.51 430 232.571V235" stroke="#370971" stroke-width="1.8" stroke-linejoin="round"/>
<rect x="534" y="202" width="68" height="28" rx="14" fill="#540000"/>
<path d="M547.382 222V210.364H551.746C552.64 210.364 553.39 210.53 553.996 210.864C554.606 211.197 555.066 211.655 555.376 212.239C555.691 212.818 555.848 213.477 555.848 214.216C555.848 214.962 555.691 215.625 555.376 216.205C555.062 216.784 554.598 217.241 553.984 217.574C553.371 217.903 552.615 218.068 551.717 218.068H548.825V216.335H551.433C551.956 216.335 552.384 216.244 552.717 216.062C553.051 215.881 553.297 215.631 553.456 215.312C553.619 214.994 553.7 214.629 553.7 214.216C553.7 213.803 553.619 213.439 553.456 213.125C553.297 212.811 553.049 212.566 552.712 212.392C552.378 212.214 551.948 212.125 551.422 212.125H549.49V222H547.382ZM559.943 222.176C559.39 222.176 558.892 222.078 558.449 221.881C558.009 221.68 557.661 221.384 557.403 220.994C557.15 220.604 557.023 220.123 557.023 219.551C557.023 219.059 557.114 218.652 557.295 218.33C557.477 218.008 557.725 217.75 558.04 217.557C558.354 217.364 558.708 217.218 559.102 217.119C559.5 217.017 559.911 216.943 560.335 216.898C560.847 216.845 561.261 216.797 561.58 216.756C561.898 216.71 562.129 216.642 562.273 216.551C562.42 216.456 562.494 216.311 562.494 216.114V216.08C562.494 215.652 562.367 215.32 562.114 215.085C561.86 214.85 561.494 214.733 561.017 214.733C560.513 214.733 560.114 214.843 559.818 215.062C559.527 215.282 559.33 215.542 559.227 215.841L557.307 215.568C557.458 215.038 557.708 214.595 558.057 214.239C558.405 213.879 558.831 213.61 559.335 213.432C559.839 213.25 560.396 213.159 561.006 213.159C561.426 213.159 561.845 213.208 562.261 213.307C562.678 213.405 563.059 213.568 563.403 213.795C563.748 214.019 564.025 214.324 564.233 214.71C564.445 215.097 564.551 215.58 564.551 216.159V222H562.574V220.801H562.506C562.381 221.044 562.205 221.271 561.977 221.483C561.754 221.691 561.472 221.86 561.131 221.989C560.794 222.114 560.398 222.176 559.943 222.176ZM560.477 220.665C560.89 220.665 561.248 220.583 561.551 220.42C561.854 220.254 562.087 220.034 562.25 219.761C562.417 219.489 562.5 219.191 562.5 218.869V217.841C562.436 217.894 562.326 217.943 562.17 217.989C562.019 218.034 561.848 218.074 561.659 218.108C561.47 218.142 561.282 218.172 561.097 218.199C560.911 218.225 560.75 218.248 560.614 218.267C560.307 218.309 560.032 218.377 559.79 218.472C559.547 218.566 559.356 218.699 559.216 218.869C559.076 219.036 559.006 219.252 559.006 219.517C559.006 219.896 559.144 220.182 559.42 220.375C559.697 220.568 560.049 220.665 560.477 220.665ZM567.585 225.273C567.305 225.273 567.045 225.25 566.807 225.205C566.572 225.163 566.384 225.114 566.244 225.057L566.722 223.455C567.021 223.542 567.288 223.583 567.523 223.58C567.758 223.576 567.964 223.502 568.142 223.358C568.324 223.218 568.477 222.983 568.602 222.653L568.778 222.182L565.614 213.273H567.795L569.807 219.864H569.898L571.915 213.273H574.102L570.608 223.057C570.445 223.519 570.229 223.915 569.96 224.244C569.691 224.578 569.362 224.831 568.972 225.006C568.585 225.184 568.123 225.273 567.585 225.273ZM579.092 222.17C578.217 222.17 577.462 221.989 576.825 221.625C576.193 221.258 575.706 220.739 575.365 220.068C575.024 219.394 574.854 218.6 574.854 217.688C574.854 216.79 575.024 216.002 575.365 215.324C575.71 214.642 576.191 214.112 576.808 213.733C577.426 213.35 578.151 213.159 578.984 213.159C579.522 213.159 580.03 213.246 580.507 213.42C580.988 213.591 581.412 213.856 581.78 214.216C582.151 214.576 582.443 215.034 582.655 215.591C582.867 216.144 582.973 216.803 582.973 217.568V218.199H575.82V216.812H581.001C580.998 216.419 580.912 216.068 580.746 215.761C580.579 215.451 580.346 215.206 580.047 215.028C579.751 214.85 579.407 214.761 579.013 214.761C578.592 214.761 578.223 214.864 577.905 215.068C577.587 215.269 577.339 215.534 577.161 215.864C576.986 216.189 576.897 216.547 576.893 216.938V218.148C576.893 218.655 576.986 219.091 577.172 219.455C577.357 219.814 577.617 220.091 577.95 220.284C578.284 220.473 578.674 220.568 579.121 220.568C579.42 220.568 579.691 220.527 579.933 220.443C580.176 220.356 580.386 220.229 580.564 220.062C580.742 219.896 580.876 219.689 580.967 219.443L582.888 219.659C582.767 220.167 582.536 220.61 582.195 220.989C581.857 221.364 581.426 221.655 580.899 221.864C580.373 222.068 579.77 222.17 579.092 222.17ZM584.713 222V213.273H586.707V214.727H586.798C586.957 214.223 587.23 213.835 587.616 213.562C588.007 213.286 588.452 213.148 588.952 213.148C589.065 213.148 589.192 213.153 589.332 213.165C589.476 213.172 589.596 213.186 589.69 213.205V215.097C589.603 215.066 589.465 215.04 589.276 215.017C589.09 214.991 588.91 214.977 588.736 214.977C588.361 214.977 588.024 215.059 587.724 215.222C587.429 215.381 587.196 215.602 587.026 215.886C586.855 216.17 586.77 216.498 586.77 216.869V222H584.713Z" fill="#F5C1AE"/>
<path d="M426.298 281.545H429.989V292.881C429.989 294.153 429.685 295.267 429.077 296.222C428.474 297.176 427.631 297.92 426.545 298.455C425.46 298.983 424.196 299.247 422.753 299.247C421.304 299.247 420.037 298.983 418.952 298.455C417.866 297.92 417.023 297.176 416.42 296.222C415.818 295.267 415.517 294.153 415.517 292.881V281.545H419.207V292.565C419.207 293.23 419.352 293.821 419.642 294.338C419.938 294.855 420.352 295.261 420.886 295.557C421.42 295.852 422.043 296 422.753 296C423.469 296 424.091 295.852 424.619 295.557C425.153 295.261 425.565 294.855 425.855 294.338C426.151 293.821 426.298 293.23 426.298 292.565V281.545ZM443.849 289.642L440.525 289.847C440.468 289.562 440.346 289.307 440.158 289.08C439.971 288.847 439.724 288.662 439.417 288.526C439.116 288.384 438.755 288.312 438.335 288.312C437.772 288.312 437.298 288.432 436.911 288.67C436.525 288.903 436.332 289.216 436.332 289.608C436.332 289.92 436.457 290.185 436.707 290.401C436.957 290.616 437.386 290.79 437.994 290.92L440.363 291.398C441.636 291.659 442.585 292.08 443.21 292.659C443.835 293.239 444.147 294 444.147 294.943C444.147 295.801 443.894 296.554 443.388 297.202C442.888 297.849 442.201 298.355 441.326 298.719C440.457 299.077 439.454 299.256 438.317 299.256C436.585 299.256 435.204 298.895 434.175 298.173C433.153 297.446 432.553 296.457 432.377 295.207L435.948 295.02C436.056 295.548 436.317 295.952 436.732 296.23C437.147 296.503 437.678 296.639 438.326 296.639C438.962 296.639 439.474 296.517 439.86 296.273C440.252 296.023 440.451 295.702 440.457 295.31C440.451 294.98 440.312 294.71 440.039 294.5C439.766 294.284 439.346 294.119 438.778 294.006L436.511 293.554C435.232 293.298 434.281 292.855 433.656 292.224C433.036 291.594 432.727 290.79 432.727 289.812C432.727 288.972 432.954 288.247 433.408 287.639C433.869 287.031 434.513 286.562 435.343 286.233C436.178 285.903 437.156 285.739 438.275 285.739C439.928 285.739 441.229 286.088 442.178 286.787C443.133 287.486 443.69 288.437 443.849 289.642ZM452.399 299.256C451.053 299.256 449.893 298.983 448.922 298.438C447.956 297.886 447.212 297.108 446.689 296.102C446.166 295.091 445.905 293.895 445.905 292.514C445.905 291.168 446.166 289.986 446.689 288.969C447.212 287.952 447.947 287.159 448.896 286.591C449.851 286.023 450.97 285.739 452.254 285.739C453.118 285.739 453.922 285.878 454.666 286.156C455.416 286.429 456.07 286.841 456.626 287.392C457.189 287.943 457.626 288.636 457.939 289.472C458.251 290.301 458.408 291.273 458.408 292.386V293.384H447.354V291.134H454.99C454.99 290.611 454.876 290.148 454.649 289.744C454.422 289.341 454.107 289.026 453.703 288.798C453.305 288.565 452.842 288.449 452.314 288.449C451.763 288.449 451.274 288.577 450.848 288.832C450.428 289.082 450.098 289.42 449.859 289.847C449.621 290.267 449.499 290.736 449.493 291.253V293.392C449.493 294.04 449.612 294.599 449.851 295.071C450.095 295.543 450.439 295.906 450.882 296.162C451.325 296.418 451.851 296.545 452.459 296.545C452.862 296.545 453.232 296.489 453.567 296.375C453.902 296.261 454.189 296.091 454.428 295.864C454.666 295.636 454.848 295.358 454.973 295.028L458.331 295.25C458.161 296.057 457.811 296.761 457.283 297.364C456.76 297.96 456.084 298.426 455.254 298.761C454.43 299.091 453.479 299.256 452.399 299.256ZM460.777 299V285.909H464.297V288.193H464.433C464.672 287.381 465.072 286.767 465.635 286.352C466.197 285.932 466.845 285.722 467.578 285.722C467.76 285.722 467.956 285.733 468.166 285.756C468.376 285.778 468.561 285.81 468.72 285.849V289.071C468.55 289.02 468.314 288.974 468.013 288.935C467.712 288.895 467.436 288.875 467.186 288.875C466.652 288.875 466.175 288.991 465.754 289.224C465.339 289.452 465.01 289.77 464.766 290.179C464.527 290.588 464.408 291.06 464.408 291.594V299H460.777ZM483.712 281.545V299H480.021V285.048H479.919L475.922 287.554V284.281L480.243 281.545H483.712Z" fill="#2D0F37"/>
<rect x="414" y="318" width="144" height="32" rx="4" fill="#F5F3F5"/>
<path d="M425.472 328.364V340H423.011V328.364H425.472ZM427.496 340V328.364H432.155C433.011 328.364 433.725 328.491 434.297 328.744C434.869 328.998 435.299 329.35 435.587 329.801C435.875 330.248 436.018 330.763 436.018 331.347C436.018 331.801 435.928 332.201 435.746 332.545C435.564 332.886 435.314 333.167 434.996 333.386C434.681 333.602 434.321 333.756 433.916 333.847V333.96C434.359 333.979 434.774 334.104 435.161 334.335C435.551 334.566 435.867 334.89 436.109 335.307C436.352 335.72 436.473 336.212 436.473 336.784C436.473 337.402 436.32 337.953 436.013 338.438C435.71 338.919 435.261 339.299 434.666 339.58C434.071 339.86 433.339 340 432.467 340H427.496ZM429.956 337.989H431.962C432.647 337.989 433.147 337.858 433.462 337.597C433.776 337.331 433.933 336.979 433.933 336.54C433.933 336.218 433.856 335.934 433.7 335.688C433.545 335.441 433.323 335.248 433.036 335.108C432.751 334.968 432.412 334.898 432.018 334.898H429.956V337.989ZM429.956 333.233H431.78C432.117 333.233 432.416 333.174 432.678 333.057C432.943 332.936 433.151 332.765 433.303 332.545C433.458 332.326 433.536 332.062 433.536 331.756C433.536 331.335 433.386 330.996 433.087 330.739C432.791 330.481 432.371 330.352 431.825 330.352H429.956V333.233ZM440.08 340H437.443L441.46 328.364H444.631L448.642 340H446.006L443.091 331.023H443L440.08 340ZM439.915 335.426H446.142V337.347H439.915V335.426ZM459.776 328.364V340H457.651L452.588 332.676H452.503V340H450.043V328.364H452.202L457.224 335.682H457.327V328.364H459.776ZM463.178 338.648C462.803 338.648 462.481 338.515 462.212 338.25C461.946 337.985 461.814 337.663 461.814 337.284C461.814 336.913 461.946 336.595 462.212 336.33C462.481 336.064 462.803 335.932 463.178 335.932C463.541 335.932 463.859 336.064 464.132 336.33C464.405 336.595 464.541 336.913 464.541 337.284C464.541 337.534 464.477 337.763 464.348 337.972C464.223 338.176 464.058 338.341 463.854 338.466C463.649 338.587 463.424 338.648 463.178 338.648ZM463.178 332.938C462.803 332.938 462.481 332.805 462.212 332.54C461.946 332.275 461.814 331.953 461.814 331.574C461.814 331.203 461.946 330.886 462.212 330.625C462.481 330.36 462.803 330.227 463.178 330.227C463.541 330.227 463.859 330.36 464.132 330.625C464.405 330.886 464.541 331.203 464.541 331.574C464.541 331.828 464.477 332.059 464.348 332.267C464.223 332.472 464.058 332.634 463.854 332.756C463.649 332.877 463.424 332.938 463.178 332.938ZM480.544 332.438H478.055C478.01 332.116 477.917 331.83 477.777 331.58C477.637 331.326 477.457 331.11 477.237 330.932C477.018 330.754 476.764 330.617 476.476 330.523C476.192 330.428 475.883 330.381 475.55 330.381C474.947 330.381 474.423 330.53 473.976 330.83C473.529 331.125 473.182 331.557 472.936 332.125C472.69 332.689 472.567 333.375 472.567 334.182C472.567 335.011 472.69 335.708 472.936 336.273C473.186 336.837 473.535 337.263 473.982 337.551C474.429 337.839 474.946 337.983 475.533 337.983C475.862 337.983 476.167 337.939 476.447 337.852C476.732 337.765 476.983 337.638 477.203 337.472C477.423 337.301 477.605 337.095 477.749 336.852C477.896 336.61 477.999 336.333 478.055 336.023L480.544 336.034C480.48 336.568 480.319 337.083 480.061 337.58C479.807 338.072 479.464 338.513 479.033 338.903C478.605 339.29 478.093 339.597 477.499 339.824C476.908 340.047 476.239 340.159 475.493 340.159C474.455 340.159 473.527 339.924 472.709 339.455C471.894 338.985 471.25 338.305 470.777 337.415C470.307 336.525 470.072 335.447 470.072 334.182C470.072 332.913 470.311 331.833 470.788 330.943C471.266 330.053 471.913 329.375 472.732 328.909C473.55 328.439 474.47 328.205 475.493 328.205C476.167 328.205 476.792 328.299 477.368 328.489C477.947 328.678 478.461 328.955 478.908 329.318C479.355 329.678 479.718 330.119 479.999 330.642C480.283 331.165 480.464 331.763 480.544 332.438ZM486.206 340.17C485.323 340.17 484.56 339.983 483.916 339.608C483.276 339.229 482.782 338.703 482.433 338.028C482.085 337.35 481.911 336.564 481.911 335.67C481.911 334.769 482.085 333.981 482.433 333.307C482.782 332.629 483.276 332.102 483.916 331.727C484.56 331.348 485.323 331.159 486.206 331.159C487.089 331.159 487.85 331.348 488.49 331.727C489.134 332.102 489.63 332.629 489.979 333.307C490.327 333.981 490.501 334.769 490.501 335.67C490.501 336.564 490.327 337.35 489.979 338.028C489.63 338.703 489.134 339.229 488.49 339.608C487.85 339.983 487.089 340.17 486.206 340.17ZM486.217 338.295C486.619 338.295 486.954 338.182 487.223 337.955C487.492 337.723 487.695 337.409 487.831 337.011C487.971 336.614 488.041 336.161 488.041 335.653C488.041 335.146 487.971 334.693 487.831 334.295C487.695 333.898 487.492 333.583 487.223 333.352C486.954 333.121 486.619 333.006 486.217 333.006C485.812 333.006 485.471 333.121 485.195 333.352C484.922 333.583 484.715 333.898 484.575 334.295C484.439 334.693 484.371 335.146 484.371 335.653C484.371 336.161 484.439 336.614 484.575 337.011C484.715 337.409 484.922 337.723 485.195 337.955C485.471 338.182 485.812 338.295 486.217 338.295ZM494.496 328.364V340H492.075V328.364H494.496ZM498.855 328.364V340H496.435V328.364H498.855ZM504.771 340.17C503.874 340.17 503.101 339.989 502.453 339.625C501.809 339.258 501.313 338.739 500.964 338.068C500.616 337.394 500.442 336.597 500.442 335.676C500.442 334.778 500.616 333.991 500.964 333.312C501.313 332.634 501.804 332.106 502.436 331.727C503.072 331.348 503.819 331.159 504.675 331.159C505.25 331.159 505.786 331.252 506.283 331.438C506.783 331.619 507.218 331.894 507.589 332.261C507.964 332.629 508.256 333.091 508.464 333.648C508.673 334.201 508.777 334.848 508.777 335.591V336.256H501.408V334.756H506.499C506.499 334.407 506.423 334.098 506.271 333.83C506.12 333.561 505.91 333.35 505.641 333.199C505.375 333.044 505.067 332.966 504.714 332.966C504.347 332.966 504.021 333.051 503.737 333.222C503.457 333.388 503.237 333.614 503.078 333.898C502.919 334.178 502.838 334.491 502.834 334.835V336.261C502.834 336.693 502.913 337.066 503.072 337.381C503.235 337.695 503.464 337.938 503.76 338.108C504.055 338.278 504.406 338.364 504.811 338.364C505.08 338.364 505.326 338.326 505.55 338.25C505.773 338.174 505.964 338.061 506.124 337.909C506.283 337.758 506.404 337.572 506.487 337.352L508.726 337.5C508.612 338.038 508.379 338.508 508.027 338.909C507.679 339.307 507.228 339.617 506.675 339.841C506.125 340.061 505.491 340.17 504.771 340.17ZM514.3 340.17C513.406 340.17 512.637 339.981 511.993 339.602C511.353 339.22 510.86 338.689 510.516 338.011C510.175 337.333 510.004 336.553 510.004 335.67C510.004 334.777 510.177 333.992 510.521 333.318C510.87 332.64 511.364 332.112 512.004 331.733C512.644 331.35 513.406 331.159 514.288 331.159C515.05 331.159 515.716 331.297 516.288 331.574C516.86 331.85 517.313 332.239 517.646 332.739C517.98 333.239 518.163 333.826 518.197 334.5H515.913C515.849 334.064 515.679 333.714 515.402 333.449C515.129 333.18 514.771 333.045 514.328 333.045C513.953 333.045 513.625 333.148 513.345 333.352C513.069 333.553 512.853 333.847 512.697 334.233C512.542 334.619 512.464 335.087 512.464 335.636C512.464 336.193 512.54 336.667 512.692 337.057C512.847 337.447 513.065 337.744 513.345 337.949C513.625 338.153 513.953 338.256 514.328 338.256C514.605 338.256 514.853 338.199 515.072 338.085C515.296 337.972 515.48 337.807 515.624 337.591C515.771 337.371 515.868 337.108 515.913 336.801H518.197C518.16 337.468 517.978 338.055 517.652 338.562C517.33 339.066 516.885 339.46 516.317 339.744C515.749 340.028 515.076 340.17 514.3 340.17ZM524.389 331.273V333.091H519.134V331.273H524.389ZM520.327 329.182H522.747V337.318C522.747 337.542 522.781 337.716 522.849 337.841C522.918 337.962 523.012 338.047 523.134 338.097C523.259 338.146 523.402 338.17 523.565 338.17C523.679 338.17 523.793 338.161 523.906 338.142C524.02 338.119 524.107 338.102 524.168 338.091L524.548 339.892C524.427 339.93 524.257 339.973 524.037 340.023C523.817 340.076 523.55 340.108 523.236 340.119C522.652 340.142 522.141 340.064 521.702 339.886C521.266 339.708 520.927 339.432 520.685 339.057C520.442 338.682 520.323 338.208 520.327 337.636V329.182ZM525.966 340V331.273H528.386V340H525.966ZM527.182 330.148C526.822 330.148 526.513 330.028 526.256 329.79C526.002 329.547 525.875 329.258 525.875 328.92C525.875 328.587 526.002 328.301 526.256 328.062C526.513 327.82 526.822 327.699 527.182 327.699C527.542 327.699 527.848 327.82 528.102 328.062C528.36 328.301 528.489 328.587 528.489 328.92C528.489 329.258 528.36 329.547 528.102 329.79C527.848 330.028 527.542 330.148 527.182 330.148ZM534.268 340.17C533.386 340.17 532.623 339.983 531.979 339.608C531.339 339.229 530.844 338.703 530.496 338.028C530.147 337.35 529.973 336.564 529.973 335.67C529.973 334.769 530.147 333.981 530.496 333.307C530.844 332.629 531.339 332.102 531.979 331.727C532.623 331.348 533.386 331.159 534.268 331.159C535.151 331.159 535.912 331.348 536.553 331.727C537.196 332.102 537.693 332.629 538.041 333.307C538.39 333.981 538.564 334.769 538.564 335.67C538.564 336.564 538.39 337.35 538.041 338.028C537.693 338.703 537.196 339.229 536.553 339.608C535.912 339.983 535.151 340.17 534.268 340.17ZM534.28 338.295C534.681 338.295 535.017 338.182 535.286 337.955C535.554 337.723 535.757 337.409 535.893 337.011C536.034 336.614 536.104 336.161 536.104 335.653C536.104 335.146 536.034 334.693 535.893 334.295C535.757 333.898 535.554 333.583 535.286 333.352C535.017 333.121 534.681 333.006 534.28 333.006C533.875 333.006 533.534 333.121 533.257 333.352C532.984 333.583 532.778 333.898 532.638 334.295C532.501 334.693 532.433 335.146 532.433 335.653C532.433 336.161 532.501 336.614 532.638 337.011C532.778 337.409 532.984 337.723 533.257 337.955C533.534 338.182 533.875 338.295 534.28 338.295ZM542.558 334.955V340H540.138V331.273H542.445V332.812H542.547C542.74 332.305 543.064 331.903 543.518 331.608C543.973 331.309 544.524 331.159 545.172 331.159C545.778 331.159 546.306 331.292 546.757 331.557C547.208 331.822 547.558 332.201 547.808 332.693C548.058 333.182 548.183 333.765 548.183 334.443V340H545.763V334.875C545.767 334.341 545.63 333.924 545.354 333.625C545.077 333.322 544.696 333.17 544.212 333.17C543.886 333.17 543.598 333.241 543.348 333.381C543.102 333.521 542.909 333.725 542.768 333.994C542.632 334.259 542.562 334.58 542.558 334.955Z" fill="#2D0F37"/>
<rect x="414" y="358" width="66" height="32" rx="4" fill="#F5F3F5"/>
<path d="M425.631 380L422.301 368.364H424.989L426.915 376.449H427.011L429.136 368.364H431.438L433.557 376.466H433.659L435.585 368.364H438.273L434.943 380H432.545L430.33 372.392H430.239L428.028 380H425.631ZM441.095 380.165C440.538 380.165 440.042 380.068 439.607 379.875C439.171 379.678 438.826 379.388 438.572 379.006C438.322 378.619 438.197 378.138 438.197 377.562C438.197 377.078 438.286 376.67 438.464 376.341C438.643 376.011 438.885 375.746 439.192 375.545C439.499 375.345 439.847 375.193 440.237 375.091C440.631 374.989 441.044 374.917 441.476 374.875C441.983 374.822 442.393 374.773 442.703 374.727C443.014 374.678 443.239 374.606 443.379 374.511C443.519 374.417 443.589 374.277 443.589 374.091V374.057C443.589 373.697 443.476 373.419 443.249 373.222C443.025 373.025 442.707 372.926 442.294 372.926C441.858 372.926 441.512 373.023 441.254 373.216C440.997 373.405 440.826 373.644 440.743 373.932L438.504 373.75C438.618 373.22 438.841 372.761 439.175 372.375C439.508 371.985 439.938 371.686 440.464 371.477C440.995 371.265 441.608 371.159 442.305 371.159C442.79 371.159 443.254 371.216 443.697 371.33C444.144 371.443 444.54 371.619 444.885 371.858C445.233 372.097 445.508 372.403 445.709 372.778C445.91 373.15 446.01 373.595 446.01 374.114V380H443.714V378.79H443.646C443.506 379.062 443.319 379.303 443.084 379.511C442.849 379.716 442.567 379.877 442.237 379.994C441.908 380.108 441.527 380.165 441.095 380.165ZM441.788 378.494C442.144 378.494 442.459 378.424 442.732 378.284C443.004 378.14 443.218 377.947 443.374 377.705C443.529 377.462 443.607 377.187 443.607 376.881V375.955C443.531 376.004 443.427 376.049 443.294 376.091C443.165 376.129 443.019 376.165 442.857 376.199C442.694 376.229 442.531 376.258 442.368 376.284C442.205 376.307 442.057 376.328 441.925 376.347C441.641 376.388 441.393 376.455 441.18 376.545C440.968 376.636 440.804 376.759 440.686 376.915C440.569 377.066 440.51 377.256 440.51 377.483C440.51 377.812 440.629 378.064 440.868 378.239C441.11 378.409 441.417 378.494 441.788 378.494ZM450.308 368.364V380H447.888V368.364H450.308ZM454.668 368.364V380H452.247V368.364H454.668ZM460.584 380.17C459.686 380.17 458.913 379.989 458.266 379.625C457.622 379.258 457.125 378.739 456.777 378.068C456.429 377.394 456.254 376.597 456.254 375.676C456.254 374.778 456.429 373.991 456.777 373.312C457.125 372.634 457.616 372.106 458.249 371.727C458.885 371.348 459.631 371.159 460.487 371.159C461.063 371.159 461.599 371.252 462.095 371.438C462.595 371.619 463.031 371.894 463.402 372.261C463.777 372.629 464.069 373.091 464.277 373.648C464.485 374.201 464.589 374.848 464.589 375.591V376.256H457.22V374.756H462.311C462.311 374.407 462.235 374.098 462.084 373.83C461.932 373.561 461.722 373.35 461.453 373.199C461.188 373.044 460.879 372.966 460.527 372.966C460.16 372.966 459.834 373.051 459.55 373.222C459.269 373.388 459.05 373.614 458.891 373.898C458.732 374.178 458.65 374.491 458.646 374.835V376.261C458.646 376.693 458.726 377.066 458.885 377.381C459.048 377.695 459.277 377.938 459.572 378.108C459.868 378.278 460.218 378.364 460.624 378.364C460.893 378.364 461.139 378.326 461.362 378.25C461.586 378.174 461.777 378.061 461.936 377.909C462.095 377.758 462.216 377.572 462.3 377.352L464.538 377.5C464.425 378.038 464.192 378.508 463.839 378.909C463.491 379.307 463.04 379.617 462.487 379.841C461.938 380.061 461.304 380.17 460.584 380.17ZM470.811 371.273V373.091H465.555V371.273H470.811ZM466.749 369.182H469.169V377.318C469.169 377.542 469.203 377.716 469.271 377.841C469.339 377.962 469.434 378.047 469.555 378.097C469.68 378.146 469.824 378.17 469.987 378.17C470.101 378.17 470.214 378.161 470.328 378.142C470.442 378.119 470.529 378.102 470.589 378.091L470.97 379.892C470.849 379.93 470.679 379.973 470.459 380.023C470.239 380.076 469.972 380.108 469.658 380.119C469.074 380.142 468.563 380.064 468.124 379.886C467.688 379.708 467.349 379.432 467.107 379.057C466.864 378.682 466.745 378.208 466.749 377.636V369.182Z" fill="#2D0F37"/>
</g>
<path d="M366 330L356 324.227L356 335.774L366 330ZM186 331L357 331L357 329L186 329L186 331Z" fill="#2D0F37"/>
<rect x="238" y="314" width="75" height="32" rx="16" fill="#2D0F37"/>
<path d="M251.843 336V324.364H256.207C257.101 324.364 257.851 324.53 258.457 324.864C259.067 325.197 259.527 325.655 259.837 326.239C260.152 326.818 260.309 327.477 260.309 328.216C260.309 328.962 260.152 329.625 259.837 330.205C259.523 330.784 259.059 331.241 258.445 331.574C257.832 331.903 257.076 332.068 256.178 332.068H253.286V330.335H255.894C256.417 330.335 256.845 330.244 257.178 330.062C257.512 329.881 257.758 329.631 257.917 329.312C258.08 328.994 258.161 328.629 258.161 328.216C258.161 327.803 258.08 327.439 257.917 327.125C257.758 326.811 257.51 326.566 257.173 326.392C256.839 326.214 256.409 326.125 255.883 326.125H253.951V336H251.843ZM264.404 336.176C263.851 336.176 263.353 336.078 262.91 335.881C262.47 335.68 262.122 335.384 261.864 334.994C261.611 334.604 261.484 334.123 261.484 333.551C261.484 333.059 261.575 332.652 261.756 332.33C261.938 332.008 262.186 331.75 262.501 331.557C262.815 331.364 263.169 331.218 263.563 331.119C263.961 331.017 264.372 330.943 264.796 330.898C265.308 330.845 265.722 330.797 266.04 330.756C266.359 330.71 266.59 330.642 266.734 330.551C266.881 330.456 266.955 330.311 266.955 330.114V330.08C266.955 329.652 266.828 329.32 266.575 329.085C266.321 328.85 265.955 328.733 265.478 328.733C264.974 328.733 264.575 328.843 264.279 329.062C263.987 329.282 263.79 329.542 263.688 329.841L261.768 329.568C261.919 329.038 262.169 328.595 262.518 328.239C262.866 327.879 263.292 327.61 263.796 327.432C264.3 327.25 264.857 327.159 265.467 327.159C265.887 327.159 266.306 327.208 266.722 327.307C267.139 327.405 267.52 327.568 267.864 327.795C268.209 328.019 268.486 328.324 268.694 328.71C268.906 329.097 269.012 329.58 269.012 330.159V336H267.035V334.801H266.967C266.842 335.044 266.665 335.271 266.438 335.483C266.215 335.691 265.933 335.86 265.592 335.989C265.254 336.114 264.859 336.176 264.404 336.176ZM264.938 334.665C265.351 334.665 265.709 334.583 266.012 334.42C266.315 334.254 266.548 334.034 266.711 333.761C266.878 333.489 266.961 333.191 266.961 332.869V331.841C266.897 331.894 266.787 331.943 266.631 331.989C266.48 332.034 266.309 332.074 266.12 332.108C265.931 332.142 265.743 332.172 265.558 332.199C265.372 332.225 265.211 332.248 265.075 332.267C264.768 332.309 264.493 332.377 264.251 332.472C264.008 332.566 263.817 332.699 263.677 332.869C263.537 333.036 263.467 333.252 263.467 333.517C263.467 333.896 263.605 334.182 263.881 334.375C264.158 334.568 264.51 334.665 264.938 334.665ZM272.046 339.273C271.766 339.273 271.506 339.25 271.268 339.205C271.033 339.163 270.845 339.114 270.705 339.057L271.183 337.455C271.482 337.542 271.749 337.583 271.984 337.58C272.219 337.576 272.425 337.502 272.603 337.358C272.785 337.218 272.938 336.983 273.063 336.653L273.239 336.182L270.075 327.273H272.256L274.268 333.864H274.359L276.376 327.273H278.563L275.069 337.057C274.906 337.519 274.69 337.915 274.421 338.244C274.152 338.578 273.823 338.831 273.433 339.006C273.046 339.184 272.584 339.273 272.046 339.273ZM285.276 330.307V332H280.038V330.307H285.276ZM287.44 336V327.273H289.496V336H287.44ZM288.474 326.034C288.148 326.034 287.868 325.926 287.633 325.71C287.398 325.491 287.281 325.227 287.281 324.92C287.281 324.61 287.398 324.347 287.633 324.131C287.868 323.911 288.148 323.801 288.474 323.801C288.803 323.801 289.084 323.911 289.315 324.131C289.549 324.347 289.667 324.61 289.667 324.92C289.667 325.227 289.549 325.491 289.315 325.71C289.084 325.926 288.803 326.034 288.474 326.034ZM293.668 330.886V336H291.612V327.273H293.577V328.756H293.68C293.88 328.267 294.201 327.879 294.64 327.591C295.083 327.303 295.63 327.159 296.282 327.159C296.884 327.159 297.409 327.288 297.856 327.545C298.307 327.803 298.655 328.176 298.901 328.665C299.151 329.153 299.274 329.746 299.271 330.443V336H297.214V330.761C297.214 330.178 297.062 329.722 296.759 329.392C296.46 329.062 296.045 328.898 295.515 328.898C295.155 328.898 294.835 328.977 294.555 329.136C294.278 329.292 294.06 329.517 293.901 329.812C293.746 330.108 293.668 330.466 293.668 330.886Z" fill="white"/>
<path d="M830 334L820 328.227L820 339.774L830 334ZM650 335L821 335L821 333L650 333L650 335Z" fill="#2D0F37"/>
<rect x="694" y="318" width="91" height="32" rx="16" fill="#2D0F37"/>
<path d="M707.589 330.131V328.364H716.874V330.131H713.277V340H711.186V330.131H707.589ZM717.666 340V331.273H719.661V332.727H719.751C719.911 332.223 720.183 331.835 720.57 331.562C720.96 331.286 721.405 331.148 721.905 331.148C722.018 331.148 722.145 331.153 722.286 331.165C722.429 331.172 722.549 331.186 722.643 331.205V333.097C722.556 333.066 722.418 333.04 722.229 333.017C722.043 332.991 721.863 332.977 721.689 332.977C721.314 332.977 720.977 333.059 720.678 333.222C720.382 333.381 720.149 333.602 719.979 333.886C719.808 334.17 719.723 334.498 719.723 334.869V340H717.666ZM726.365 340.176C725.812 340.176 725.314 340.078 724.871 339.881C724.431 339.68 724.083 339.384 723.825 338.994C723.571 338.604 723.445 338.123 723.445 337.551C723.445 337.059 723.536 336.652 723.717 336.33C723.899 336.008 724.147 335.75 724.462 335.557C724.776 335.364 725.13 335.218 725.524 335.119C725.922 335.017 726.333 334.943 726.757 334.898C727.268 334.845 727.683 334.797 728.001 334.756C728.32 334.71 728.551 334.642 728.695 334.551C728.842 334.456 728.916 334.311 728.916 334.114V334.08C728.916 333.652 728.789 333.32 728.536 333.085C728.282 332.85 727.916 332.733 727.439 332.733C726.935 332.733 726.536 332.843 726.24 333.062C725.948 333.282 725.751 333.542 725.649 333.841L723.729 333.568C723.88 333.038 724.13 332.595 724.479 332.239C724.827 331.879 725.253 331.61 725.757 331.432C726.261 331.25 726.818 331.159 727.428 331.159C727.848 331.159 728.267 331.208 728.683 331.307C729.1 331.405 729.481 331.568 729.825 331.795C730.17 332.019 730.446 332.324 730.655 332.71C730.867 333.097 730.973 333.58 730.973 334.159V340H728.996V338.801H728.928C728.803 339.044 728.626 339.271 728.399 339.483C728.176 339.691 727.893 339.86 727.553 339.989C727.215 340.114 726.82 340.176 726.365 340.176ZM726.899 338.665C727.312 338.665 727.67 338.583 727.973 338.42C728.276 338.254 728.509 338.034 728.672 337.761C728.839 337.489 728.922 337.191 728.922 336.869V335.841C728.857 335.894 728.748 335.943 728.592 335.989C728.441 336.034 728.27 336.074 728.081 336.108C727.892 336.142 727.704 336.172 727.518 336.199C727.333 336.225 727.172 336.248 727.036 336.267C726.729 336.309 726.454 336.377 726.212 336.472C725.969 336.566 725.778 336.699 725.638 336.869C725.498 337.036 725.428 337.252 725.428 337.517C725.428 337.896 725.566 338.182 725.842 338.375C726.119 338.568 726.471 338.665 726.899 338.665ZM735.098 334.886V340H733.041V331.273H735.007V332.756H735.109C735.31 332.267 735.63 331.879 736.07 331.591C736.513 331.303 737.06 331.159 737.712 331.159C738.314 331.159 738.839 331.288 739.286 331.545C739.736 331.803 740.085 332.176 740.331 332.665C740.581 333.153 740.704 333.746 740.7 334.443V340H738.643V334.761C738.643 334.178 738.492 333.722 738.189 333.392C737.89 333.062 737.475 332.898 736.945 332.898C736.585 332.898 736.265 332.977 735.984 333.136C735.708 333.292 735.49 333.517 735.331 333.812C735.176 334.108 735.098 334.466 735.098 334.886ZM749.689 333.58L747.814 333.784C747.761 333.595 747.668 333.417 747.536 333.25C747.407 333.083 747.232 332.949 747.013 332.847C746.793 332.744 746.524 332.693 746.206 332.693C745.778 332.693 745.418 332.786 745.126 332.972C744.839 333.157 744.696 333.398 744.7 333.693C744.696 333.947 744.789 334.153 744.979 334.312C745.172 334.472 745.49 334.602 745.933 334.705L747.422 335.023C748.248 335.201 748.861 335.483 749.263 335.869C749.668 336.256 749.873 336.761 749.876 337.386C749.873 337.936 749.712 338.42 749.393 338.841C749.079 339.258 748.642 339.583 748.081 339.818C747.52 340.053 746.876 340.17 746.149 340.17C745.081 340.17 744.221 339.947 743.57 339.5C742.918 339.049 742.53 338.422 742.405 337.619L744.411 337.426C744.501 337.82 744.695 338.117 744.99 338.318C745.286 338.519 745.67 338.619 746.143 338.619C746.632 338.619 747.024 338.519 747.32 338.318C747.619 338.117 747.768 337.869 747.768 337.574C747.768 337.324 747.672 337.117 747.479 336.955C747.289 336.792 746.994 336.667 746.592 336.58L745.104 336.267C744.267 336.093 743.647 335.799 743.246 335.386C742.844 334.97 742.645 334.443 742.649 333.807C742.645 333.269 742.791 332.803 743.087 332.409C743.386 332.011 743.801 331.705 744.331 331.489C744.865 331.269 745.481 331.159 746.178 331.159C747.2 331.159 748.005 331.377 748.592 331.812C749.183 332.248 749.549 332.837 749.689 333.58ZM755.993 331.273V332.864H750.834V331.273H755.993ZM752.124 340V330.449C752.124 329.862 752.245 329.373 752.487 328.983C752.733 328.593 753.063 328.301 753.476 328.108C753.889 327.915 754.347 327.818 754.851 327.818C755.207 327.818 755.523 327.847 755.8 327.903C756.076 327.96 756.281 328.011 756.413 328.057L756.004 329.648C755.917 329.621 755.807 329.595 755.675 329.568C755.542 329.538 755.394 329.523 755.232 329.523C754.849 329.523 754.578 329.616 754.419 329.801C754.264 329.983 754.186 330.244 754.186 330.585V340H752.124ZM761.139 340.17C760.264 340.17 759.509 339.989 758.872 339.625C758.24 339.258 757.753 338.739 757.412 338.068C757.071 337.394 756.901 336.6 756.901 335.688C756.901 334.79 757.071 334.002 757.412 333.324C757.757 332.642 758.238 332.112 758.855 331.733C759.473 331.35 760.198 331.159 761.031 331.159C761.569 331.159 762.077 331.246 762.554 331.42C763.035 331.591 763.459 331.856 763.827 332.216C764.198 332.576 764.49 333.034 764.702 333.591C764.914 334.144 765.02 334.803 765.02 335.568V336.199H757.866V334.812H763.048C763.045 334.419 762.959 334.068 762.793 333.761C762.626 333.451 762.393 333.206 762.094 333.028C761.798 332.85 761.454 332.761 761.06 332.761C760.639 332.761 760.27 332.864 759.952 333.068C759.634 333.269 759.385 333.534 759.207 333.864C759.033 334.189 758.944 334.547 758.94 334.938V336.148C758.94 336.655 759.033 337.091 759.219 337.455C759.404 337.814 759.664 338.091 759.997 338.284C760.33 338.473 760.721 338.568 761.168 338.568C761.467 338.568 761.738 338.527 761.98 338.443C762.223 338.356 762.433 338.229 762.611 338.062C762.789 337.896 762.923 337.689 763.014 337.443L764.935 337.659C764.813 338.167 764.582 338.61 764.241 338.989C763.904 339.364 763.473 339.655 762.946 339.864C762.42 340.068 761.817 340.17 761.139 340.17ZM766.76 340V331.273H768.754V332.727H768.845C769.004 332.223 769.277 331.835 769.663 331.562C770.054 331.286 770.499 331.148 770.999 331.148C771.112 331.148 771.239 331.153 771.379 331.165C771.523 331.172 771.643 331.186 771.737 331.205V333.097C771.65 333.066 771.512 333.04 771.322 333.017C771.137 332.991 770.957 332.977 770.783 332.977C770.408 332.977 770.071 333.059 769.771 333.222C769.476 333.381 769.243 333.602 769.072 333.886C768.902 334.17 768.817 334.498 768.817 334.869V340H766.76Z" fill="white"/>
<defs>
<filter id="filter0_ddd_35467_782" x="838" y="168" width="268" height="270" filterUnits="userSpaceOnUse" color-interpolation-filters="sRGB">
<feFlood flood-opacity="0" result="BackgroundImageFix"/>
<feColorMatrix in="SourceAlpha" type="matrix" values="0 0 0 0 0 0 0 0 0 0 0 0 0 0 0 0 0 0 127 0" result="hardAlpha"/>
<feOffset dy="2"/>
<feGaussianBlur stdDeviation="3"/>
<feColorMatrix type="matrix" values="0 0 0 0 0.176471 0 0 0 0 0.0588235 0 0 0 0 0.215686 0 0 0 0.05 0"/>
<feBlend mode="normal" in2="BackgroundImageFix" result="effect1_dropShadow_35467_782"/>
<feColorMatrix in="SourceAlpha" type="matrix" values="0 0 0 0 0 0 0 0 0 0 0 0 0 0 0 0 0 0 127 0" result="hardAlpha"/>
<feOffset dy="-2"/>
<feGaussianBlur stdDeviation="3"/>
<feColorMatrix type="matrix" values="0 0 0 0 0.176471 0 0 0 0 0.0588235 0 0 0 0 0.215686 0 0 0 0.02 0"/>
<feBlend mode="normal" in2="effect1_dropShadow_35467_782" result="effect2_dropShadow_35467_782"/>
<feColorMatrix in="SourceAlpha" type="matrix" values="0 0 0 0 0 0 0 0 0 0 0 0 0 0 0 0 0 0 127 0" result="hardAlpha"/>
<feOffset dy="10"/>
<feGaussianBlur stdDeviation="8"/>
<feColorMatrix type="matrix" values="0 0 0 0 0.176471 0 0 0 0 0.0588235 0 0 0 0 0.215686 0 0 0 0.05 0"/>
<feBlend mode="normal" in2="effect2_dropShadow_35467_782" result="effect3_dropShadow_35467_782"/>
<feBlend mode="normal" in="SourceGraphic" in2="effect3_dropShadow_35467_782" result="shape"/>
</filter>
<filter id="filter1_ddd_35467_782" x="374" y="170" width="268" height="270" filterUnits="userSpaceOnUse" color-interpolation-filters="sRGB">
<feFlood flood-opacity="0" result="BackgroundImageFix"/>
<feColorMatrix in="SourceAlpha" type="matrix" values="0 0 0 0 0 0 0 0 0 0 0 0 0 0 0 0 0 0 127 0" result="hardAlpha"/>
<feOffset dy="2"/>
<feGaussianBlur stdDeviation="3"/>
<feColorMatrix type="matrix" values="0 0 0 0 0.176471 0 0 0 0 0.0588235 0 0 0 0 0.215686 0 0 0 0.05 0"/>
<feBlend mode="normal" in2="BackgroundImageFix" result="effect1_dropShadow_35467_782"/>
<feColorMatrix in="SourceAlpha" type="matrix" values="0 0 0 0 0 0 0 0 0 0 0 0 0 0 0 0 0 0 127 0" result="hardAlpha"/>
<feOffset dy="-2"/>
<feGaussianBlur stdDeviation="3"/>
<feColorMatrix type="matrix" values="0 0 0 0 0.176471 0 0 0 0 0.0588235 0 0 0 0 0.215686 0 0 0 0.02 0"/>
<feBlend mode="normal" in2="effect1_dropShadow_35467_782" result="effect2_dropShadow_35467_782"/>
<feColorMatrix in="SourceAlpha" type="matrix" values="0 0 0 0 0 0 0 0 0 0 0 0 0 0 0 0 0 0 127 0" result="hardAlpha"/>
<feOffset dy="10"/>
<feGaussianBlur stdDeviation="8"/>
<feColorMatrix type="matrix" values="0 0 0 0 0.176471 0 0 0 0 0.0588235 0 0 0 0 0.215686 0 0 0 0.05 0"/>
<feBlend mode="normal" in2="effect2_dropShadow_35467_782" result="effect3_dropShadow_35467_782"/>
<feBlend mode="normal" in="SourceGraphic" in2="effect3_dropShadow_35467_782" result="shape"/>
</filter>
</defs>
</svg>
